<?xml version="1.0" encoding="UTF-8" standalone="no"?>
<svg
   width="665.745"
   height="474.008"
   viewBox="0 0 665.745 474.008"
   version="1.2"
   id="svg1479"
   xmlns="http://www.w3.org/2000/svg"
   xmlns:svg="http://www.w3.org/2000/svg"
   xmlns:rdf="http://www.w3.org/1999/02/22-rdf-syntax-ns#"
   xmlns:cc="http://creativecommons.org/ns#"
   xmlns:dc="http://purl.org/dc/elements/1.1/">
  <defs
     id="defs1483" />
  <title
     id="title1307">Quick sheets</title>
  <g
     id="g1313"
     transform="translate(-115.526,-219.684)">
    <path
       fill="none"
       stroke="#000000"
       stroke-width="2"
       stroke-linecap="round"
       stroke-linejoin="round"
       d="m 279.847,252.595 -1.783,-0.125 -1.712,-1.228 0.618,-2.688 3.735,-7.401 4.248,-5.818 2.786,-3.182 3.181,-2.434 4.003,-1.553 4.079,-0.141 1.905,0.94 1.385,1.606 1.431,4.7 -0.224,4.461 -0.85,4.646 -3.697,13.044 -3.485,6.679 -6.477,6.029 -4.412,2.329 -3.175,0.513 -0.599,-0.243 0.08,-0.422 1.155,-0.23 3.069,-2.097 2.505,-0.671 5.763,-0.222 4.422,0.25 10.047,-0.095 4.856,-0.855 7.099,-2.081 3.951,-1.853 1.963,-1.286 0.092,-0.477 -0.526,-0.134"
       id="path1311" />
  </g>
  <g
     id="g1317"
     transform="translate(-115.526,-219.684)">
    <path
       fill="none"
       stroke="#000000"
       stroke-width="2"
       stroke-linecap="round"
       stroke-linejoin="round"
       d="m 329.831,235.227 0.619,-1.796 1.61,-1.137 -0.348,0.706 0.87,1.803 1.553,6.173 0.695,1.584 1.054,7.3 2.16,6.251 0.402,2.21 3.18,6.636 0.151,0.94 1.173,1.121 0.742,0.136 0.145,0.502 0.569,-0.269 0.078,-0.508 0.855,-0.344 0.68,-1.127 0.464,-0.128 0.705,-2.158 2.841,-5.526 0.285,-1.364 2.701,-5.031 3.077,-8.065 3.648,-7.775 3.637,-5.806 1.3,-1.361 1.356,-2.397 1.211,-1.364 1.831,-3.435 -0.973,1.679 -0.793,2.645 -0.171,2.742"
       id="path1315" />
  </g>
  <g
     id="g1321"
     transform="translate(-115.526,-219.684)">
    <path
       fill="none"
       stroke="#000000"
       stroke-width="2"
       stroke-linecap="round"
       stroke-linejoin="round"
       d="m 402.503,226.511 -0.259,0.395 0.178,-0.351 -0.531,-0.964 -1.493,-1.005 -9.323,-2.959 -5.427,-0.943 -3.764,0.54 -0.195,0.475 0.086,-0.471 0.048,0.84 -0.868,0.407 -0.291,1.226 -0.671,6.845 -0.196,8.566 -1.06,7.525 0.155,0.6 -0.449,0.996 -0.173,1.713 0.432,0.108 0.404,-2.253 0.551,-0.129 2.723,-2.27 0.882,-0.211 2.557,-1.529 4.018,-0.684 4.065,1.322 2.128,1.817 0.806,1.677 0.398,4.703 -1.448,3.629 -3.639,5.092 -6.27,6.064 -2.501,1.682 -3.832,1.786 -2.412,-0.193 -3.249,-1.16 -0.554,-1.196 0.024,-1.718"
       id="path1319" />
  </g>
  <g
     id="g1325"
     transform="translate(-115.526,-219.684)">
    <path
       fill="none"
       stroke="#000000"
       stroke-width="2"
       stroke-linecap="round"
       stroke-linejoin="round"
       d="m 288.95,277.224 -2.638,0.032 -0.786,0.469 -0.359,-0.182 0.318,0.169 0.424,-0.217 -0.119,-0.185 2.153,-0.511 1.378,-0.693 3.342,-0.723 13.593,0.623 14.063,-0.796 25.756,-0.21 24.271,-1.316 28.028,-0.849 16.42,-1.667 0.813,0.239"
       id="path1323" />
  </g>
  <g
     id="g1329"
     transform="translate(-115.526,-219.684)">
    <path
       fill="none"
       stroke="#000000"
       stroke-width="2"
       stroke-linecap="round"
       stroke-linejoin="round"
       d="m 344.331,275.885 0.436,0.643 -0.546,0.573 0.062,0.537 0.237,-0.359 0.095,0.263 -0.348,-0.247 0.27,0.023 -0.426,1.103 0.166,4.401 -0.322,1.703 -0.025,5.386 -1.408,8.753 -0.675,11.06 0.153,1.779 -0.731,8.585 0.293,4.974 0.847,3.199 -0.683,3.672 0.172,0.586 -0.223,0.253 -0.235,-0.528 0.382,-0.212 -0.243,-0.612 0.2,-1.532"
       id="path1327" />
  </g>
  <g
     id="g1333"
     transform="translate(-115.526,-219.684)">
    <path
       fill="none"
       stroke="#000000"
       stroke-width="2"
       stroke-linecap="round"
       stroke-linejoin="round"
       d="m 340.914,328.746 0.411,0.479 -0.337,-0.535 0.205,0.469 -0.432,1.201 -0.299,3.469 0.534,10.956 -0.572,5.829 -0.759,2.372 0.08,4.84 -0.308,1.084 0.405,4.621 -0.085,3.668 -0.768,1.988 0.099,1.985 0.304,0.31 -0.463,0.493 -0.271,1.401 0.176,0.808 -0.295,1.978 0.319,0.667 -0.406,-0.294 0.448,1.704 -0.021,0.466 -0.23,-0.157 -0.133,0.351 0.154,1.503 -0.363,1.521 0.225,1.604 0.213,-0.387 -0.032,0.296 -0.329,-0.27 0.615,-0.415 0.113,-0.5"
       id="path1331" />
  </g>
  <g
     id="g1337"
     transform="translate(-115.526,-219.684)">
    <path
       fill="none"
       stroke="#000000"
       stroke-width="2"
       stroke-linecap="round"
       stroke-linejoin="round"
       d="m 338.092,383.56 -1.209,0.619 0.449,0.053 -0.052,-0.38 0.435,1.093 -0.438,1.137 -0.415,3.565 0.447,1.433 -0.394,2.748 0.245,0.492 -0.415,0.146 -0.549,1.591 0.339,7.103 -0.08,2.724 -0.541,1.37 0.354,0.976 -0.076,2.877 -0.594,1.854 0.262,1.664 -0.389,0.139 -0.332,1.36 0.407,1.613 -0.258,0.17 0.086,0.612 -0.219,-0.14 -0.26,0.445 0.128,0.949 -0.649,2.009 0.635,1.634 -0.551,1.428 0.291,0.712 -0.267,0.756 0.275,2.326 -0.606,2.47 0.503,2.032 -0.387,1.627 0.149,3.537 -0.922,3.303 -0.676,4.086 0.347,4.149 -0.28,4.526 -1.478,5.896 -0.509,3.886 0.233,0.598 -0.183,1.957 -0.73,4.859 0.275,4.923 -0.405,9.766 -0.681,3.486 0.08,0.362 0.206,-0.101 -0.667,2.358 0.165,1.528 -0.705,0.749 0.278,0.725 -0.379,0.225 0.021,-0.456 0.144,0.35 0.201,-0.554 0.287,0.203 0.337,-0.357 0.335,0.619 1.68,-0.683 1.641,-0.237 6.325,0.489 7.036,-0.7 8.326,-2.198 2.157,-0.098 3.081,0.122 0.854,0.297 2.522,-0.091 4.181,0.537 1.436,0.47 0.704,-0.535 1.336,1.03 2.156,-0.674 1.432,0.047 -0.178,0.564 -0.012,-0.293 0.465,0.224 -0.681,-0.175 -0.757,0.571"
       id="path1335" />
  </g>
  <g
     id="g1341"
     transform="translate(-115.526,-219.684)">
    <path
       fill="none"
       stroke="#000000"
       stroke-width="2"
       stroke-linecap="round"
       stroke-linejoin="round"
       d="m 377.093,465.88 0.353,-1.199 -0.306,-0.727 0.182,0.884 -0.5,0.763 -0.301,17.533 -0.927,12.819 -1.209,11.129 -0.169,6.652 1.286,16.261 1.598,9.4 -0.079,1.52 0.675,2.367 -0.673,3.471 -0.413,1.201 -0.222,0.358 -0.237,-0.111 0.014,-0.703 0.573,-0.296 -0.338,-1.596 1.825,-2.454"
       id="path1339" />
  </g>
  <g
     id="g1345"
     transform="translate(-115.526,-219.684)">
    <path
       fill="none"
       stroke="#000000"
       stroke-width="2"
       stroke-linecap="round"
       stroke-linejoin="round"
       d="m 377.78,468.073 -0.094,0.228 1.244,0.706 0.266,0.563 2.012,1.561 0.442,-0.123 2.636,1.759 1.925,0.84 6.136,4.083 4.188,3.352 1.708,1.896 3.58,2.619 2.961,1.375 1.159,1.08 2.987,0.965 2.369,1.897 0.965,0.307 3.469,3.343 2.409,1.814 4.896,2.408 2.331,0.142 -0.125,-0.431 0.979,1.2 0.557,-0.18 0.089,0.214 -0.026,-0.208 0.187,0.328 -0.067,-0.6 -0.355,0.057 -0.182,0.605"
       id="path1343" />
  </g>
  <g
     id="g1349"
     transform="translate(-115.526,-219.684)">
    <path
       fill="none"
       stroke="#000000"
       stroke-width="2"
       stroke-linecap="round"
       stroke-linejoin="round"
       d="m 382.014,552.663 -0.857,0.362 -0.629,-0.098 0.045,-0.54 0.56,-0.018 4.787,-3.537 8.827,-9.923 7.864,-6.443 1.743,-1.197 5.79,-2.936 6.413,-2.789 6.576,-3.437 7.581,-5.323 2.183,-1.965 1.079,-0.358 3.191,-2.451 1.461,-1.632 0.32,-0.992 1.624,-0.957 1.168,-0.224 1.063,-0.788 -0.219,-0.13 0.041,0.612 0.124,-0.472 -0.152,0.203 1.412,0.641 -0.525,-0.679 0.23,0.688 -0.345,-0.257 0.39,0.078 -1.119,-0.92 -0.266,-0.629 -5.221,-2.286 -2.126,-1.259 -7.93,-3.154 -4.903,-1.789 -4.086,-0.915 -4.774,-0.661 -0.149,0.424 1.459,0.096"
       id="path1347" />
  </g>
  <g
     id="g1353"
     transform="translate(-115.526,-219.684)">
    <path
       fill="none"
       stroke="#000000"
       stroke-width="2"
       stroke-linecap="round"
       stroke-linejoin="round"
       d="m 264.785,632.928 -0.948,1.503 -0.858,0.633 -1.406,0.018 -1.138,-0.435 -0.339,0.178 -1.924,-2.497 -2.111,-5.952 0.192,-2.872 0.927,-4.567 1.912,-4.885 1.426,-2.482 1.031,-1.02 2.778,-1.506 2.725,-0.468 2.173,0.751 2.177,2.288 1.487,2.165 1.623,4.366 0.264,2.415 -0.133,3.425 -1.223,5.149 -2.144,3.836 -2.039,2.486 -3.524,3.185 -3.116,1.437 -0.612,-0.163 -1.232,0.758 -1.731,0.433 -1.994,-0.011 -1.125,-0.442 -0.541,0.213 -1.081,-2.109 -0.08,-2.067"
       id="path1351" />
  </g>
  <g
     id="g1357"
     transform="translate(-115.526,-219.684)">
    <path
       fill="none"
       stroke="#000000"
       stroke-width="2"
       stroke-linecap="round"
       stroke-linejoin="round"
       d="m 127.797,636.729 3.238,-0.451 1.834,-1.73 0.572,-2.106 -0.366,0.149 0.09,-0.329 -3.025,-0.875 -2.268,0.537 -4.586,2.514 -1.631,1.335 -1.925,2.276 -2.887,5.014 -0.317,2.109 0.587,2.714 1.627,1.428 3.007,0.839 6.639,0.92 4.389,2.212 3.306,2.891 0.482,0.978 0.895,0.698 0.601,0.962 -0.014,1.246 -1.973,3.971 -4.137,4.5 -5.94,3.053 -0.66,-0.127 0.347,-1.297"
       id="path1355" />
  </g>
  <g
     id="g1361"
     transform="translate(-115.526,-219.684)">
    <path
       fill="none"
       stroke="#000000"
       stroke-width="2"
       stroke-linecap="round"
       stroke-linejoin="round"
       d="m 152.787,656.142 -0.545,1.39 0.124,2.017 -0.329,1.186 -0.935,-1.288"
       id="path1359" />
  </g>
  <g
     id="g1365"
     transform="translate(-115.526,-219.684)">
    <path
       fill="none"
       stroke="#000000"
       stroke-width="2"
       stroke-linecap="round"
       stroke-linejoin="round"
       d="m 148.287,630.786 1.042,0.166 0.627,0.807 0.303,4.52 0.58,0.652"
       id="path1363" />
  </g>
  <g
     id="g1369"
     transform="translate(-115.526,-219.684)">
    <path
       fill="none"
       stroke="#000000"
       stroke-width="2"
       stroke-linecap="round"
       stroke-linejoin="round"
       d="m 172.2,633.032 -2.535,-0.443 -3.528,0.088 -1.342,0.613 -2.014,1.535 -3.118,7.18 -1.633,5.11 -0.566,2.853 -0.043,2.259 0.206,0.848 0.571,0.527 2.424,0.972 3.746,-0.585 3.149,-3.495 5.878,-9.037 -0.229,0.821 0.251,1.619 0.755,1.146 0.909,4.594 0.226,4.211 1.815,8.063 -0.384,1.545 0.32,2.454 -0.453,3.469 0.157,1.25 -3.651,9.268 -1.289,1.389 -0.909,2.106 -3.716,5.575 -1.592,1.869 -2.006,1.342 -1.765,0.514 -1.739,-0.467 -1.025,-0.922 -1.562,-4.682 -0.196,-2.153 0.25,-2.512 1.963,-6.787 3.187,-6.167 4.235,-6.012 3.083,-3.074 7.406,-5.485 5.129,-2.026"
       id="path1367" />
  </g>
  <g
     id="g1373"
     transform="translate(-115.526,-219.684)">
    <path
       fill="none"
       stroke="#000000"
       stroke-width="2"
       stroke-linecap="round"
       stroke-linejoin="round"
       d="m 190.281,637.303 -0.542,1.438 -0.216,2.207 -0.553,15.645 -0.409,1.712 -0.226,4.908 0.315,-1.593 2.115,-5.517 2.191,-8.089 2.822,-8.791 2.02,-4.859 0.45,-0.058 0.584,0.43 0.251,0.979 -0.399,2.303 1.507,3.718 0.686,5.364 -0.112,11.964 0.414,1.738 -0.159,2.59 0.775,1.527 1.391,-3.093"
       id="path1371" />
  </g>
  <g
     id="g1377"
     transform="translate(-115.526,-219.684)">
    <path
       fill="none"
       stroke="#000000"
       stroke-width="2"
       stroke-linecap="round"
       stroke-linejoin="round"
       d="m 211.621,645.46 3.429,-4.304 -0.1,-2.107 -0.506,-0.682 -2.414,2.644 -4.863,11.046 -2.072,8.858 -0.203,1.708 0.58,0.868 -0.076,0.513 0.691,-0.023 1.196,-0.801 0.374,0.219 0.409,-0.678 1.488,-1.109 2.466,-3.018 1.327,-2.526 2.128,-2.894 3.059,-5.799 -0.664,1.616 0.5,1.482 -0.249,7.479 -0.831,3.229 -0.173,2.447 0.68,0.849 0.959,-0.035 1.623,-2.193 0.403,-1.455"
       id="path1375" />
  </g>
  <g
     id="g1381"
     transform="translate(-115.526,-219.684)">
    <path
       fill="none"
       stroke="#000000"
       stroke-width="2"
       stroke-linecap="round"
       stroke-linejoin="round"
       d="m 228.83,615.371 0.321,-0.276 0.532,0.918 0.197,3.6 -0.581,4.25 0.221,2.249 -1.158,7.863 -0.504,8.324 -0.865,3.266 0.247,1.731 -0.022,6.82 1.038,9 0.979,2.279 0.431,2.613 0.738,1.444"
       id="path1379" />
  </g>
  <g
     id="g1385"
     transform="translate(-115.526,-219.684)">
    <path
       fill="none"
       stroke="#000000"
       stroke-width="2"
       stroke-linecap="round"
       stroke-linejoin="round"
       d="m 274.381,617.839 0.085,0.356 -0.333,0.204 0.541,0.093 -0.028,-0.416 1.316,-0.11 0.768,0.729 1.068,0.404 2.691,-0.504 1.907,0.014 2.236,0.225 1.268,0.601 1.263,-0.277 1.454,0.15 0.608,-0.404 0.303,0.334 4.012,0.476 0.79,0.59 1.123,-0.334 3.928,-0.043 2.325,0.347 0.131,-0.306 1.623,0.05 1.702,-0.78 1.027,-0.006 2.374,-1.142 2.96,-0.461 3.856,0.512 3.933,-0.039 5.089,-0.507 4.36,-1.18 2.491,0.062 2.135,-0.394 1.062,0.438 0.579,-0.366 2.281,-0.003 2.766,0.533 1.41,-0.146 4.307,1.652 4.179,0.989 7.1,0.582 5.149,0.787 6.262,0.128 3.663,0.442 1.85,-0.344 7.036,1.428 6.358,0.513 7.055,-1.04 12.638,-3.01 5.298,-0.458 6.658,0.833 0.899,0.63 2.626,0.558 4.28,1.597 1.484,-0.088 0.579,0.543 2.36,0.742 2.138,0.174 1.415,-0.074 1.102,-0.868 0.777,-1.451 0.102,-2.277"
       id="path1383" />
  </g>
  <g
     id="g1389"
     transform="translate(-115.526,-219.684)">
    <path
       fill="none"
       stroke="#000000"
       stroke-width="2"
       stroke-linecap="round"
       stroke-linejoin="round"
       d="m 341.958,614.536 0.64,0.101 0.651,-0.311 -1.237,-0.243 -0.774,-0.897 -0.194,-0.883 0.285,-1.659 0.563,-0.445 0.939,-1.937 2.731,-2.988 2.563,0.613 1.202,0.773 1.048,1.159 0.515,1.118 0.581,3.53 -0.403,2.916 -0.802,2.209 -1.676,1.207 -3.317,0.849 -1.814,-0.085 -2.863,-1.109 -1.182,-1.212 -0.553,-1.432 0.334,-1.725 2.453,-2.369 3.827,-0.649 3.098,0.785 2.155,1.625 0.265,2.179 -0.87,3.076 -0.764,0.499 -0.227,0.542 -1.311,0.126 -0.949,-0.241 -0.43,-0.478 -0.618,0.12 -3.238,-0.994 -2.912,-1.902 -0.494,-1.028 -0.172,-1.264 0.213,-0.524 1.053,-1.164 2.26,-0.856 0.594,0.519 0.777,-0.393 0.808,0.439 0.789,0.875 0.604,2.197"
       id="path1387" />
  </g>
  <g
     id="g1393"
     transform="translate(-115.526,-219.684)">
    <path
       fill="none"
       stroke="#000000"
       stroke-width="2"
       stroke-linecap="round"
       stroke-linejoin="round"
       d="m 347.764,610.253 -0.454,0.955 0.32,-0.67 0.099,0.332 0.122,-0.275 -0.325,-0.182 0.202,-0.314 -0.161,0.167 0.062,-0.84 -0.262,-0.143 0.776,-4.744 -0.89,-7.424 -0.685,-19.627 -0.325,-1.425 0.611,-8.134 -0.26,-3.7 -0.559,-2.578 0.237,-6.164 1.27,-6.101 -0.539,-6.561 0.546,-4.186 0.171,-5.168 -0.713,-3.434 0.126,-0.783 -0.9,-1.276 0.445,-5.359 -0.207,-0.943 -0.437,0.118 0.393,0.077 0.141,-0.277 0.023,0.387 -0.059,-0.224 -0.126,0.355 -0.009,-0.712 0.14,0.863 2.092,0.841 0.675,-0.148 2.212,1.329 3.614,0.491 3.455,-0.381 4.165,0.371 9.607,2.853 2.972,0.504 0.242,-0.188 0.539,0.351 0.238,-0.217 -0.143,0.762 -0.257,-0.348 0.529,0.297 0.351,1.032"
       id="path1391" />
  </g>
  <g
     id="g1397"
     transform="translate(-115.526,-219.684)">
    <path
       fill="none"
       stroke="#000000"
       stroke-width="2"
       stroke-linecap="round"
       stroke-linejoin="round"
       d="m 387.609,534.819 -0.361,1.006 0.376,-0.305 -0.065,-0.381 -0.202,0.406 0.157,-0.251 0.082,0.352 0.239,-0.072 -0.35,0.11 0.151,-0.333 0.176,0.373 -0.196,-0.074 0.988,-6.436 0.055,-4.036 -0.543,-5.172 -0.064,1.314 -0.261,-0.722"
       id="path1395" />
  </g>
  <g
     id="g1401"
     transform="translate(-115.526,-219.684)">
    <path
       fill="none"
       stroke="#000000"
       stroke-width="2"
       stroke-linecap="round"
       stroke-linejoin="round"
       d="m 381.308,528.467 1.313,0.203 0.236,0.497 2.973,-0.988 0.772,-0.625 4.639,-0.44 0.655,-0.386 2.638,-0.493 1.158,-0.789 -0.254,1.988"
       id="path1399" />
  </g>
  <g
     id="g1405"
     transform="translate(-115.526,-219.684)">
    <path
       fill="none"
       stroke="#000000"
       stroke-width="2"
       stroke-linecap="round"
       stroke-linejoin="round"
       d="m 382.741,506.14 -0.449,-2.262 -0.005,0.707 0.571,-0.164 0.142,0.267 0.161,-0.538 0.754,0.156 0.242,-0.491 1.562,0.626 1.599,-0.049 0.796,0.385 2.127,-0.307 3.945,0.744 0.887,0.929 0.672,0.121 0.136,0.535 0.243,-0.176 0.17,0.328 -0.028,-0.388 0.387,1.104 -0.076,-0.825 -0.23,0.45 -0.515,0.009"
       id="path1403" />
  </g>
  <g
     id="g1409"
     transform="translate(-115.526,-219.684)">
    <path
       fill="none"
       stroke="#000000"
       stroke-width="2"
       stroke-linecap="round"
       stroke-linejoin="round"
       d="m 335.114,414.371 -0.342,0.906 0.347,0.136 0.041,-0.28 0.208,0.206 3.261,-0.804 2.927,-1.235 9.389,-0.688 2.124,0.262 1.361,-0.435 0.927,0.125 1.402,-0.826 2.117,0.789 3.535,0.56 0.847,-0.3 0.727,0.183 0.129,-0.335 1.298,0.843 0.622,-0.215 0.543,0.322 0.978,-0.981 0.401,0.196 0.096,-0.327 0.602,0.44 1.195,0.072 0.424,0.453 0.385,-0.197 -0.051,-0.332 0.87,0.419 0.54,-0.239 0.71,0.237 1.072,-0.629 0.953,0.13 0.272,-0.307 2.3,0.733 1.196,-0.152 0.617,-0.628 0.441,0.152 0.12,0.4 0.6,-0.542 2.644,0.582 0.504,-0.274 0.237,0.256 0.553,-1.165 1.352,0.851 1.274,-0.34 1.115,0.419 0.121,-0.511 0.845,0.25 -0.322,-0.352 0.307,0.849 0.043,-0.633 0.334,-0.242 0.671,0.958 0.143,-0.766 0.069,0.558 0.253,0.265 0.256,-0.383 -0.027,0.516 0.285,-0.07 0.119,0.363 -0.11,-0.891 -0.212,-0.035 0.169,0.607 -0.349,-0.815"
       id="path1407" />
  </g>
  <g
     id="g1413"
     transform="translate(-115.526,-219.684)">
    <path
       fill="none"
       stroke="#000000"
       stroke-width="2"
       stroke-linecap="round"
       stroke-linejoin="round"
       d="m 390.516,421.059 -1.271,0.14 0.741,0.867 -0.2,-0.734 -0.142,0.315 0.395,-0.084 -0.234,-0.558 0.276,-1.517 1.456,-3.622 1.358,-6.082 1.469,-4.664 2.011,-3.739 0.847,-0.809 1.767,4.478 0.851,4.346 1.733,13.41 0.294,5.649 0.822,3.484 0.668,1.189 0.024,-1.188 0.603,-0.905 1.829,-5.977 2.156,-12.859 1.786,-7.53 0.629,-1.265 0.271,0.861 -0.182,0.526 0.501,0.406 1.154,2.441 0.927,5.769 0.48,8.396 -0.058,8.851 2.477,5.459 0.148,0.902 0.519,0.434 0.315,-1.851 1.105,-2.498 0.785,-4.465 1.406,-11.076 0.356,-8.005 0.708,-4.696 1.471,-6.958 0.555,-0.687 0.916,2.134 0.051,14.448 0.92,4.773 0.853,0.823 0.881,-0.193 3.992,3.378 0.621,0.583 0.548,1.2 0.676,0.477 0.388,0.669 -0.343,-0.174 0.157,-0.272 0.202,0.49 -0.049,-0.489 -0.02,0.606 -0.105,-0.607 0.22,0.302 0.244,-0.305 0.191,0.935 0.804,-1.067 1.221,-0.686 8.718,-0.144 2.036,0.465 4.212,-1.035 0.65,-0.644 1.338,-0.592 -0.355,0.334 0.212,0.323 0.291,-0.341 -0.1,-0.488 0.301,0.9 -0.265,0.794 0.513,-1.495 -0.079,0.946 0.338,-0.157 0.554,0.799 0.435,-0.074 0.171,0.365 0.771,-0.801 0.849,0.657 1.173,0.123 0.23,-0.234 0.281,0.761 0.018,-0.661 0.52,-0.18 0.092,-0.584 1.047,1.069 1.608,0.39 0.26,-0.393 0.501,-0.057 0.159,-0.654 -0.002,0.601 0.41,0.005 0.205,0.361 1.256,-0.379 2.237,0.542 1.474,-0.379 0.348,0.375 0.966,-0.758 0.136,-0.65 0.71,1.864 0.398,-0.39 1.463,0.042 0.083,-0.269 0.294,0.304 0.4,-0.106 0.081,0.399 0.233,-0.381 0.661,-0.153 0.3,-0.748 1.18,0.354 1.136,1.062 1.528,0.1 0.049,0.358 0.802,-1.146 0.236,0.443 0.516,-0.193"
       id="path1411" />
  </g>
  <g
     id="g1417"
     transform="translate(-115.526,-219.684)">
    <path
       fill="none"
       stroke="#000000"
       stroke-width="2"
       stroke-linecap="round"
       stroke-linejoin="round"
       d="m 480.552,429.72 -0.333,-0.346 0.505,0.342 0.027,-0.449 -0.183,0.757 0.176,0.369 0.211,-0.773 0.091,0.689 -0.079,3.866 1.248,9.628 1.248,4.787 0.754,1.22 -0.122,0.617 0.356,0.535 -0.521,0.792 0.28,0.063 0.011,-0.282 -0.24,-0.123 0.17,0.524 -0.189,-0.126 0.269,-0.301 0.067,0.567 -0.075,-0.491 -0.032,0.539 -0.614,0.483 -2.724,0.299 -4.608,1.759 -3.824,2.106 -0.689,0.894 1.305,2.395 2.2,0.849 4.608,0.909 8.786,3.062 1.939,0.959 0.983,1.049 0.078,1.237 -0.618,0.91 -0.738,0.698 -1.84,0.865 -2.343,0.606 -0.79,0.614 -1.873,0.165 -0.989,-0.258 -2.48,0.664 -1.134,-0.167 -4.23,1.443 0.941,-0.148 -0.292,-0.227 0.023,0.354 7.434,3.086 10.42,2.852 0.657,0.817 0.38,-0.024 0.473,0.789 0.288,1.07 -0.185,-0.325 -1.956,2.289 -1.343,0.926 -5.782,2.423 -0.865,0.654 -4.883,0.504 -0.482,-0.304 -0.495,0.391 0.905,-0.067 2.581,-1.65 1.38,0.642 1.481,0.178 1.677,0.99 3.51,4.199 2.001,1.48 0.263,-0.122 0.73,0.822 0.166,1.016 -1.149,1.808 0.327,0.02 -0.244,-0.533 0.002,0.717 0.382,0.148 0.643,1.124 0.76,5.116 -0.004,2.608 -0.221,0.791 -0.206,-0.395 -0.167,1.292 0.261,0.939 -0.242,-0.121 0.154,2.811 -0.26,0.016 0.048,-0.333 0.232,0.182 -0.123,-0.35 -0.024,0.665 -0.151,-0.749 -0.304,0.146 -1.178,-1.042 -0.426,0.09 -1.298,-0.864 -1.988,-0.256 -1.635,0.321 -2.703,-0.505 -2.02,-0.873 -4.038,-0.598 -4.953,0.123 -4.507,0.687 -3.721,-0.433 -1.707,-0.579 -0.632,-0.551 -4.977,-1.438 -3.247,-2.109 -0.503,-0.051 -2.422,0.879 -2.264,1.472 -1.031,1.826 -1.067,0.525 -0.178,0.653 -1.078,-0.278 0.156,-1.087 0.442,0.019 0.067,0.27"
       id="path1415" />
  </g>
  <g
     id="g1421"
     transform="translate(-115.526,-219.684)">
    <path
       fill="none"
       stroke="#000000"
       stroke-width="2"
       stroke-linecap="round"
       stroke-linejoin="round"
       d="m 478.514,426.863 -0.625,-0.207 0.586,0.122 -0.075,-0.201 -0.145,0.214 1.112,0.428 5.639,-0.615 9.32,-0.545 1.005,0.166 0.379,-0.271 0.537,0.477 1.385,0.419 3.011,0.07 1.057,0.329 9.368,0.806 2.763,0.703 2.209,-0.124 -0.233,0.422 3.348,0.707 3.61,-0.067 2.121,0.489 3.217,-0.45 3.676,0.468 4.525,-0.316 2.357,0.213 0.949,0.464 0.331,-0.196 1.163,0.814 1.715,-0.139 0.891,-0.425 1.589,0.767 0.257,-0.155 -0.214,-0.242 -0.065,0.392 0.317,-0.278 0.338,0.596 0.592,0.041 0.125,-0.257 7.857,0.504 -0.902,-0.088 0.336,-0.242 1.757,0.525 0.2,0.59 0.295,-0.588 -0.045,0.42 0.186,-0.413 -0.019,0.354 3.328,-0.973 0.587,0.229 2.057,-0.333 2.378,0.697 2.001,0.165 -0.643,-0.025 0.575,1.322"
       id="path1419" />
  </g>
  <g
     id="g1425"
     transform="translate(-115.526,-219.684)">
    <path
       fill="none"
       stroke="#000000"
       stroke-width="2"
       stroke-linecap="round"
       stroke-linejoin="round"
       d="m 433.583,622.966 -0.051,-0.53 0.348,-0.17 1.546,1.033 1.612,-1.148 1.634,-0.203 0.488,-0.411 0.139,0.298 0.924,0.153 0.606,0.867 0.96,0.088 0.515,0.396 1.314,-0.54 3.198,-0.595 1.862,0.132 0.456,-0.379 1.831,0.821 2.022,-0.22 1.495,0.343 0.886,-0.146 0.738,0.67 0.951,-0.342 0.416,-0.548 0.805,0.239 0.426,-0.382 0.9,0.312 0.369,-0.322 1.248,0.549 3.376,-0.231 0.759,0.328 0.169,0.396 0.857,-0.267 0.429,0.373 1.594,-0.714 0.828,0.18 0.327,-0.277 1.834,0.445 2.994,-0.83 2.293,0.519 2.44,-0.352 3.072,0.349 1.767,-0.51 0.34,-0.602 0.612,0.397 0.419,-0.416 0.928,0.817 0.889,-0.195 0.263,0.282 3.554,-0.522 1.941,-0.077 0.078,0.214 0.186,-0.314 0.888,0.042 0.225,-0.547 2.169,0.879 1.257,-0.328 3.394,-0.046 0.521,-0.306 1.254,0.273 0.132,0.344 0.354,-0.35 0.961,0.188 0.783,-0.288 0.204,-0.557 0.493,0.385 0.446,-0.249 1.243,0.463 1.108,-0.129 3.105,0.789 2.845,-0.095 0.268,-0.34 1.784,1.124 1.054,-1.163 0.891,0.589 0.904,0.01 0.444,0.332 1.203,-0.514 0.99,0.144 0.43,-0.449 1.217,0.536 1.096,0.004 0.64,0.453 2.096,-0.405 0.402,0.275 1.907,-0.082 0.188,0.358 0.529,-0.285 1.394,0.44 0.529,-0.306 1.328,0.29 0.107,-0.196 0.566,0.61 -0.375,-0.445 0.033,0.552 -0.318,0.276"
       id="path1423" />
  </g>
  <g
     id="g1429"
     transform="translate(-115.526,-219.684)">
    <path
       fill="none"
       stroke="#000000"
       stroke-width="2"
       stroke-linecap="round"
       stroke-linejoin="round"
       d="m 536.99,621.411 0.431,0.07 -0.034,0.236 -0.033,-0.341 0.151,0.138 -0.09,0.368 1.413,-3.129 0.93,-5.196 0.193,-3.101 0.982,-3.451 2.714,-25.343 0.2,-7.219 1.596,-11.277 -0.457,-11.368 0.065,-5.823 0.898,-5.264 -0.443,-4.809 -0.367,-0.956 0.42,-11.316 -0.322,-1.133 0.144,-0.664 -0.466,-0.013 -0.315,-1.717 0.122,-8.551 -0.572,-4.539 0.221,-4.7 -0.442,-2.456 0.84,-7.75 -0.422,-3.596 0.476,-2.883 -0.41,-3.002 0.515,-1.009 -0.306,0.015 0.103,0.326 0.19,-0.698 0.061,0.485 -0.289,0.154 0.45,-3.108 0.008,1.497 0.034,-1.434 0.321,0.602 -0.234,0.756 -0.088,-0.52 0.285,-0.26 0.678,0.232 1.581,-0.385 0.022,0.295 0.606,-0.48 0.194,0.149 0.359,-0.356 0.085,-0.928 0.498,1.352 1.187,-0.217 0.872,0.328 2.279,-0.401 0.421,-0.345 1.277,0.526 2.091,-0.284 0.46,-0.661 0.579,0.536 0.341,-0.202 1.03,0.93 3.558,0.257 1.123,-0.132 1.531,-0.699 0.494,-0.051 0.198,0.518 0.56,-0.801 0.162,0.45 0.614,-0.961 0.84,-0.229 1.547,0.245 1.376,-0.316 -0.033,0.214 0.376,-0.734 0.395,0.526 0.987,-0.409 0.219,0.297 -0.212,0.207 -0.06,-0.739 0.135,0.596 0.156,-0.284 0.242,0.19 0.248,0.639 0.597,-0.452 -0.334,1.125 -0.021,-1.376 -0.282,0.891"
       id="path1427" />
  </g>
  <g
     id="g1433"
     transform="translate(-115.526,-219.684)">
    <path
       fill="none"
       stroke="#000000"
       stroke-width="2"
       stroke-linecap="round"
       stroke-linejoin="round"
       d="m 577.036,497.129 0.065,0.758 0.548,-1.044 -0.209,0.42 -0.551,-1.198 -0.68,-2.97 -0.392,-18.294 -1.103,-6.588 -0.147,-5.836 -1.5,-6.008 -0.505,-3.657 0.038,-4.151 -0.56,-5.191 0.357,-9.377 -0.729,-4.945 0.131,-7.945 -0.591,-5.5 0.263,-7.268 0.6,-2.561 -0.142,1.299 0.103,-0.481 0.887,1.757 0.353,-0.236 0.109,0.213 0.561,-0.665 0.762,0.427 0.673,0.081 0.177,-0.252 0.32,0.576 2.606,1.806 0.614,1.23 0.351,-0.117 1.126,0.679 0.827,0.085 1.568,1.758 0.617,-0.053 1.302,1.313 0.471,0.93 1.703,1.529 4.101,5.624 2.455,1.525 2.625,0.934 2.093,0.265 3.238,1.277 3.261,1.738 1.187,1.204 5.181,2.761 7.188,6.029 0.518,-0.021 3.662,2.841 1.541,0.023 1.619,0.701 0.628,-0.234 1.126,0.608 0.875,0.618 0.835,1.503 2.081,2.453 1.742,1.215 1.018,0.282 0.373,-0.302 0.282,0.498 0.615,-0.113 0.907,0.439 0.325,0.577 0.979,-0.096 0.72,0.415 0.321,-0.265 1.311,2.192 1.014,1.036 2.135,0.865 0.749,-0.184 0.323,0.269 0.916,-0.372 0.854,0.182 0.625,0.695 0.2,0.85 0.797,0.716 3.534,0.503 0.903,0.72 0.744,-0.017 0.739,0.952 0.091,-0.244 -0.171,0.192 -0.141,-0.515 -0.201,0.676 -1.025,-0.1 -1.155,0.872 -0.605,1.039 -0.435,-0.019 -3.149,1.881 -4.667,1.334 -7.636,3.797 -0.649,-0.031 -3.414,1.224 -4.406,3.298 -6.485,7.037 -4.016,3.348 -0.376,0.612 -4.909,2.294 -0.728,-0.019 -2.548,2.16 -3.306,1.55 -2.937,1.961 -0.724,0.313 -0.563,-0.187 -0.63,0.612 -3.563,1.35 -0.965,0.646 -2.348,0.555 -1.89,1.158 -3.785,4.305 -1.517,1.098 -0.632,-1.386 -1.034,0.335 -0.67,0.669 -0.929,0.144 -0.014,-0.477 -0.319,0.552 -0.52,0.033 -0.019,-0.221 -0.223,0.351 0.29,-0.033 -0.237,-0.867 0.153,0.134 0.354,-0.775"
       id="path1431" />
  </g>
  <g
     id="g1437"
     transform="translate(-115.526,-219.684)">
    <path
       fill="none"
       stroke="#000000"
       stroke-width="2"
       stroke-linecap="round"
       stroke-linejoin="round"
       d="m 595.039,486.943 0.285,-0.452 0.08,0.486 -0.023,-0.667 0.141,0.393 -0.253,0.605 -0.154,-0.764 0.217,-0.03 0.399,-2.988 0.768,-8.58 -0.041,-2.437 -0.624,1.439"
       id="path1435" />
  </g>
  <g
     id="g1441"
     transform="translate(-115.526,-219.684)">
    <path
       fill="none"
       stroke="#000000"
       stroke-width="2"
       stroke-linecap="round"
       stroke-linejoin="round"
       d="m 587.705,482.975 0.812,-1.887 -0.023,0.838 1.657,0.537 2.59,0.048 0.611,-0.472 1.604,0.358 2.429,-0.175 0.684,0.424 1.731,-0.587 0.577,0.092 2.358,-1.111 1.147,0.264 0.426,0.898 0.517,-1.043 0.321,0.503 -0.207,0.154 -0.414,-0.423"
       id="path1439" />
  </g>
  <g
     id="g1445"
     transform="translate(-115.526,-219.684)">
    <path
       fill="none"
       stroke="#000000"
       stroke-width="2"
       stroke-linecap="round"
       stroke-linejoin="round"
       d="m 581.766,443.291 -0.36,-0.108 0.012,0.243 0.141,-0.944 0.198,0.155 0.404,-0.905 -0.03,0.843 0.32,-0.31 3.044,-0.207 0.667,0.315 1.558,-0.105 2.632,1.049 1.945,-0.148 1.436,0.31 2.786,-0.438 3.78,0.552 -0.334,0.263 -0.245,-0.303 -0.377,0.421 -0.41,1.175"
       id="path1443" />
  </g>
  <g
     id="g1449"
     transform="translate(-115.526,-219.684)">
    <path
       fill="none"
       stroke="#000000"
       stroke-width="2"
       stroke-linecap="round"
       stroke-linejoin="round"
       d="m 491.339,515.789 0.973,0.123 0.167,0.363 -0.294,-0.213 0.552,-0.546 1.534,-0.445 0.315,0.18 1.471,-0.947 1.114,0.775 0.93,0.056 1.427,-0.362 0.418,0.166 0.97,-0.723 1.118,0.004 0.412,-0.395 2.124,0.535 0.491,0.622 0.447,-0.212 0.928,0.26 0.069,-0.224 3.783,0.495 0.87,-0.595 1.234,0.817 0.195,0.459 0.932,0.389 2.913,0.682 1.075,-0.089 1.313,0.724 1.678,-0.434 1.61,0.452 0.398,-0.206 2.626,0.7 0.477,0.478 2.63,-0.493 0.312,-0.41 1.681,0.681 2.742,0.371 0.339,0.409 2.439,0.036 1.143,0.743 0.756,-0.32 0.183,0.199 2.531,-1.211 2.066,0.186 2.185,0.89 2.62,0.17 0.548,-0.377 1.521,0.512 1.729,-0.188 0.666,0.388 4.423,-0.554 2.598,0.49 4.104,0.077 6.471,0.751 3.687,-0.227 2.534,0.358 1.105,-0.321 12.504,1.391 6.306,-0.107 2.756,0.401 3.578,-0.136 1.187,0.349 7.472,-0.875 3.039,0.391 3.066,0.898 3.435,0.352 7.416,-0.264 1.064,-0.536 1.454,0.191 1.746,-0.271 3.037,0.638 2.502,-0.1 1.044,0.366 3.091,-0.219 7.473,0.745 4.651,0.122 2.024,0.492 0.356,-0.252 1.957,0.93 4.996,0.625 6.239,-0.202 1.037,-0.466 1.21,0.431 0.547,-0.353 1.46,0.395 3.83,-0.284 1.401,0.438 0.166,-0.388 0.882,1.084 0.136,-1.019 -0.244,0.23 -0.205,-0.204 0.438,-0.877"
       id="path1447" />
  </g>
  <g
     id="g1453"
     transform="translate(-115.526,-219.684)">
    <path
       fill="none"
       stroke="#000000"
       stroke-width="2"
       stroke-linecap="round"
       stroke-linejoin="round"
       d="m 684.507,532.396 -1.763,0.373 -0.69,0.531 -1.169,-0.734 -0.992,-2.003 -0.233,-1.839 0.234,-1.553 2.367,-5.433 2.945,-4.573 3.528,-2.611 2.433,-0.413 2.837,1.05 2.604,2.052 2.921,2.903 0.79,1.1 0.833,2.685 0.115,3.013 -0.613,3.702 -1.019,2.401 -1.524,1.921 -1.743,0.887 -3.405,3.382 -1.267,0.436 -2.72,1.879 -2.983,0.815 -2.589,-0.353 -1.261,-0.472 -2.669,-1.879 -2.095,-3.032 0.152,-3.412 1.026,-2.628 0.778,-1.12"
       id="path1451" />
  </g>
  <g
     id="g1457"
     transform="translate(-115.526,-219.684)">
    <path
       fill="none"
       stroke="#000000"
       stroke-width="2"
       stroke-linecap="round"
       stroke-linejoin="round"
       d="m 720.911,511.86 0.672,-0.14 0.55,0.994 -0.066,2.96 -3.563,22.826 -0.899,11.775 0.256,-1.927 7.688,-14.989 2.346,-3.202 0.712,-0.558 0.579,-0.044 0.208,0.363 0.078,-0.367 1.314,8.61 -0.611,6.382 0.457,0.893 0.11,-0.201 0.499,2.281 0.672,0.98 2.365,10.435 1.109,-0.391 2.692,-4.919 1.295,-1.741"
       id="path1455" />
  </g>
  <g
     id="g1461"
     transform="translate(-115.526,-219.684)">
    <path
       fill="none"
       stroke="#000000"
       stroke-width="2"
       stroke-linecap="round"
       stroke-linejoin="round"
       d="m 746.997,541.04 -1.708,5.069 -0.982,4.165 -0.033,2.9 0.828,1.224 1.702,0.53 0.711,0.555 2.04,-0.353 0.91,0.236 5.144,-2.136 1.535,-1.096 1.076,-1.617 0.608,-1.5 0.267,-1.961"
       id="path1459" />
  </g>
  <g
     id="g1465"
     transform="translate(-115.526,-219.684)">
    <path
       fill="none"
       stroke="#000000"
       stroke-width="2"
       stroke-linecap="round"
       stroke-linejoin="round"
       d="m 747.264,521.674 -0.363,1.408 0.253,2.238 1.877,3.471 1.098,0.904 1.081,-0.06 1.18,-1.395 0.341,-0.895"
       id="path1463" />
  </g>
  <g
     id="g1469"
     transform="translate(-115.526,-219.684)">
    <path
       fill="none"
       stroke="#000000"
       stroke-width="2"
       stroke-linecap="round"
       stroke-linejoin="round"
       d="m 653.658,463.201 0.466,0.082 0.043,0.697 0.714,-0.787 1.06,-0.039 1.844,-0.736 3.925,-0.235 0.809,-0.45 2.465,0.315 1.214,-0.409 3.912,-0.252 5.009,-1.865 3.872,-2.275 3.758,-1.434 4.438,-0.637 1.488,0.658 0.284,0.658 0.167,-0.782 -0.071,0.817 -0.43,-0.733 -0.444,-0.065"
       id="path1467" />
  </g>
  <g
     id="g1473"
     transform="translate(-115.526,-219.684)">
    <path
       fill="none"
       stroke="#000000"
       stroke-width="2"
       stroke-linecap="round"
       stroke-linejoin="round"
       d="m 709.257,466.951 -2.4,1.205 -5.509,1.241 -2.343,0.066 -1.951,-0.712 -2.345,-1.886 -1.617,-3.082 -0.742,-3.09 -0.126,-4.716 0.769,-2.867 1.344,-2.618 3.154,-3.691 1.498,-0.884 1.381,-1.342 5.104,-2.959 2.726,-0.593 2.618,0.835 1.421,1.432 1.193,1.857 1.388,3.771 0.235,2.515 -0.796,4.289 -1.299,3.37 -2.074,3.766 -4.012,4.995 -2.083,1.997 -3.147,2.068 -4.657,1.931 -3.645,0.119 -2.093,-0.223 -0.383,-0.293 -1.301,-2.249 -0.333,-3.342 0.933,-4.656 2.784,-5.82"
       id="path1471" />
  </g>
  <g
     id="g1477"
     transform="translate(-115.526,-219.684)">
    <path
       fill="none"
       stroke="#000000"
       stroke-width="2"
       stroke-linecap="round"
       stroke-linejoin="round"
       d="m 724.288,478.736 2.794,0.628 3.94,-1.866 2.769,-1.99 4.274,-4.185 4.037,-5.29 1.968,-3.338 4.826,-11.089 2.836,-7.87 3.196,-12.363 0.445,-2.707 -0.277,-1.966 -0.647,-1.429 -1.889,-1.64 -1.376,0.852 -1.083,1.369 -2.864,5.854 -3.334,10.406 -2.227,12.271 -0.771,6.24 -0.374,7.804 0.173,1.368 0.896,1.603 1.087,0.289 1.422,-0.087 0.814,-0.527 0.861,0.111 1.989,-0.869 4.339,-2.958 7.086,-6.91 3.62,-4.487 1.068,-0.646 -0.104,1.058 -0.265,-0.023 0.02,0.589 -3.353,9.005 -1.175,4.922 -0.253,2.669 0.289,2.163 0.722,1.125 1.424,0.716 0.584,-0.288 1.995,0.672 2.87,-0.006 3.12,-1.756 2.705,-2.278 3.314,-5.266 2.15,-5.521 0.241,-3.052 -0.516,-3.957 -0.915,-2.074 -1.452,-0.938 -1.934,-0.732 -0.4,0.182 -2.862,-0.371 -2.323,0.459 -1.065,0.764 -0.995,0.227 -3.606,3.664 -1.474,2.31 -0.869,2.381 -0.107,2.636 2.102,2.392 3.411,1.393 3.132,-0.019 5.291,-1.916 2.357,-1.461 4.326,-3.769"
       id="path1475" />
  </g>
  <metadata
     id="metadata1485">
    <rdf:RDF>
      <cc:Work
         rdf:about="">
        <dc:title>Quick sheets</dc:title>
      </cc:Work>
    </rdf:RDF>
  </metadata>
</svg>
