<?xml version="1.0" encoding="UTF-8" standalone="no"?>
<svg
   width="859.99939"
   height="406.72754"
   viewBox="0 0 859.99939 406.72754"
   version="1.2"
   id="svg6612"
   sodipodi:docname="no_reference_adc.svg"
   inkscape:version="1.2 (dc2aedaf03, 2022-05-15)"
   xmlns:inkscape="http://www.inkscape.org/namespaces/inkscape"
   xmlns:sodipodi="http://sodipodi.sourceforge.net/DTD/sodipodi-0.dtd"
   xmlns="http://www.w3.org/2000/svg"
   xmlns:svg="http://www.w3.org/2000/svg"
   xmlns:rdf="http://www.w3.org/1999/02/22-rdf-syntax-ns#"
   xmlns:cc="http://creativecommons.org/ns#"
   xmlns:dc="http://purl.org/dc/elements/1.1/">
  <defs
     id="defs6616" />
  <sodipodi:namedview
     id="namedview6614"
     pagecolor="#ffffff"
     bordercolor="#666666"
     borderopacity="1.0"
     inkscape:showpageshadow="2"
     inkscape:pageopacity="0.0"
     inkscape:pagecheckerboard="0"
     inkscape:deskcolor="#d1d1d1"
     showgrid="false"
     inkscape:zoom="0.40491453"
     inkscape:cx="334.63852"
     inkscape:cy="429.72032"
     inkscape:window-width="1920"
     inkscape:window-height="1027"
     inkscape:window-x="-8"
     inkscape:window-y="22"
     inkscape:window-maximized="1"
     inkscape:current-layer="svg6612" />
  <title
     id="title6360">Quick sheets</title>
  <g
     id="g6366"
     transform="translate(-368.45059,-505.97845)">
    <path
       fill="#000000"
       d="m 432.723,706.756 c 0,0 0,0 0,0 3.261,-0.58 6.494,-1.354 9.784,-1.742 1.652,-0.195 3.338,-0.198 4.989,10e-4 0.711,0.086 1.271,0.723 1.978,0.837 1.323,0.214 2.701,0.375 4.02,0.134 2.074,-0.38 3.931,-1.63 6.012,-1.972 1.971,-0.323 4.004,-0.199 5.99,10e-4 0.725,0.073 1.316,0.942 2.031,0.806 2.736,-0.517 5.126,-2.706 7.91,-2.685 4.13,0.031 7.936,3.008 12.063,2.835 4.177,-0.174 7.906,-2.739 11.94,-3.838 0.67,-0.183 1.405,-0.125 2.086,0.015 0.698,0.144 1.261,0.812 1.974,0.821 0.714,0.01 1.286,-0.768 2,-0.768 0.714,0 1.289,0.705 2,0.768 0.477,0.042 0.984,-0.171 1.357,-0.472 0.163,-0.131 0.153,-0.478 0.007,-0.628 -0.673,-0.688 -1.415,-1.379 -2.31,-1.73 -0.646,-0.254 -1.402,-0.138 -2.08,0.009 -0.382,0.082 -0.583,0.651 -0.974,0.651 -0.391,0 -0.591,-0.576 -0.974,-0.652 -0.989,-0.194 -2.042,-0.376 -3.02,-0.133 -4.059,1.008 -7.765,3.655 -11.943,3.85 -4.139,0.193 -7.983,-2.753 -12.127,-2.729 -6.667,0.04 -13.213,1.814 -19.789,2.918 -1.081,0.181 -2.066,0.792 -3.153,0.933 -0.999,0.129 -2.031,0.058 -3.02,-0.134 -0.703,-0.136 -1.272,-0.716 -1.978,-0.837 -0.984,-0.168 -1.997,-0.034 -2.996,-0.015 -1.022,0.019 -2.051,-0.017 -3.063,0.129 -3.307,0.477 -6.531,1.754 -9.873,1.737 -3.41,-0.017 -6.654,-1.862 -10.065,-1.837 -2.105,0.016 -3.934,1.58 -6.005,1.957 -1.319,0.24 -2.698,0.089 -4.02,-0.134 -0.388,-0.065 -0.569,-0.597 -0.948,-0.704 -0.65,-0.183 -1.35,-0.199 -2.022,-0.132 -0.518,0.052 -1.043,0.207 -1.485,0.481 -0.368,0.229 -0.762,0.553 -0.861,0.975 -0.106,0.454 -0.146,1.286 0.313,1.363 1.031,0.172 1.985,-0.83 3.029,-0.804 1.05,0.026 1.96,0.83 3.004,0.954 1.342,0.159 2.733,0.168 4.055,-0.119 1.717,-0.374 3.183,-1.838 4.94,-1.837 3.042,10e-4 5.932,1.378 8.939,1.841 M 399.822,507.545 c 0,0 0,0 0,0 -0.097,-0.462 0.02,-1.032 -0.291,-1.388 -0.228,-0.261 -0.688,-0.172 -1.032,-0.126 -0.512,0.07 -1.044,0.187 -1.479,0.466 -0.365,0.234 -0.955,0.596 -0.821,1.008 0.144,0.44 0.842,0.473 1.305,0.478"
       id="path6364" />
  </g>
  <g
     id="g6370"
     transform="translate(-368.45059,-505.97845)">
    <path
       fill="none"
       stroke="#000000"
       stroke-width="2"
       stroke-linecap="round"
       stroke-linejoin="round"
       d="m 505.819,702.123 -0.408,-0.353 0.721,0.018 1.469,-0.656 0.594,0.152 0.449,-0.827 1.43,0.396 8.441,-2.331 1.255,-0.798 3.703,-0.77 1.195,0.063 3.26,-1.121 1.296,0.241 4.507,-0.266 0.468,0.441 1.062,-0.06 0.486,0.574 2.838,-0.155 1.479,0.569 0.974,-0.145 1.795,1.069 9.189,-1.017 3.285,-0.959 1.022,0.331 0.408,0.907 0.198,-0.363 1.021,0.484 1.159,-0.105 0.45,-0.585 0.212,0.374 1.968,0.537 0.777,0.528 2.537,-0.659 2.873,0.544 0.201,-0.381 1.433,1.416 0.301,1.312 0.298,-1.194 -0.144,0.709 -0.539,0.242"
       id="path6368" />
  </g>
  <g
     id="g6374"
     transform="translate(-368.45059,-505.97845)">
    <path
       fill="#000000"
       d="m 571.47,742.962 c 0,0 0,0 0,0 7.236,-3.223 14.608,-6.157 21.708,-9.67 4.82,-2.386 9.395,-5.24 14.008,-8.005 3.812,-2.286 7.259,-5.206 11.259,-7.143 0.645,-0.313 1.323,0.584 2.029,0.708 0.683,0.119 1.434,0.261 2.08,0.009 0.904,-0.351 1.798,-0.925 2.342,-1.728 0.31,-0.459 0.184,-1.158 -0.047,-1.661 -0.26,-0.567 -0.726,-1.143 -1.323,-1.323 -0.974,-0.295 -2.108,-0.379 -3.052,0 -0.97,0.388 -1.401,1.591 -2.29,2.14 -7.967,4.915 -16.032,9.678 -24.219,14.217 -4.463,2.474 -9.076,4.676 -13.711,6.812 -2.766,1.275 -5.764,2.027 -8.475,3.415 -0.713,0.366 -1.524,0.971 -1.635,1.765 m 0.684,-2.952 c 0,0 0,0 0,0 0.008,-1.024 0.187,-2.061 0.024,-3.072 -0.114,-0.707 -0.751,-1.267 -0.837,-1.977 -0.198,-1.652 -0.135,-3.332 -10e-4,-4.99 0.795,-9.891 1.575,-19.789 2.786,-29.638 0.337,-2.735 0.954,-5.452 1.851,-8.057 1.761,-5.115 3.923,-10.085 6.103,-15.036 0.132,-0.301 0.46,-0.675 0.782,-0.604 1.308,0.285 2.51,0.952 3.692,1.581 1.045,0.557 2.053,1.203 2.962,1.962 1.12,0.935 2.166,1.97 3.095,3.095 0.59,0.713 0.828,1.677 1.43,2.38 1.41,1.645 3.142,2.991 4.57,4.62 1.006,1.148 1.634,2.609 2.713,3.688 0.916,0.916 2.214,1.367 3.192,2.217 1.635,1.421 2.975,3.16 4.62,4.57 0.703,0.602 1.692,0.811 2.38,1.43 2.559,2.305 4.957,4.787 7.31,7.3 0.287,0.306 0.276,0.824 0.574,1.119 0.896,0.886 1.922,1.634 2.949,2.365 0.202,0.143 0.462,0.281 0.705,0.234 2.014,-0.387 4.472,-0.109 5.964,-1.517 0.725,-0.685 -1.238,-1.7 -2.166,-2.067 -0.946,-0.375 -2.05,-0.175 -3.052,-10e-4 -0.386,0.067 -0.559,0.639 -0.947,0.695 -0.51,0.073 -1.135,0.014 -1.508,-0.341 -1.11,-1.055 -1.729,-2.537 -2.734,-3.692 -1.183,-1.36 -2.442,-2.663 -3.813,-3.833 -0.8,-0.683 -1.865,-1.006 -2.662,-1.692 -1.642,-1.412 -2.975,-3.16 -4.62,-4.57 -0.703,-0.602 -1.68,-0.824 -2.38,-1.43 -1.719,-1.488 -3.338,-3.1 -4.833,-4.813 -0.691,-0.792 -1.006,-1.865 -1.692,-2.662 -1.412,-1.642 -3.142,-2.991 -4.57,-4.62 -0.944,-1.077 -1.507,-2.468 -2.525,-3.475 -0.857,-0.849 -1.946,-1.441 -3.012,-2.007 -1.82,-0.966 -3.629,-2.042 -5.619,-2.573 -0.836,-0.224 -1.942,-0.21 -2.566,0.388 -1.18,1.129 -1.781,2.771 -2.338,4.306 -1.853,5.109 -3.413,10.324 -4.87,15.56 -0.498,1.788 -0.803,3.634 -0.987,5.481 -1.078,10.863 -1.985,21.744 -2.798,32.63 -0.076,1.018 -0.135,2.075 0.133,3.06 0.412,1.521 0.992,3.034 1.874,4.339 m 6.959,-8.387 c 0,0 0,0 0,0 0.605,-1.258 0.595,-3.097 1.816,-3.774 2.822,-1.565 6.302,-1.436 9.372,-2.431 0.329,-0.106 0.803,-0.506 0.645,-0.814 -0.21,-0.409 -0.842,-0.511 -1.299,-0.461 -0.708,0.077 -1.269,0.718 -1.974,0.82 -1.475,0.213 -3.431,1.18 -4.469,0.111 -1.682,-1.734 0.257,-6.627 -2.14,-6.922 -2.216,-0.273 -0.907,4.422 -1.895,6.425 -0.236,0.479 -0.99,0.55 -1.522,0.503 -0.708,-0.062 -1.269,-0.706 -1.973,-0.811 -0.46,-0.069 -1.2,-0.123 -1.362,0.313 -0.215,0.581 0.088,1.402 0.593,1.761 1.158,0.824 3.291,0.262 3.991,1.498 0.518,0.915 -1.201,1.744 -1.605,2.715 -0.139,0.334 -0.233,0.829 0.022,1.085 0.33,0.332 0.901,0.317 1.369,0.312 m -11.574,-4.321 c 0,0 0,0 0,0 0.947,-1.009 2.284,-1.759 2.839,-3.026 0.186,-0.424 -0.842,-0.447 -1.304,-0.479 -1.35,-0.092 -2.713,-0.036 -4.059,0.113 -4.055,0.447 -8.165,0.688 -12.125,1.671 -0.507,0.126 0.702,0.803 1.162,1.051 0.304,0.165 0.683,0.129 1.03,0.134 2.664,0.039 5.335,0.189 7.993,0 0.639,-0.046 1.167,-0.833 1.794,-0.696 0.883,0.194 1.387,1.196 2.207,1.575"
       id="path6372" />
  </g>
  <g
     id="g6378"
     transform="translate(-368.45059,-505.97845)">
    <path
       fill="none"
       stroke="#000000"
       stroke-width="2"
       stroke-linecap="round"
       stroke-linejoin="round"
       d="m 580.482,702.658 -1.796,-0.091 -0.091,-0.545 0.16,0.396 0.255,0.083 0.137,-0.317 0.522,0.868 0.208,-0.319 0.136,0.3 1.718,-0.931 5.067,-1.511 7.932,-1.197 2.809,-0.847 0.654,0.335 0.978,-0.568 0.291,-0.636"
       id="path6376" />
  </g>
  <g
     id="g6382"
     transform="translate(-368.45059,-505.97845)">
    <path
       fill="#000000"
       d="m 622.766,712.723 c 0,0 0,0 0,0 4.567,-1.85 9.027,-3.99 13.7,-5.552 0.383,-0.128 0.639,0.709 1.035,0.628 0.53,-0.108 1.401,-0.58 1.207,-1.085 -0.323,-0.845 -1.315,-1.569 -2.22,-1.559 -1.733,0.019 -3.335,0.973 -4.936,1.638 -3.861,1.603 -7.763,3.156 -11.433,5.159 -0.28,0.153 0.05,0.8 0.357,0.889"
       id="path6380" />
  </g>
  <g
     id="g6386"
     transform="translate(-368.45059,-505.97845)">
    <path
       fill="none"
       stroke="#000000"
       stroke-width="2"
       stroke-linecap="round"
       stroke-linejoin="round"
       d="m 542.352,734.937 -0.412,0.259 -0.106,-0.619 -1.311,0.224 -0.438,0.435 -0.736,-0.393 -0.728,0.167 -1.43,-1.428 -0.048,-2.478 0.814,-2.455 2.707,-4.699 2.497,-2.755 2.744,-1.508 2.302,0.293 0.812,-0.276 1.631,1.961 0.945,2.401 0.833,3.969 -0.13,1.567 -0.598,2.638 -1.351,3.204 -4.871,6.293 -1.57,-0.276 -1.065,-1.053 -0.6,-1.018 -2.017,-1.941 -0.848,-1.532 -1.19,-0.977 -2.431,-3.589"
       id="path6384" />
  </g>
  <g
     id="g6390"
     transform="translate(-368.45059,-505.97845)">
    <path
       fill="none"
       stroke="#000000"
       stroke-width="2"
       stroke-linecap="round"
       stroke-linejoin="round"
       d="m 434.332,734.632 0.468,-0.146 0.207,-0.488 -0.377,-0.291 -2.361,0.035 -0.571,-0.323 -2.241,0.323 -2.28,1.405 -2.321,0.591 -0.781,1.019 -0.298,-0.172 -0.768,0.546 -0.402,-0.063 -0.728,0.657 0.052,1.116 1.101,0.799 6.006,1.17 3.109,0.028 1.645,0.582 0.592,-0.287 0.888,0.904 0.185,1.401 -4.685,6.415 -1.629,1.689 -1.81,1.224 -0.095,0.645 -0.684,-0.549 0.197,-1.813 1.963,-1.754"
       id="path6388" />
  </g>
  <g
     id="g6394"
     transform="translate(-368.45059,-505.97845)">
    <path
       fill="none"
       stroke="#000000"
       stroke-width="2"
       stroke-linecap="round"
       stroke-linejoin="round"
       d="m 443.535,743.736 -1.489,4.755 -0.047,1.695 0.935,-0.056 0.264,-0.337 -0.048,-2.366"
       id="path6392" />
  </g>
  <g
     id="g6398"
     transform="translate(-368.45059,-505.97845)">
    <path
       fill="none"
       stroke="#000000"
       stroke-width="2"
       stroke-linecap="round"
       stroke-linejoin="round"
       d="m 443.787,727.926 -0.234,0.105 0.138,-0.358 0.278,0.664 0.16,1.284 0.939,0.656 1.478,0.446"
       id="path6396" />
  </g>
  <g
     id="g6402"
     transform="translate(-368.45059,-505.97845)">
    <path
       fill="none"
       stroke="#000000"
       stroke-width="2"
       stroke-linecap="round"
       stroke-linejoin="round"
       d="m 457.813,729.801 -3.49,2.176 -2.173,2.122 -2.377,3.699 -0.9,1.987 0.338,1.064 0.785,0.347 0.605,-0.385 1.514,-0.204 3.952,-2.294 3.507,-4.43 0.766,-1.572 -0.398,0.722 -0.086,1.759 -1.186,3.87 1.185,9.94 1.306,5.357 0.133,2.355 -0.703,2.888 -2.64,7.234 -2.006,3.265 -0.823,0.713 -1.476,0.609 -1.233,-0.106 -1.252,-2.159 -0.574,-3.527 0.268,-5.299 1.519,-5.396 1.195,-2.574 2.519,-3.756 3.277,-3.588"
       id="path6400" />
  </g>
  <g
     id="g6406"
     transform="translate(-368.45059,-505.97845)">
    <path
       fill="none"
       stroke="#000000"
       stroke-width="2"
       stroke-linecap="round"
       stroke-linejoin="round"
       d="m 469.915,733.461 0.032,0.346 0.258,-0.092 -0.399,1.8 -0.025,3.775 -0.783,5.182 -1.323,5.067 -0.091,-0.877 0.782,-1.776 5.912,-9.555 2.446,-3.143 1.576,-1.574 0.495,-0.138 0.686,0.324 0.73,3.224 0.059,2.506 -0.999,7.239 -0.053,2.647 0.748,0.698 0.983,-0.72"
       id="path6404" />
  </g>
  <g
     id="g6410"
     transform="translate(-368.45059,-505.97845)">
    <path
       fill="none"
       stroke="#000000"
       stroke-width="2"
       stroke-linecap="round"
       stroke-linejoin="round"
       d="m 490.84,736.993 0.202,-0.584 -1.339,-0.242 -3.335,1.458 -1.637,1.128 -1.315,2.365 -0.556,2.447 0.154,2.142 0.92,1.725 0.449,-0.14 0.377,0.529 1.184,0.288 3.1,-2.69 3.165,-4.369 0.578,0.025 0.528,2.926 -0.153,5.9 0.331,1.493 0.315,0.482 0.948,-0.184 1.067,-1.161"
       id="path6408" />
  </g>
  <g
     id="g6414"
     transform="translate(-368.45059,-505.97845)">
    <path
       fill="none"
       stroke="#000000"
       stroke-width="2"
       stroke-linecap="round"
       stroke-linejoin="round"
       d="m 501.368,721.007 0.297,-0.371 0.405,0.275 0.904,1.847 0.968,4.827 -0.394,9.227 -1.575,10.871 0.709,5.674 1.268,3.725"
       id="path6412" />
  </g>
  <g
     id="g6418"
     transform="translate(-368.45059,-505.97845)">
    <path
       fill="none"
       stroke="#000000"
       stroke-width="2"
       stroke-linecap="round"
       stroke-linejoin="round"
       d="m 406.459,706.051 -0.302,0.771 -0.397,0.292 -0.181,-0.322 -0.074,0.367 0.365,-0.32 -0.286,-0.099 0.176,0.206 0.009,-0.614 0.2,0.102 0.109,-2.251 -1.034,-6.117 0.168,-0.875 -0.401,-3.138 1.337,-11.078 0.459,-8.624"
       id="path6416" />
  </g>
  <g
     id="g6422"
     transform="translate(-368.45059,-505.97845)">
    <path
       fill="none"
       stroke="#000000"
       stroke-width="2"
       stroke-linecap="round"
       stroke-linejoin="round"
       d="m 383.463,590.162 0.728,0.195 0.441,0.572 -0.172,0.415 -0.426,-0.061 0.844,-0.411 1.017,0.667 2.809,0.203 8.677,-3.645 4.023,-0.837 4.005,-0.104 1.538,-0.347 4.878,0.519 0.336,0.497 0.39,-0.067 -1.079,-1.006 -2.964,-0.172"
       id="path6420" />
  </g>
  <g
     id="g6426"
     transform="translate(-368.45059,-505.97845)">
    <path
       fill="none"
       stroke="#000000"
       stroke-width="2"
       stroke-linecap="round"
       stroke-linejoin="round"
       d="m 383.624,579.983 -0.429,0.024 0.51,0.2 2.163,0.035 1.97,-0.599 1.239,-0.845 1.64,-1.804 2.242,-3.582 0.614,-1.941 0.177,-3.139 -0.81,-3.687 -2.606,-1.352 -0.513,0.248 -1.409,-0.378 -3.769,0.083 -1.213,0.424 -1.825,1.56 1.238,-7.83 -0.344,-5.029 0.081,0.856 0.575,0.586 1.19,-0.019 0.786,-0.406 1.948,0.467 1.32,-0.261 3.62,1.345 3.95,0.41 5.224,-2.407 0.827,-0.018 0.211,0.422"
       id="path6424" />
  </g>
  <g
     id="g6430"
     transform="translate(-368.45059,-505.97845)">
    <path
       fill="none"
       stroke="#000000"
       stroke-width="2"
       stroke-linecap="round"
       stroke-linejoin="round"
       d="m 401.754,558.069 0.07,0.777 0.441,0.124 0.663,1.132 -0.032,0.722 0.662,1.6 0.321,0.075 1.462,2.685 1.562,1.523 0.784,0.238 0.33,0.897 0.754,0.613 0.853,1.48 1.247,0.764 0.367,-0.19 0.697,-1.434 0.801,-4.315 0.54,-8.3 -0.171,-4.293 -0.123,-1.203 -0.246,-0.063 0.517,1.135"
       id="path6428" />
  </g>
  <g
     id="g6434"
     transform="translate(-368.45059,-505.97845)">
    <path
       fill="none"
       stroke="#000000"
       stroke-width="2"
       stroke-linecap="round"
       stroke-linejoin="round"
       d="m 403.327,588.108 -1.318,0.581 0.243,0.316 0.75,-0.143 -0.114,0.228 -0.134,-0.22 0.622,1.534 0.342,2.653 -0.244,8.917 0.309,3.99 0.197,1.628 0.297,-0.172 -0.066,-0.43 1.12,1.736 0.091,2.427 -0.262,-0.15 0.254,-0.306 -0.183,0.727 0.1,-0.553 -0.964,0.722 -1.71,0.445 -1.95,-0.351 -2.057,0.241 -0.875,0.86 -0.885,0.351 -1.361,1.453 -1.162,2.004 0.238,1.115 0.898,1.602 1.373,1.424 0.647,-0.09 2.248,0.964 1.897,-0.437 0.675,0.24 5.436,-2.464 1.201,-0.083 0.786,1.905 0.026,0.954 0.309,0.218 -0.516,0.99 -0.198,-0.165 -1.172,0.876 -0.553,-0.061 -1.916,1.325 -0.76,0.942 -0.454,-0.189 -2.422,0.853 -2.804,0.135 -2.018,0.505 -1.401,1.258 -1.044,1.514 0.19,0.792 0.264,-0.428 0.92,0.152 0.671,-0.576 0.279,0.396 2.142,0.238 3.535,1.252 2.082,0.061 3.788,0.878 1.514,1.455 -0.853,0.155 -1.83,2.267 -3.198,2.219 -0.639,-0.019 -1.277,0.985 -1.735,0.454 0.299,-0.387 0.306,0.219 1.94,-0.715 0.128,0.374 0.817,-0.42 -0.128,0.639 0.489,1.056 0.321,3.777 0.316,0.647 -0.635,12.826 -1.206,9.843 -0.122,6.33 0.321,1.969 0.413,0.74 1.208,-0.294 0.355,0.316 -0.201,-0.397 0.084,0.457 -0.258,-0.247 -0.031,0.364 -0.582,0.033 -0.448,0.438 -1.905,-0.215 -0.446,0.469 0.449,0.651 0.381,-1.032 0.007,0.263 0.522,-0.382 0.369,0.215 -0.342,1.388 0.487,0.073"
       id="path6432" />
  </g>
  <g
     id="g6438"
     transform="translate(-368.45059,-505.97845)">
    <path
       fill="none"
       stroke="#000000"
       stroke-width="2"
       stroke-linecap="round"
       stroke-linejoin="round"
       d="m 370.395,837.565 -0.945,0.209 1.086,0.076 1.817,-0.602 1.039,-0.798 2.729,-1.1 2.638,-0.014 1.252,-0.416 5.006,0.766 4.938,-0.053 2.47,0.311 8.368,-1.431 11.04,-2.378 6.222,-1.979 1.501,-0.629 0.471,-0.67 -0.191,-0.14 -0.02,0.266 -0.734,-0.57 -1.04,0.14 -0.623,-0.377 -5.318,3.329"
       id="path6436" />
  </g>
  <g
     id="g6442"
     transform="translate(-368.45059,-505.97845)">
    <path
       fill="none"
       stroke="#000000"
       stroke-width="2"
       stroke-linecap="round"
       stroke-linejoin="round"
       d="m 381.744,852.591 0.369,0.811 0.75,-0.355 0.176,-0.411 2.677,-0.797 0.877,-0.689 6.59,0.151 3.55,-0.857 1.439,-0.517 0.192,-0.424 -0.461,0.187"
       id="path6440" />
  </g>
  <g
     id="g6446"
     transform="translate(-368.45059,-505.97845)">
    <path
       fill="none"
       stroke="#000000"
       stroke-width="2"
       stroke-linecap="round"
       stroke-linejoin="round"
       d="m 386.802,865.332 -1.366,0.967 -1.091,2.415 0.209,1.232 1.829,1.616 1.356,0.673 3.007,0.32 3.828,-1.364 6.013,-4.227 3.128,-1.315 2.452,-0.097"
       id="path6444" />
  </g>
  <g
     id="g6450"
     transform="translate(-368.45059,-505.97845)">
    <path
       fill="none"
       stroke="#000000"
       stroke-width="2"
       stroke-linecap="round"
       stroke-linejoin="round"
       d="m 392.902,835.78 -0.562,0.503 -0.806,-0.348 0.266,-0.036 -0.097,-0.346 0.399,0.108 -0.236,0.111 0.339,0.275 -0.179,-0.261 -0.013,0.892 0.11,-0.372 -0.406,-0.246 0.549,0.37 -0.594,-0.879 0.475,-0.394 -0.171,-0.167 0.442,-0.803 0.263,-3.707 2.316,-14.059 -0.048,-1.861 0.69,-3.29 2.056,-5.664 1.122,-6.321 -0.334,-0.4 0.359,0.823 -0.172,-0.59 -0.004,0.59 -0.036,-0.507 -1.335,0.793 -1.708,-0.179 -2.854,-0.937 -7.404,-1.639 -4.416,-1.68 0.211,0.148 1.548,-2.09 0.884,-0.201 6.238,-3.309 7.342,-4.989 4.784,-3.894 -0.663,0.384 -3.234,-1.183 -4.681,-0.226 -3.485,-0.923 -1.081,-1.332 -0.428,-2.699 0.389,-2.153 2.237,-2.312 5.964,-4.165 2.74,-0.922 0.913,-0.015 -0.467,-0.462 -0.301,0.171 -0.439,-0.312 -0.417,0.449 -2.733,0.845 -1.778,-0.132 -2.508,-1.778 -0.401,-0.454 -0.101,-0.813 0.837,-2.334 1.001,-1.291 1.434,-1.367 0.869,-0.377 0.116,0.195 0.762,-0.555 -0.006,-0.245 -0.443,0.125 0.593,-0.123 0.473,-0.889 -0.036,-0.971 -0.27,-0.032 0.206,-0.962 -0.381,-0.135 0.561,-1.503 0.711,-4.601 0.185,-9.012 0.802,-10.503 -0.474,-7.387 0.863,-1.745 0.156,-2.579 0.635,-2.215 0.742,-0.9 0.288,0.031"
       id="path6448" />
  </g>
  <g
     id="g6454"
     transform="translate(-368.45059,-505.97845)">
    <path
       fill="none"
       stroke="#000000"
       stroke-width="2"
       stroke-linecap="round"
       stroke-linejoin="round"
       d="m 623.85,711.587 -0.489,2.314 0.216,0.163 0.167,-0.67 0.106,0.394 0.531,-0.049 0.328,0.343 0.872,-0.869 3.42,-0.804 0.497,-0.359 2.62,0.383 0.976,0.593 3.172,-0.466 0.667,-0.349 4.651,0.42 4.24,-0.544 4.315,-1.546 0.959,-0.755 2.846,-0.28 2.547,-0.745 0.898,0.494 2.093,-0.735 2.357,0.449 0.716,-0.436 2.438,1.008 1.843,-0.056 0.774,0.425 6.463,-1.423 0.814,0.16 1.336,-0.726 0.716,-0.889 1.741,-0.154 0.73,-0.402 1.763,0.266 3.973,1.8 0.857,-0.301 2.71,1.424 3.89,1.121 6.726,-0.205 5.262,-0.784 2.884,-0.055 1.999,0.55 4.352,0.319 0.984,-0.45 0.934,0.408"
       id="path6452" />
  </g>
  <g
     id="g6458"
     transform="translate(-368.45059,-505.97845)">
    <path
       fill="none"
       stroke="#000000"
       stroke-width="2"
       stroke-linecap="round"
       stroke-linejoin="round"
       d="m 710.257,713.194 1.208,0.022 -0.576,-0.036 0.356,-0.111 -0.04,-0.316 -0.172,0.578 -0.009,-0.716 0.592,-2.86 0.039,-3.838 1.036,-12.564 -0.282,-6.687 0.978,-7.576 0.383,-7.233 -0.274,-0.505 0.401,-1.73 -0.221,-0.116 0.137,-0.353 0.085,0.244 -0.152,0.591 0.197,-0.45 -0.124,-0.49 -0.03,0.659 -0.24,-0.32 0.765,-2.105 -0.077,-0.777 0.043,1.802"
       id="path6456" />
  </g>
  <g
     id="g6462"
     transform="translate(-368.45059,-505.97845)">
    <path
       fill="none"
       stroke="#000000"
       stroke-width="2"
       stroke-linecap="round"
       stroke-linejoin="round"
       d="m 715.641,672.708 -2.77,2.586 -2.877,-0.258 -1.563,-0.62 -1.667,-2.431 -0.473,-2.022 0.167,-2.307 0.914,-3.117 2.817,-5.841 2.051,-2.679 2.196,-1.873 2.091,-0.766 1.535,0.002 1.722,0.957 1.484,1.691 2.08,3.863 0.413,1.812 -0.181,3.955 -1.25,5.107 -1.277,2.677 -1.609,1.855 -1.824,1.298 -0.628,-0.195 -0.699,0.427 -1.307,0.148 -1.663,-0.724 -0.665,0.07 -3.445,-6.588 -0.159,-2.218 0.724,-1.816"
       id="path6460" />
  </g>
  <g
     id="g6466"
     transform="translate(-368.45059,-505.97845)">
    <path
       fill="none"
       stroke="#000000"
       stroke-width="2"
       stroke-linecap="round"
       stroke-linejoin="round"
       d="m 695.604,598.848 0.006,2.039 0.38,-0.868 0.066,0.5 0.067,4.612 -1.426,7.585 -1.106,3.392 -2.375,11.414 -0.276,3.801 0.358,1.301 0.642,-0.155 0.24,-0.519 3.497,-2.684 1.762,-2.235 4.335,-7.04 1.192,-1.08 0.622,0.157 1.361,3.094 0.473,5.944 0.86,3.843 2.429,4.853 2.206,1.547 0.235,-0.102"
       id="path6464" />
  </g>
  <g
     id="g6470"
     transform="translate(-368.45059,-505.97845)">
    <path
       fill="none"
       stroke="#000000"
       stroke-width="2"
       stroke-linecap="round"
       stroke-linejoin="round"
       d="m 719.504,624.179 -0.628,0.496 -1.341,2.309 -0.938,3.496 -0.258,5.371 0.499,1.017 0.751,-0.052 3.855,-3.039 3.253,-3.938 3.77,-7.611"
       id="path6468" />
  </g>
  <g
     id="g6474"
     transform="translate(-368.45059,-505.97845)">
    <path
       fill="none"
       stroke="#000000"
       stroke-width="2"
       stroke-linecap="round"
       stroke-linejoin="round"
       d="m 717.233,603.018 -1.113,0.436 -0.014,-0.206 0.459,0.139 3.677,2.726 1.321,0.219 1.042,-0.269"
       id="path6472" />
  </g>
  <g
     id="g6478"
     transform="translate(-368.45059,-505.97845)">
    <path
       fill="none"
       stroke="#000000"
       stroke-width="2"
       stroke-linecap="round"
       stroke-linejoin="round"
       d="m 707.602,710.426 0.157,0.179 0.012,-0.471 0.097,0.761 0.326,-0.363 5.552,-0.436 3.044,0.148 0.557,0.469 1.568,-0.487 3.793,0.726 1.512,-0.341 0.987,0.252 2.435,-0.582 0.501,-0.59 1.062,0.264 0.378,-0.276 0.908,0.753 1.437,-0.649 0.871,0.482 0.232,-0.257 0.99,1.113 1.424,-0.522 1.244,0.576 0.46,-0.187 0.039,0.47 0.019,-0.574 -0.066,0.552 0.051,-0.354 0.562,-0.012 0.885,-0.653 0.34,0.272 0.17,-0.399"
       id="path6476" />
  </g>
  <g
     id="g6482"
     transform="translate(-368.45059,-505.97845)">
    <path
       fill="none"
       stroke="#000000"
       stroke-width="2"
       stroke-linecap="round"
       stroke-linejoin="round"
       d="m 739.276,717.432 -1.325,1.054 0.586,-0.529 -0.001,0.71 0.148,-0.693 1.234,2.408 0.599,0.438 0.107,-0.23 0.454,0.695 0.114,-0.208 2.27,4.21 0.624,0.625 0.169,-0.195 0.317,0.637 3.273,-4.543 8.272,-9.371 1.418,-1.875 2.181,-3.918 1.067,-0.761 0.23,0.431 0.274,-0.466 0.338,0.339 0.296,-0.272 1.076,1.979 1.331,4.552 1.893,3.871 0.965,1.241 0.26,-0.251 2.239,2.22 1.381,0.07 2.597,-1.232 1.347,-1.396 3.682,-5.321 0.835,-0.615 3.393,-5.897 0.357,-1.142 1.565,-1.375 0.632,-0.008 0.4,0.45 0.523,-0.238 0.975,0.261 1.092,0.678 1.575,1.314 0.929,1.382 2.289,5.678 1.586,6.084 0.916,1.923 0.603,-0.89 1.501,-0.903 1.281,-1.421 2.293,-3.808 0.69,-0.618 1.295,-2.93 0.652,-0.578 2.036,-3.559 1.766,-1.15 0.671,1.097 2.234,1.45 0.235,-0.261 0.905,1.238 0.649,0.324 0.389,1.185 0.114,-0.413 0.827,-0.082 1.685,0.797 0.894,-0.378 0.327,0.598 2.112,1.355 2.887,1.146 2.864,0.361 1.209,0.553 5.026,-0.51 0.945,-0.68 1.618,0.128 1.398,-0.438 3.109,-0.112 1.849,-0.78 0.79,0.065 2.924,-1.381 3.921,10e-4 3.542,1.01 0.556,0.534 1.269,-0.119 0.776,-0.439 0.372,-0.684 0.49,0.325 0.617,-0.443 0.654,0.226 0.042,0.444 0.237,-0.497 -0.233,0.186 0.208,0.559 -0.096,-1.545 -0.115,0.351 -0.33,-0.104 -0.729,-1.346"
       id="path6480" />
  </g>
  <g
     id="g6486"
     transform="translate(-368.45059,-505.97845)">
    <path
       fill="none"
       stroke="#000000"
       stroke-width="2"
       stroke-linecap="round"
       stroke-linejoin="round"
       d="m 764.107,776.853 -0.937,0.369 -0.309,1.784 -0.476,0.464 -0.161,-0.24 -0.539,-6.028 0.557,-7.909 2.504,-10.67 1.503,-3.538 2.625,-4.44 4.494,-4.981 1.443,-0.482 1.885,0.237 3.094,2.884 0.773,2.095 0.226,2.136 -0.59,4.478 -1.243,4.181 -1.461,3.048 -1.232,1.333 -1.451,0.916 -0.352,-0.062 -0.702,1.021 -3.121,1.866 -3.295,3.333 -1.52,2.614 0.978,2.126 2.733,2.305 2.48,0.717 1.53,-0.111 4.744,1.007 2.223,-0.261 2.19,0.195 5.09,-0.658 4.566,-1.209 4.14,-2.486 2.147,-1.728"
       id="path6484" />
  </g>
  <g
     id="g6490"
     transform="translate(-368.45059,-505.97845)">
    <path
       fill="none"
       stroke="#000000"
       stroke-width="2"
       stroke-linecap="round"
       stroke-linejoin="round"
       d="m 855.333,712.122 0.675,-6.404 -0.43,-7.678 1.166,-9.132 0.983,-4.178 0.178,-2.671 1.39,-4.428 0.53,-4.094 1.781,-4.413 1.671,-7.652 0.524,-0.874 0.026,0.89 0.055,-1.084 0.177,0.882 -0.2,-0.231 -0.017,0.327 0.291,0.519 -0.028,-0.404 -0.556,-1.068 -0.026,0.218 -1.413,-0.726 -0.863,-0.032 -4.382,-2.073 -6.966,-1.83 -0.999,-0.646 -1.97,-0.114 -0.41,-0.216 0.025,-0.335 0.14,0.319 0.516,-0.489 3.231,-0.136 5.437,-1.973 13.442,-5.004 4.754,-2.725 1.651,-2.207 -0.19,0.474 -0.434,-0.381 -1.247,-1.758 -2.969,-1.508 -0.751,0.002 -4.369,-2.371 -1.725,-1.321 -0.555,-0.08 -2.919,-2.764 -0.708,0.003 -0.359,-0.554 -0.076,-1.516 0.521,-0.753 0.541,-0.142 5.072,-0.118 3.59,0.438 5.641,-0.685 2.258,-1.283 1.318,-2.256 0.074,-0.682 -0.228,-1.68 -0.458,-0.79 -2.021,-1.291 -5.469,-1.452 -4.02,-0.557 -1.312,-0.597 -5.05,-0.616 -0.691,0.224 -1.436,-0.903 -0.301,-0.629 -0.084,-1.413 -0.066,0.509 0.794,0.074 1.887,-1.092 0.745,-0.121 2.047,-1.64 0.054,-0.592 -0.098,0.485 0.326,0.393 0.912,-1.766 -0.101,-1.239 1.055,-5.187 -0.093,-6.338 0.816,-8.209 1.838,-7.564 -0.068,-0.321 -0.076,0.408 -0.187,-0.227 -0.099,0.194 0.269,-0.926 -0.168,0.941 0.054,0.505 0.223,-0.068 -0.751,1.433"
       id="path6488" />
  </g>
  <g
     id="g6494"
     transform="translate(-368.45059,-505.97845)">
    <path
       fill="none"
       stroke="#000000"
       stroke-width="2"
       stroke-linecap="round"
       stroke-linejoin="round"
       d="m 840.815,575.353 -1.355,1.094 -0.575,0.741 0.106,0.293 0.413,-0.653 1.062,-0.466 3.554,-0.046 12.051,-3.505 2.778,-0.513 12.127,-0.756 6.649,1.293 2.36,0.067 6.449,2.699 5.691,1.277 3.76,-1.897 1.087,-0.907 0.947,-1.418 0.266,0.254 0.166,-0.371 0.013,0.281 0.131,-0.666 -0.635,-1.628 -1.392,1.046"
       id="path6492" />
  </g>
  <g
     id="g6498"
     transform="translate(-368.45059,-505.97845)">
    <path
       fill="none"
       stroke="#000000"
       stroke-width="2"
       stroke-linecap="round"
       stroke-linejoin="round"
       d="m 842.869,553.823 0.269,1.522 1.527,1.217 2.896,-0.336 4.761,-3.469 2.184,-2.105 1.046,-1.556 0.805,-2.029 0.139,-2.383 -0.55,-1.415 -0.656,-0.845 -1.468,-0.95 -4.555,-1.158 -0.395,0.387 -4.208,0.982 -0.64,-0.527 -0.064,-1.355 4.664,-10.212 0.623,-3.465 -0.135,0.918 0.459,-0.528 1.794,0.08 7.827,-1.401 2.687,0.05 1.377,0.44 1.895,-0.311 4.72,0.199 0.801,-0.383 1.581,1.167"
       id="path6496" />
  </g>
  <g
     id="g6502"
     transform="translate(-368.45059,-505.97845)">
    <path
       fill="none"
       stroke="#000000"
       stroke-width="2"
       stroke-linecap="round"
       stroke-linejoin="round"
       d="m 877.494,533.288 -0.612,0.229 -0.55,1.008 1.051,8.639 0.383,7.505 1.237,4.116 0.888,1.347 1.428,0.584 -0.007,0.496 0.23,-10e-4 3.05,-4.12 1.137,-2.18 2.251,-3.184 2.079,-3.715 1.307,-3.126 0.824,-1.011 1.816,-4.833 0.776,-3.665 0.765,-1.937"
       id="path6500" />
  </g>
  <g
     id="g6506"
     transform="translate(-368.45059,-505.97845)">
    <path
       fill="none"
       stroke="#000000"
       stroke-width="2"
       stroke-linecap="round"
       stroke-linejoin="round"
       d="m 853.864,720.135 -0.194,1.746 0.383,-0.571 -0.078,-0.79 0.204,0.331 -0.208,0.565 0.559,0.208 0.293,2.389 -0.574,10.36 0.161,6.672 2.013,11.109 0.291,4.469 0.214,0.039 -0.043,-0.923 -0.358,0.378 2.35,6.422 0.232,3.398 -0.356,-0.665 -2.355,-0.45 -1.768,0.565 -1.514,0.035 -1.77,0.692 -1.628,1.813 -1.203,2.994 -0.02,2.792 0.872,1.267 2.691,1.566 5.89,2.132 2.808,1.507 1,1.422 0.169,-0.203 0.382,0.318 0.172,0.738 -0.327,2.452 -2.121,1.944 -2.733,0.933 -0.625,-0.214 -2.086,1.054 -1.218,-0.055 -0.593,0.671 -0.165,-0.334 -1.3,-0.25 -0.88,0.18 -0.271,-0.289 -0.154,1.183 -0.177,-0.131 0.068,0.296 -0.662,0.311 -0.279,1.375 0.496,0.154 2.647,2.479 5.075,2.636 2.668,1.768 1.653,0.546 0.844,0.672 2.08,0.085 0.472,0.434 0.454,3.396 -0.405,1.898 -0.815,0.958 -0.176,-0.315 -1.188,1.098 -1.284,0.238 -0.66,0.826 -1.303,-0.354 -3.528,-0.014 -2.058,-0.454 -4.307,0.252 0.885,0.156 -0.032,0.25 -0.13,-0.61 -0.14,1.528 0.575,0.082 0.82,0.698 1.885,0.49 4.955,2.426 3.414,1.262 2.904,2.059 0.861,0.46 0.138,-0.171 0.347,0.545 -0.15,0.763 0.291,0.707 -0.835,1.094 -5.277,2.79 -1.559,0.108 -0.787,0.666 -0.566,-0.11 -0.524,0.402 -0.299,-0.386 -0.112,0.424 0.58,0.306 0.156,0.509 0.027,-0.335 1.422,0.281 1.021,-0.234 1.832,0.24 1.421,0.568 0.468,0.58 0.669,0.129 0.363,0.789 0.05,-0.233 0.476,0.119 0.329,0.621 0.003,-0.287 0.155,1.482 0.302,0.39 -0.072,-0.713 -0.302,4.169 -1.027,3.109 -1.354,8.05 -0.77,9.36 -0.417,17.811 -0.3,-0.47 0.532,-3.28"
       id="path6504" />
  </g>
  <g
     id="g6510"
     transform="translate(-368.45059,-505.97845)">
    <path
       fill="none"
       stroke="#000000"
       stroke-width="2"
       stroke-linecap="round"
       stroke-linejoin="round"
       d="m 829.862,872.475 0.196,0.418 -0.764,1.065 -1.632,0.577 0.338,-0.252 1.281,0.126 0.778,0.399 3.245,-0.447 1.754,0.155 8.01,-0.52 5.717,0.567 2.964,-0.041 8.788,1.344 13.385,0.772 6.502,0.813 1.438,-0.091 0.289,-0.555 0.541,0.439 0.191,-0.484 0.129,0.393 -0.469,-1.845 -1.912,-1.776"
       id="path6508" />
  </g>
  <g
     id="g6514"
     transform="translate(-368.45059,-505.97845)">
    <path
       fill="none"
       stroke="#000000"
       stroke-width="2"
       stroke-linecap="round"
       stroke-linejoin="round"
       d="m 836.899,892.385 -1.014,0.133 -0.336,0.344 0.39,0.556 0.821,0.327 0.461,0.726 5.742,2.879 2.192,0.455 2.712,-0.173 1.29,-0.432 2.709,-1.515 1.195,-1.401"
       id="path6512" />
  </g>
  <g
     id="g6518"
     transform="translate(-368.45059,-505.97845)">
    <path
       fill="none"
       stroke="#000000"
       stroke-width="2"
       stroke-linecap="round"
       stroke-linejoin="round"
       d="m 844.399,904.426 -1.288,1.446 -0.635,2.474 0.337,1.139 0.617,0.118 2.413,1.954 2.189,0.149 3.417,-2.763"
       id="path6516" />
  </g>
  <g
     id="g6522"
     transform="translate(-368.45059,-505.97845)">
    <path
       fill="none"
       stroke="#000000"
       stroke-width="2"
       stroke-linecap="round"
       stroke-linejoin="round"
       d="m 889.576,644.437 -0.176,-0.839 0.351,-1.096 2.626,-4.127 2.32,-2.371 0.823,-0.175 1.475,-2.078 2.477,-1.242 0.762,0.528 1.256,-0.067 2.12,1.286 0.957,1.472 0.88,3.419 -0.272,2.404 -1.239,3.343 -4.515,6.76 -11.102,13.628 0.777,-1.015 1.459,0.461 5.488,-0.923 1.014,-0.504 6.038,-0.995 5.19,-1.975"
       id="path6520" />
  </g>
  <g
     id="g6526"
     transform="translate(-368.45059,-505.97845)">
    <path
       fill="none"
       stroke="#000000"
       stroke-width="2"
       stroke-linecap="round"
       stroke-linejoin="round"
       d="m 914.937,656.41 -0.369,0.707 -1.932,0.816 -1.02,-2.453 0.167,-4.291 1.61,-6.536 2.446,-5.394 3.839,-5.838 2.867,-2.528 1.946,-0.727 1.935,0.356 1.996,3.014 -0.259,1.932 -1.342,2.871 -1.97,1.925 -3.218,2.045 -2.158,0.596 -1.001,-0.44 -1.101,0.414 -0.369,-0.264 -0.203,0.655 -0.23,-0.591 0.343,-0.528 0.367,1.843 1.992,2.614 2.032,1.722 5.437,2.837 1.97,1.493 3.05,1.108 3.958,0.355 1.676,-0.253 0.358,0.563 0.055,-0.317"
       id="path6524" />
  </g>
  <g
     id="g6530"
     transform="translate(-368.45059,-505.97845)">
    <path
       fill="none"
       stroke="#000000"
       stroke-width="2"
       stroke-linecap="round"
       stroke-linejoin="round"
       d="m 884.85,783.742 -1.092,-0.284 0.051,0.285 -0.079,-0.587 0.132,0.384 0.428,-1.442 2.157,-2.841 1.666,-1.001 2.527,0.015 3.616,1.325 1.337,1.202 0.561,2.67 0.157,2.696 -0.62,5.003 -1.884,5.575 -2.021,3.563 -5.319,7.243 -0.666,1.451 -1.851,2.211 0.616,-0.443 3.238,0.671 17.975,-1.609 1.13,0.59 2.442,-1.723"
       id="path6528" />
  </g>
  <g
     id="g6534"
     transform="translate(-368.45059,-505.97845)">
    <path
       fill="none"
       stroke="#000000"
       stroke-width="2"
       stroke-linecap="round"
       stroke-linejoin="round"
       d="m 912.273,809.173 -0.476,1.334 -0.223,-0.167 0.029,-4.679 1.48,-11.922 2.219,-9.179 1.776,-3.195 2.152,-2.41 3.003,-1.851 0.955,0.151 0.953,-0.279 2.509,0.322 1.975,1.096 1.139,0.014 4.748,3.548 1.283,2.129 -0.518,2.377 -0.707,1.535 -0.797,1.098 -2.496,2.017 -4.176,2.848 -2.349,0.453 -0.87,0.548 -1.811,-0.711 -1.079,0.461 -0.262,1.05 0.646,0.476 1.512,5.119 1.07,1.584 1.009,0.998 1.073,0.421 1.68,1.717 2.003,0.776 5.045,3.51 2.165,0.199 1.914,0.578 3.396,-0.41 3.292,-0.719 2.259,-1.164 0.843,-0.971"
       id="path6532" />
  </g>
  <g
     id="g6538"
     transform="translate(-368.45059,-505.97845)">
    <path
       fill="none"
       stroke="#000000"
       stroke-width="2"
       stroke-linecap="round"
       stroke-linejoin="round"
       d="m 856.338,713.462 0.545,-0.336 0.589,0.771 0.669,-0.335 0.48,0.356 0.425,-0.26 1.101,0.527 1.388,0.117 8.16,-0.186 0.745,-0.451 3.625,1.012 0.639,0.439 4.35,-0.653 7.965,-0.258 4.403,1.004 0.841,0.535 6.806,0.176 0.806,0.435 4.654,-0.994 4.71,-0.06 2.693,0.441 2.199,0.745 2.785,0.177 1.742,-0.264 1.04,-0.493 2.358,0.435 0.899,-0.192 6.017,1.412 7.202,0.433 4.39,-0.448 2.209,-0.592 2.203,0.058 1.169,0.557 2.385,-0.386 1.243,0.311 2.76,-0.112 0.975,-0.36 1.392,0.511 1.439,-0.087 3.256,0.803 7.054,0.318 0.834,0.269 2.236,-0.195 2.73,0.353 0.889,-0.262 2.789,0.464 2.742,-0.085 0.644,0.53 0.78,0.136 0.723,-0.546 7.225,-1.461 1.184,-0.76 7.309,0.114 6.036,-0.333 1.17,0.336 3.14,-0.209 1.3,0.25 2.55,-0.205 1.28,-0.674 2.15,0.888 1.29,-0.005 1.28,0.955 1.35,-0.029 1.07,-0.544 3.69,0.253 3.79,-0.384 0.46,-0.363 1.01,0.228 0.7,-0.479 2.03,1.059 10.43,-0.155 0.83,0.541 0.04,0.607 -0.06,-0.234 0.18,0.212 0.25,-0.215 -0.03,-0.446 0.15,0.351 0.23,-0.434 0.58,0.757 0.35,-2.268"
       id="path6536" />
  </g>
  <g
     id="g6542"
     transform="translate(-368.45059,-505.97845)">
    <path
       fill="none"
       stroke="#000000"
       stroke-width="2"
       stroke-linecap="round"
       stroke-linejoin="round"
       d="m 1041.47,745.693 -0.01,-0.741 0.21,0.633 -0.29,0.132 0.33,-0.331 0.03,0.242 0.15,-1.109 -0.19,0.224 0.19,0.383 0.15,-0.37 0.49,-1.775 -0.4,0.424 1.34,-3.3 -0.08,-2.294 0.86,-2.743 0.41,-4.691 1.36,-4.903 0.62,-1.188 0.48,-3.392 1.13,-3.56 0.21,-2.9 1.24,-6.075 -0.16,-4.476 1.49,-5.799 -0.1,-0.335 -1.25,3.625"
       id="path6540" />
  </g>
  <g
     id="g6546"
     transform="translate(-368.45059,-505.97845)">
    <path
       fill="none"
       stroke="#000000"
       stroke-width="2"
       stroke-linecap="round"
       stroke-linejoin="round"
       d="m 1041.23,742.568 0.47,1.265 -0.73,2.875 -0.15,3.35 -0.96,3.132 -0.51,0.686 -1.23,4.387 0.22,1.171 -0.14,-1.576 0.24,1.662 0.45,-0.335"
       id="path6544" />
  </g>
  <g
     id="g6550"
     transform="translate(-368.45059,-505.97845)">
    <path
       fill="none"
       stroke="#000000"
       stroke-width="2"
       stroke-linecap="round"
       stroke-linejoin="round"
       d="m 1042.06,740.247 -2.07,-0.363 -0.22,0.306 -2.1,-0.606 -0.76,-0.621 -0.34,0.238 -1.77,-0.067 -0.75,-0.326 -2.46,0.365 -4.04,-0.143 -6.43,0.741 -0.76,-0.463 -1.02,0.2 -2.16,-0.518 -1.33,0.4 -0.58,0.588 -0.33,1.039 1.26,-0.591"
       id="path6548" />
  </g>
  <g
     id="g6554"
     transform="translate(-368.45059,-505.97845)">
    <path
       fill="none"
       stroke="#000000"
       stroke-width="2"
       stroke-linecap="round"
       stroke-linejoin="round"
       d="m 1011.3,744.086 -2.01,1.781 -1.06,0.522 -0.63,0.049 -0.29,-0.489 -0.44,0.313 -1.43,-0.165 -0.44,0.474 -1.82,-1.199 -0.23,-0.849 -0.48,-0.202 -0.8,-1.546 0.06,-1.887 0.5,-1.99 2.37,-4.075 1.97,-1.654 1.53,0.544 0.94,-0.135 0.95,0.641 3.44,1.291 1.08,1.918 0.21,1.419 -0.19,2.346 -1.08,1.544 -0.79,0.411 -1.84,2.058 -1.55,1.087 -0.83,0.219 -1.2,-0.09 -1.53,-1.001 -1.02,-1.783 -0.19,-1.706"
       id="path6552" />
  </g>
  <g
     id="g6558"
     transform="translate(-368.45059,-505.97845)">
    <path
       fill="none"
       stroke="#000000"
       stroke-width="2"
       stroke-linecap="round"
       stroke-linejoin="round"
       d="m 932.035,739.621 -0.409,1.189 0.047,-1.464 -2.032,-0.998 -1.937,-0.238 -0.531,0.407 -1.8,0.138 -1.592,1.256 -0.718,0.108 -1.031,0.898 -0.421,0.901 -0.263,-0.017 0.085,0.344 0.456,-0.358 0.486,0.571 0.896,0.341 9.531,1.594 0.819,0.687 0.54,1.239 0.165,3.006 -0.488,1.696 -0.516,-0.045 -0.896,1.08 -2.109,0.287 -0.11,-0.71 1.973,-2.817"
       id="path6556" />
  </g>
  <g
     id="g6562"
     transform="translate(-368.45059,-505.97845)">
    <path
       fill="none"
       stroke="#000000"
       stroke-width="2"
       stroke-linecap="round"
       stroke-linejoin="round"
       d="m 945.078,742.747 -2.635,5.789 -0.596,0.778 0.031,-0.673 0.343,-0.072 0.389,-1.417"
       id="path6560" />
  </g>
  <g
     id="g6566"
     transform="translate(-368.45059,-505.97845)">
    <path
       fill="none"
       stroke="#000000"
       stroke-width="2"
       stroke-linecap="round"
       stroke-linejoin="round"
       d="m 944.756,730.247 -0.278,0.415 -0.411,-0.01 -0.065,0.43 1.099,2.634 0.646,1.029 1.941,1.154"
       id="path6564" />
  </g>
  <g
     id="g6570"
     transform="translate(-368.45059,-505.97845)">
    <path
       fill="none"
       stroke="#000000"
       stroke-width="2"
       stroke-linecap="round"
       stroke-linejoin="round"
       d="m 960.956,736.586 -1.081,0.272 -0.673,0.539 -0.187,-0.233 -3.21,0.383 -0.323,-0.289 -0.731,0.443 -1.526,0.129 -0.84,0.653 -0.78,1.212 1.18,2.082 1.647,0.112 1.993,-1.065 0.676,0.11 2.008,-1.401 1.011,-0.1 0.255,-0.327 1.029,2.682 0.139,2.752 -0.436,2.545 0.739,5.052 -1.198,4.31 -1.72,2.733 -2.609,1.178 -0.463,-0.242 -0.566,0.688 -2.907,1.574 -0.385,-0.13 0.861,-4.416 2.526,-5.49 3.557,-4.766 1.546,-1.405 2.642,-3.459 2.92,-3.038"
       id="path6568" />
  </g>
  <g
     id="g6574"
     transform="translate(-368.45059,-505.97845)">
    <path
       fill="none"
       stroke="#000000"
       stroke-width="2"
       stroke-linecap="round"
       stroke-linejoin="round"
       d="m 967.41,735.336 -0.821,1.462 -0.851,4.117 0.056,3.325 0.149,0.457 0.461,-0.089 -0.031,0.443 1.581,-2.396 6.182,-6.023 0.246,0.299 -0.348,1.156 0.075,1.013 -0.999,3.496 0.81,0.723 1.206,0.04 0.514,0.427 3.251,-1.973 0.504,-0.994 1.219,-0.267 0.989,-0.757 0.304,0.368 1.82,-2.264 0.58,-1.942 -0.104,0.296 -0.137,-0.236 0.125,0.575 -0.01,-0.422 -0.311,-0.142 -0.903,0.348 -3.319,4.043 -1.903,2.619 -0.561,1.949 0.773,-0.369 0.276,-0.55 0.787,0.524 1.794,-0.472 3.192,-3.401 1.516,-2.164 -0.117,-0.396 -0.502,0.705 0.262,0.749 -0.332,2.824 0.205,1.795 0.823,1.926 1.259,0.339 0.664,-0.304"
       id="path6572" />
  </g>
  <g
     id="g6578"
     transform="translate(-368.45059,-505.97845)">
    <path
       fill="none"
       stroke="#000000"
       stroke-width="2"
       stroke-linecap="round"
       stroke-linejoin="round"
       d="m 993.794,725.039 0.366,-0.201 0.117,1.644 -0.275,3.561 -3.817,12.795 0.013,2.826 0.828,2.892"
       id="path6576" />
  </g>
  <g
     id="g6582"
     transform="translate(-368.45059,-505.97845)">
    <path
       fill="none"
       stroke="#000000"
       stroke-width="2"
       stroke-linecap="round"
       stroke-linejoin="round"
       d="m 1058.3,748.55 -1.08,0.153 -0.42,1.29 -0.3,0.059 0.43,-0.794 -0.1,-0.482 1.18,-4.566 1.99,-4.946 1.17,-1.883 2.87,-7.914"
       id="path6580" />
  </g>
  <g
     id="g6586"
     transform="translate(-368.45059,-505.97845)">
    <path
       fill="none"
       stroke="#000000"
       stroke-width="2"
       stroke-linecap="round"
       stroke-linejoin="round"
       d="m 1050.24,738.818 0.12,0.588 1.4,1.838 4.89,0.542 0.58,-0.053 1.29,-0.902 0.64,0.267 1.36,-0.082 4.17,-1.039 0.94,0.048 2.36,-1.25"
       id="path6584" />
  </g>
  <g
     id="g6590"
     transform="translate(-368.45059,-505.97845)">
    <path
       fill="none"
       stroke="#000000"
       stroke-width="2"
       stroke-linecap="round"
       stroke-linejoin="round"
       d="m 1060.01,712.598 -0.02,1.657 0.53,0.869 0.12,-0.42 3.1,0.009 0.84,-0.712 0.44,0.327 2.13,0.242 6.39,-0.258"
       id="path6588" />
  </g>
  <g
     id="g6594"
     transform="translate(-368.45059,-505.97845)">
    <path
       fill="none"
       stroke="#000000"
       stroke-width="2"
       stroke-linecap="round"
       stroke-linejoin="round"
       d="m 1050.02,699.355 1.61,-0.117 0.27,-0.308 -0.46,0.261 0.09,0.511 0.06,-0.212 1.06,0.108 0.38,-0.334 1.93,1.061 4.79,1.364 5.97,2.36 2.14,1.398 0.98,0.282 7.23,6.359 3.66,1.604 4.26,1.237 5.11,1.982 2.08,2.164 0.69,0.103 1.24,1.219 3.11,0.806 2.54,1.737 3.34,3.952 3.87,1.417 0.09,-0.446 -0.44,1.118 -0.42,-1.181 -0.41,-0.158"
       id="path6592" />
  </g>
  <g
     id="g6598"
     transform="translate(-368.45059,-505.97845)">
    <path
       fill="none"
       stroke="#000000"
       stroke-width="2"
       stroke-linecap="round"
       stroke-linejoin="round"
       d="m 1035.16,762.835 -0.24,0.521 0.25,-0.151 -0.09,-0.518 0.49,1.139 0.53,-0.565 2.35,-0.176 2.77,-0.935 10.45,-4.794 9.18,-4.847 1.88,-0.374 3.03,-1.881 8.25,-4.117 0.94,-1.276 1.07,-0.83 1.02,-0.044 3.12,-1.322 3.12,-1.857 3.74,-1.386 1.78,-0.146 3.37,-1.882 10.08,-3.132 3.23,-1.737 0.61,-0.647 0.93,-3.248 v -1.135"
       id="path6596" />
  </g>
  <g
     id="g6602"
     transform="translate(-368.45059,-505.97845)">
    <path
       fill="none"
       stroke="#000000"
       stroke-width="2"
       stroke-linecap="round"
       stroke-linejoin="round"
       d="m 1102.08,728.193 h 0.41 l 0.16,0.505 0.06,-1.234 -0.25,0.743 0.24,-0.403 0.71,-0.136 0.39,-0.611 4.66,-0.918 1.41,0.531 1.53,-0.555 8.18,-0.014 2.08,-0.716 1.06,0.345 8.34,0.35 1.86,0.504 3.35,-0.393 6.19,0.019 0.23,-0.286 0.76,0.3 0.33,-0.464 1.58,0.781 2.04,-0.208 0.9,0.448 3.5,-1.336 0.21,-0.478 -0.2,0.425 -0.88,0.354 0.15,0.492 -0.3,-0.619 -0.84,1.11 -1.3,0.838"
       id="path6600" />
  </g>
  <g
     id="g6606"
     transform="translate(-368.45059,-505.97845)">
    <path
       fill="none"
       stroke="#000000"
       stroke-width="2"
       stroke-linecap="round"
       stroke-linejoin="round"
       d="m 1152.27,735.604 -2.89,-0.063 -0.41,-0.345 -0.78,-0.823 -0.13,-0.623 0.42,-1.496 2.46,-4.476 7.78,-10.38 2.44,-2.159 3,-2.064 3.48,-0.542 1.56,0.877 0.53,1.101 0.6,2.745 0.22,3.826 -0.12,2.984 -0.85,2.988 -1.41,2.512 -2.73,2.908 -1.61,0.957 -2.48,0.756 -2.14,-0.094 -2.18,-1.205 -0.94,-1.951 -0.65,-2.855"
       id="path6604" />
  </g>
  <g
     id="g6610"
     transform="translate(-368.45059,-505.97845)">
    <path
       fill="none"
       stroke="#000000"
       stroke-width="2"
       stroke-linecap="round"
       stroke-linejoin="round"
       d="m 1180.93,741.532 0.13,0.224 0.49,-0.39 1.83,-2.433 1.46,-0.996 2.8,-3.003 3.06,-4.549 4.82,-8.954 8.7,-21.385 1.13,-5.078 -0.99,-3.79 0.19,-0.649 -0.5,2.16 -1.81,2.068 -1.74,2.914 -1.5,3.394 -2.88,9.316 -3.93,10.833 -0.54,4.58 0.52,1.669 1.12,1.886 1.33,1.497 1.5,0.887 2.36,0.118 3.01,-2.421 2.29,-1.284 1.28,-1.227 7.59,-4.828 1.8,-2.23 0.71,-1.237 0.19,-1.142 -0.69,0.536 0.03,0.731 -1.71,1.997 -1.56,1.244 -2.38,4.103 -0.89,2.729 -0.15,2.966 0.84,1.191 0.67,0.376 9.01,0.985 3.18,-1.913 1.45,-1.433 2.43,-3.968 1.45,-4.003 0.37,-2.316 -0.43,-2.035 -1.71,-2.625 -2.85,-2.514 -1.64,-0.865 -1.23,0.306 -0.18,0.408 -1.01,0.425 -1.87,1.71 -0.93,1.868 -0.04,2.087 0.65,2.335 1.83,1.95 1.92,0.496 1.85,-0.33 5.69,-2.78"
       id="path6608" />
  </g>
  <metadata
     id="metadata6618">
    <rdf:RDF>
      <cc:Work
         rdf:about="">
        <dc:title>Quick sheets</dc:title>
      </cc:Work>
    </rdf:RDF>
  </metadata>
</svg>
