<?xml version="1.0" encoding="UTF-8" standalone="no"?>
<svg
   width="1275.4146"
   height="395.18399"
   viewBox="0 0 1275.4146 395.18399"
   version="1.2"
   id="svg5937"
   xmlns="http://www.w3.org/2000/svg"
   xmlns:svg="http://www.w3.org/2000/svg"
   xmlns:rdf="http://www.w3.org/1999/02/22-rdf-syntax-ns#"
   xmlns:cc="http://creativecommons.org/ns#"
   xmlns:dc="http://purl.org/dc/elements/1.1/">
  <defs
     id="defs5941" />
  <title
     id="title5629">Quick sheets</title>
  <g
     id="g5635"
     transform="translate(-73.215436,-265.094)">
    <path
       fill="none"
       stroke="#000000"
       stroke-width="2"
       stroke-linecap="round"
       stroke-linejoin="round"
       d="m 103.572,564.895 0.366,-0.387 0.221,0.18 -0.517,0.135 0.306,-0.336 0.613,0.307 -0.764,-0.075 0.591,1.469 0.564,6.558 -0.322,4.147 -0.711,3.693 -0.62,9.884 -0.017,8.097 -0.679,10.622 0.079,2.493 0.398,0.554 0.106,1.292 -0.249,1.438 -0.339,-1.061 0.403,-0.414 -0.695,-1.485 -0.066,-1.809 0.638,-2.574"
       id="path5633" />
  </g>
  <g
     id="g5639"
     transform="translate(-73.215436,-265.094)">
    <path
       fill="none"
       stroke="#000000"
       stroke-width="2"
       stroke-linecap="round"
       stroke-linejoin="round"
       d="m 75.4347,619.081 -1.2194,1.345 0.1404,-0.439 0.3851,-0.125 -0.2371,0.044 0.2274,0.308 0.0457,-0.33 0.4503,-0.08 3.3931,0.569 3.9313,0.201 30.7505,-1.268 4.849,0.059 7.062,-0.944 1.497,0.186 1.778,1.741 -0.108,-0.509 0.302,-0.126 -0.902,-0.35 -0.964,-1.428 -1.745,-1.022"
       id="path5637" />
  </g>
  <g
     id="g5643"
     transform="translate(-73.215436,-265.094)">
    <path
       fill="none"
       stroke="#000000"
       stroke-width="2"
       stroke-linecap="round"
       stroke-linejoin="round"
       d="m 85.2696,637.482 h -0.2897 l -0.0139,0.465 0.4594,0.404 4.1879,0.96 2.9887,0.073 2.8064,-0.826 6.6646,-3.727 2.397,-0.421 0.644,1.499"
       id="path5641" />
  </g>
  <g
     id="g5647"
     transform="translate(-73.215436,-265.094)">
    <path
       fill="none"
       stroke="#000000"
       stroke-width="2"
       stroke-linecap="round"
       stroke-linejoin="round"
       d="m 90.0221,655.16 -1.0401,1.753 0.3958,0.397 3.8571,1.437 4.7007,0.523 2.2114,0.008 1.791,-0.495 1.55,-1.375 1.039,-1.856"
       id="path5645" />
  </g>
  <g
     id="g5651"
     transform="translate(-73.215436,-265.094)">
    <path
       fill="none"
       stroke="#000000"
       stroke-width="2"
       stroke-linecap="round"
       stroke-linejoin="round"
       d="m 104.11,558.377 -0.448,-0.007 0.399,-0.381 0.233,0.397 -0.244,0.087 0.39,0.083 1.542,-0.318 3.181,0.006 3.124,0.453 3.006,0.019 4.998,-0.475 6.974,-1.603 7.321,-2.147 6.618,-0.74 5.557,0.323 2.055,-0.612 0.496,0.33 1.346,0.041 0.394,-0.675 0.427,-0.115 0.106,0.389 0.294,-0.494 -0.797,0.068 0.46,-0.107 -0.686,-2.584 0.179,-0.293"
       id="path5649" />
  </g>
  <g
     id="g5655"
     transform="translate(-73.215436,-265.094)">
    <path
       fill="none"
       stroke="#000000"
       stroke-width="2"
       stroke-linecap="round"
       stroke-linejoin="round"
       d="m 154.721,551.938 -1.312,0.775 0.887,-0.243 0.421,-1.8 4.194,-7.415 0.623,0.171 1.773,2.51 2.704,7.863 1.296,6.609 0.168,2.64 1.031,4.154 0.526,4.006 1.49,6.458 1.693,9.744 0.343,-0.268 -0.117,-0.811 0.458,-0.267 2.248,-4.464 3.386,-9.899 2.423,-8.724 3.092,-5.619 0.871,-2.476 7.799,-12.838 1.155,-1.056 0.519,0.045 -0.419,0.158 0.794,0.748 1.231,3.09 0.958,1.406 0.752,3.314 0.725,1.373 2.685,13.111 1.017,2.204 0.918,0.515 0.821,-2.74 1.457,-2.007 1.304,-2.648 6.134,-14.987 5.806,-12.282 3.156,-5.211 3.28,-3.663 1.706,-0.114 0.786,1.057 0.687,0.321 0.111,0.801 0.347,0.116 0.829,7.982 0.146,7.658 1.784,6.795 0.833,2.155 1.435,2.393 0.878,-0.456 0.134,-1.167 0.094,0.208 2.448,-0.713 1.046,0.012 0.811,-0.494 5.35,-1.462 1.115,-0.897 7.159,-1.524 5.105,-0.47 4.362,-0.094 1.919,0.29 16.916,-2.216 4.384,-1.564 3.15,-2.239 -0.86,0.128 -0.426,0.502 0.218,0.495 0.207,-0.956 -0.409,0.021 -0.203,0.457 -0.469,-0.439 -0.29,0.165 -0.044,-0.946 -0.516,-0.658"
       id="path5653" />
  </g>
  <g
     id="g5659"
     transform="translate(-73.215436,-265.094)">
    <path
       fill="none"
       stroke="#000000"
       stroke-width="2"
       stroke-linecap="round"
       stroke-linejoin="round"
       d="m 167.302,627.214 0.308,0.094 -0.323,-0.371 0.219,-0.122 -0.327,0.309 -0.494,-0.147 -0.527,-0.86 -0.084,-4.746 1.57,-6.137 2.419,-4.479 1.918,-0.923 1.869,0.311 4.5,3.164 1.945,2.964 0.11,0.444 -0.306,0.346 0.934,2.392 -0.02,2.239 -0.334,0.671 0.298,1.429 -0.54,0.721 -1.367,4.63 -4.644,11.498 -2.826,3.819 -0.516,-0.053 -0.169,0.261 0.038,-1.296 0.922,1.346 0.969,-0.053 2.641,0.902 1.036,0.041 3.876,1.456 3.298,0.331 3.734,-0.642 3.652,-1.661 2.159,-2.285 0.225,-0.685"
       id="path5657" />
  </g>
  <g
     id="g5663"
     transform="translate(-73.215436,-265.094)">
    <path
       fill="none"
       stroke="#000000"
       stroke-width="2"
       stroke-linecap="round"
       stroke-linejoin="round"
       d="m 200.325,640.696 -0.871,0.361 -0.235,0.445 -0.4,-0.749 -0.591,-0.33 -0.797,-1.575 -0.504,-2.083 -0.085,-4.602 0.434,-5.797 1.579,-8.092 1.833,-5.834 1.643,-4.071 4.277,-7.517 0.624,-0.828 2.987,-2.32 2.55,-0.395 4.558,0.979 2.243,2.195 1.365,2.571 0.677,2.475 -0.478,2.014 -1.551,3.309 -2.745,2.659 -0.74,0.061 -1.636,1.694 -4.8,2.64 -0.534,0.586 -5.057,2.39 -0.372,1.56 0.224,0.527 1.163,0.709 3.152,4.401 1.078,2.575 8.446,8.898 1.586,0.945 0.788,1.009 3.607,2.999 4.393,3.002 1.81,0.769 1.479,-0.421 0.339,-2.818"
       id="path5661" />
  </g>
  <g
     id="g5667"
     transform="translate(-73.215436,-265.094)">
    <path
       fill="none"
       stroke="#000000"
       stroke-width="2"
       stroke-linecap="round"
       stroke-linejoin="round"
       d="m 281.068,537.038 -0.36,0.159 0.424,-0.439 0.109,0.931 0.095,-0.453 0.298,0.02 -0.572,0.132 0.563,-0.989 -0.237,-0.46 0.867,-12.783 0.348,-14.784 0.93,-8.419 -0.165,-1.077 -0.3,-0.197 -0.039,1.13 0.388,-0.946 -0.394,0.269 -0.104,2.33"
       id="path5665" />
  </g>
  <g
     id="g5671"
     transform="translate(-73.215436,-265.094)">
    <path
       fill="none"
       stroke="#000000"
       stroke-width="2"
       stroke-linecap="round"
       stroke-linejoin="round"
       d="m 288.158,492.723 -0.126,0.475 -1.008,0.576 -1.026,-0.064 -0.145,-0.436 -0.555,0.269 -0.112,-0.406 -1.173,0.725 -2.311,-0.371 -3.106,-1.648 -3.092,-0.855 -4.88,-2.336 -3.063,-2.391 -1.104,-1.503 7.24,-3.688 6.403,-2.491 7,-3.847 4.416,-3.206 2.175,-1.961 2.194,-2.17 1.22,-1.862 -0.095,-1.28 -0.428,-0.43 -0.635,0.119 -1.209,-1.243 -7.202,-0.273 -2.941,0.767 -0.788,-0.191 -12.435,0.631 -0.102,-0.262 0.431,-0.408 1.62,-0.194 3.742,-4.153 4.319,-3.723 2.427,-1.619 3.88,-1.766 4.598,-3.34 0.411,-0.69 0.656,-0.278 0.012,0.287 -1.769,-0.274 -4.685,-2.64 -2.39,-0.364 -1.55,-0.891 -4.274,-1.019 -3.183,-2.001 -1.188,-0.398 -1.947,-2.932 0.11,-0.813 1.471,-0.763 1.181,-1.643 4.9,-3.417 2.278,-2.104 1.132,-1.526 0.817,-1.919 0.485,-2.818 -0.464,-4.656 -0.997,-3.398 -0.481,-3.926 -0.465,-1.422 -0.551,-0.573 -0.111,-1.065 -0.044,-3.991 0.692,-3.432"
       id="path5669" />
  </g>
  <g
     id="g5675"
     transform="translate(-73.215436,-265.094)">
    <path
       fill="none"
       stroke="#000000"
       stroke-width="2"
       stroke-linecap="round"
       stroke-linejoin="round"
       d="m 185.347,464.828 0.247,-0.809 -0.144,-1.65 1.595,-4.64 1.881,-2.486 1.714,-1.207 2.545,-0.672 1.761,0.272 2.603,-0.401 2.01,0.402 0.678,-0.396 3.341,1.434 0.094,0.649 0.732,0.263 0.45,0.713 0.87,3.314 -1.653,8.042 -5.919,11.873 -5.895,9.026 2.389,-1.768 3.304,-1.668 0.451,-0.544 8.799,-2.721 1.456,0.047 4.872,-1.204"
       id="path5673" />
  </g>
  <g
     id="g5679"
     transform="translate(-73.215436,-265.094)">
    <path
       fill="none"
       stroke="#000000"
       stroke-width="2"
       stroke-linecap="round"
       stroke-linejoin="round"
       d="m 223.168,479.772 -1.055,-0.422 -1.997,0.012 -2.305,-1.033 -1.289,-4.346 0.246,-2.696 -0.306,-1.156 0.273,-1.544 2.479,-8.909 3.52,-8.59 1.432,-2.553 4.152,-6.364 1.914,-2.335 3.117,-2.382 1.788,-0.685 1.167,0.183 1.246,0.821 2.074,2.406 0.655,1.224 0.897,3.926 -0.724,4.015 -0.905,1.811 -1.809,1.485 -8.543,3.367 -3.007,1.688 -0.836,-0.212 -1.614,0.454 -0.891,0.629 -0.321,-0.168 0.051,0.301 0.298,-0.143 0.342,2.457 0.966,2.118 2.96,2.753 1.985,1.336 3.059,1.512 4.302,1.454 1.888,0.285 10.103,3.958 3.134,2.911 0.002,-0.307"
       id="path5677" />
  </g>
  <g
     id="g5683"
     transform="translate(-73.215436,-265.094)">
    <path
       fill="#000000"
       d="m 273.831,395.535 c 0,0 0,0 0,0 -0.759,-0.799 -1.269,-1.952 -2.278,-2.396 -0.726,-0.32 -2.33,-0.437 -2.354,0.356 -0.031,1.091 1.276,1.916 2.275,2.356"
       id="path5681" />
  </g>
  <g
     id="g5687"
     transform="translate(-73.215436,-265.094)">
    <path
       fill="none"
       stroke="#000000"
       stroke-width="2"
       stroke-linecap="round"
       stroke-linejoin="round"
       d="m 282.991,543.02 1.33,-0.027 0.04,-0.69 0.722,-1.047 0.584,0.239 0.426,-0.3 0.179,0.264 0.931,-0.551 0.607,0.043 1.57,0.251 3.138,1.211 5.883,0.996 0.778,0.531 2.346,-0.525 1.96,0.04 0.939,-0.528 3.741,1.316 1.856,0.094 2.501,0.852 1.7,0.017 0.522,-0.267 0.3,0.507 -0.283,-0.302 -0.183,0.305 0.027,-0.803 0.003,0.568 0.228,-0.004 -0.207,-0.55 0.299,0.294 -0.079,-0.239 -0.292,0.44 0.049,-0.284 2.529,-3.803 7.189,-7.478 3.45,-2.47 2.633,0.09 1.506,1.248 1.488,2.975 1.145,4.326 1.154,6.984 3.549,9.835 2.98,5.469 0.246,0.252 0.864,-0.12 0.107,0.426 0.647,0.071 2.192,-3.274 5.073,-10.385 11.943,-21.111 3.069,-3.646 3.017,-1.658 0.534,-0.125 0.859,0.985 1.163,5.578 -0.117,10.8 0.409,2.26 0.605,0.823 0.417,-0.131 2.55,-3.342 3.729,-6.788 2.974,-6.245 5.055,-7.391 2.452,-1.965 0.839,-0.306 0.94,0.177 0.983,3.366 1.276,2.498 0.547,2.65 0.435,0.376 0.216,1.134 1.22,1.932 1.383,0.845 0.724,1.163 3.49,1.289 4.677,0.797 4.852,0.156 4.47,-0.592 1.235,0.156 2.736,-0.634 1.306,0.191 3.295,-1.015 1.347,-1.011 0.685,0.222 2.047,-0.558 1.229,-0.782 3.676,-0.383 0.765,0.186 4.562,-1.117 5.591,-0.225 6.699,1.144 3.6,-0.155 5.068,-1.002 1.123,0.216 2.701,-1.277 1.381,-1.608 -1.192,-1.053 -1.741,-0.415"
       id="path5685" />
  </g>
  <g
     id="g5691"
     transform="translate(-73.215436,-265.094)">
    <path
       fill="none"
       stroke="#000000"
       stroke-width="2"
       stroke-linecap="round"
       stroke-linejoin="round"
       d="m 347.303,645.607 0.563,0.381 0.107,0.564 -0.757,0.568 -0.479,-0.323 -0.895,0.462 -0.342,-0.283 -0.438,0.68 -0.691,-4.009 -1.318,-4.529 -0.73,-5.168 0.899,-12.513 1.46,-5.714 2.388,-7.198 2.505,-5.653 5.181,-6.332 3.754,-1.946 1.703,0.059 0.699,0.797 0.517,0.236 0.409,-0.189 1.293,0.581 2.64,2.884 0.542,0.125 1.46,4.39 0.109,1.8 -0.532,3.104 -1.402,4.277 -2.564,3.505 -0.74,0.272 -1.581,1.686 -2.063,1.164 -0.928,0.877 -0.298,-0.261 -0.901,0.201 -0.334,-0.632 -0.989,0.816 0.957,4.719 2.175,4.478 1.259,1.864 3.175,3.693 5.207,4.451 4.87,1.966 3.088,0.599 3.096,-0.421 3.475,-1.388 4.13,-3.836 2.04,-3.178"
       id="path5689" />
  </g>
  <g
     id="g5695"
     transform="translate(-73.215436,-265.094)">
    <path
       fill="#000000"
       d="m 469.471,523.961 c 0,0 0,0 0,0 0.456,-0.143 1.308,0.046 1.366,-0.427 0.166,-1.36 -0.934,-2.662 -0.822,-4.027 0.277,-3.391 1.814,-6.615 1.971,-10.014 0.486,-10.486 1.813,-21.16 -0.047,-31.491 -0.395,-2.193 -4.173,-1.606 -6.111,-2.705 -3.784,-2.148 -7.397,-4.587 -11.011,-7.011 -0.275,-0.185 -0.605,-0.453 -0.613,-0.785 -0.007,-0.316 0.298,-0.606 0.579,-0.751 0.943,-0.489 1.97,-0.811 2.993,-1.101 5.519,-1.563 11.13,-2.803 16.623,-4.456 0.76,-0.229 1.461,-0.667 2.074,-1.172 0.887,-0.73 1.846,-1.476 2.378,-2.495 0.321,-0.615 0.24,-1.425 0.011,-2.08 -0.356,-1.019 -0.85,-2.091 -1.7,-2.756 -2.104,-1.646 -4.567,-2.782 -6.942,-4.003 -3.078,-1.582 -6.38,-2.716 -9.404,-4.399 -0.706,-0.392 -1.235,-1.076 -1.665,-1.76 -0.193,-0.305 -0.303,-0.763 -0.121,-1.074 0.412,-0.708 1.04,-1.318 1.751,-1.724 1.623,-0.926 3.485,-1.367 5.151,-2.214 3.456,-1.758 6.981,-3.43 10.2,-5.593 0.811,-0.545 1.857,-1.432 1.69,-2.395 -0.277,-1.603 -1.666,-2.83 -2.798,-3.999 -0.997,-1.03 -2.422,-1.556 -3.496,-2.506 -1.777,-1.573 -3.432,-3.283 -5.029,-5.038 -0.281,-0.31 -0.28,-0.819 -0.573,-1.119 -1.171,-1.201 -3.814,-1.66 -3.768,-3.337 0.129,-4.66 3.166,-8.793 4.228,-13.333 1.514,-6.472 2.757,-13.027 3.484,-19.633 0.477,-4.328 0.324,-8.711 0.115,-13.059 -0.035,-0.715 -0.693,-1.277 -0.837,-1.978 -0.169,-0.825 -0.722,-1.972 -0.087,-2.524 1.682,-1.46 4.162,-1.626 6.111,-2.705 2.109,-1.168 4.218,-2.408 6.018,-4.012 1.142,-1.018 2.116,-2.306 2.672,-3.731 0.377,-0.965 0.406,-2.155 0,-3.108 -1.163,-2.73 -2.898,-5.189 -4.577,-7.636 -0.56,-0.816 -1.288,-1.534 -2.101,-2.099 -1.451,-1.006 -3.033,-1.819 -4.63,-2.573 -0.319,-0.151 -0.708,-0.182 -1.053,-0.109 -2.388,0.507 -4.844,0.88 -7.09,1.837 -3.028,1.291 -5.912,2.952 -8.601,4.851 -0.532,0.376 -0.719,1.139 -0.795,1.786 -0.194,1.652 -0.346,3.363 -10e-4,4.991 0.563,2.652 1.621,5.184 2.688,7.676 0.196,0.458 0.6,0.851 1.052,1.061 2.344,1.092 5.311,1.071 7.237,2.797 1.447,1.297 1.774,3.548 1.995,5.478 0.454,3.97 0.37,8.009 0,11.987 -0.49,5.27 -1.498,10.485 -2.571,15.667 -0.759,3.666 -1.834,7.263 -2.919,10.846 -0.638,2.109 -1.344,4.205 -2.245,6.215 -0.232,0.519 -0.829,0.798 -1.116,1.288 -0.105,0.179 -0.16,0.489 0,0.622 1.587,1.321 3.553,2.166 5.055,3.584 1.482,1.399 2.366,3.344 3.808,4.783 1.52,1.516 3.518,2.5 5.025,4.03 0.814,0.825 1.323,1.912 1.848,2.945 0.101,0.199 0.181,0.555 -0.011,0.667 -4.675,2.739 -9.454,5.307 -14.304,7.722 -0.513,0.255 -1.306,-0.171 -1.7,0.244 -1.176,1.238 -2.668,2.659 -2.679,4.366 -0.008,1.284 1.656,1.979 2.633,2.813 0.917,0.783 1.924,1.484 3.012,2.006 3.382,1.626 7.033,2.671 10.355,4.416 1.597,0.839 3.045,1.989 4.3,3.286 0.365,0.377 0.558,1.045 0.365,1.534 -0.296,0.753 -1.021,1.275 -1.664,1.765 -0.601,0.458 -1.293,0.815 -2.015,1.038 -5.994,1.849 -12.156,3.148 -18.095,5.166 -1.778,0.604 -5.699,0.939 -4.963,2.666 1.392,3.265 5.723,4.209 8.71,6.125 3.613,2.318 9.811,2.468 11.077,6.57 2.913,9.44 0.561,19.769 0.094,29.636 -0.161,3.398 -1.457,6.651 -1.971,10.014 -0.102,0.667 -0.038,1.367 0.132,2.019 0.1,0.378 0.642,0.583 0.652,0.974 0.011,0.39 -0.762,0.651 -0.599,1.005 m 3.374,-163.655 c 0,0 0,0 0,0 -0.849,0.033 -1.966,0.717 -2.549,0.098 -1.202,-1.278 -0.257,-4.455 -1.957,-4.887 -1.466,-0.372 -1.292,2.93 -2.571,3.736 -0.517,0.327 -1.127,-0.709 -1.296,-1.296 -0.108,-0.374 0.593,-0.588 0.642,-0.974 0.059,-0.472 0.105,-1.535 -0.346,-1.384 -1.08,0.361 -1.547,1.701 -2.495,2.333 -0.278,0.186 -0.82,0.28 -1.003,0 -1.199,-1.834 -2.094,-3.866 -2.865,-5.917 -0.242,-0.644 -0.135,-1.371 -0.133,-2.059 0.003,-1.342 -0.076,-2.7 0.148,-4.024 0.056,-0.331 0.393,-0.557 0.661,-0.759 0.947,-0.712 1.868,-1.509 2.962,-1.964 3.496,-1.452 6.981,-3.194 10.729,-3.724 1.338,-0.189 2.584,0.907 3.689,1.686 1.193,0.841 2.16,1.975 3.095,3.095 0.759,0.909 1.4,1.92 1.962,2.962 0.634,1.176 1.246,2.384 1.613,3.668 0.126,0.44 0.048,0.961 -0.173,1.362 -0.689,1.251 -1.379,2.593 -2.497,3.483"
       id="path5693" />
  </g>
  <g
     id="g5699"
     transform="translate(-73.215436,-265.094)">
    <path
       fill="none"
       stroke="#000000"
       stroke-width="2"
       stroke-linecap="round"
       stroke-linejoin="round"
       d="m 370.342,448.052 -0.652,0.477 -0.168,-0.264 0.426,-3.104 5.973,-6.787 4.534,-2.409 2.091,-0.438 2.945,0.366 0.904,1.194 0.427,1.749 -1.989,9.599 -3.08,6.989 -0.987,3.16 -3.24,7.809 -1.273,1.78 -0.666,0.232 -0.246,-0.242 0.078,-0.558 h 0.539 l 8.52,2.197 1.41,0.079 1.815,0.946 4.845,1.51 1.53,-0.369 1.601,-1.335"
       id="path5697" />
  </g>
  <g
     id="g5703"
     transform="translate(-73.215436,-265.094)">
    <path
       fill="none"
       stroke="#000000"
       stroke-width="2"
       stroke-linecap="round"
       stroke-linejoin="round"
       d="m 400.446,467.844 -0.139,-0.324 0.04,0.637 -0.432,0.284 -0.006,0.38 -1.724,-0.075 -0.553,-0.954 -0.361,-2.223 0.933,-9.711 1.884,-7.409 2.772,-7.111 3.571,-5.461 2.791,-2.295 2.721,-0.76 1.61,0.746 1.084,1.463 1.372,4.337 0.529,3.207 -0.048,1.744 -0.865,1.385 -0.337,-0.085 -0.465,1.068 -2.375,2.258 -4.728,2.645 -4.454,1.345 -0.566,-0.277 -0.222,0.644 0.194,1.13 0.484,0.027 7.914,7.543 5.656,4.68 2.195,1.372 2.355,1.995 1.919,1.124 0.819,0.154 1.386,1.131 1.331,-0.462 0.722,-3.598"
       id="path5701" />
  </g>
  <g
     id="g5707"
     transform="translate(-73.215436,-265.094)">
    <path
       fill="#000000"
       d="m 453.799,315.693 c 0,0 0,0 0,0 1.808,-0.814 3.74,-1.396 5.425,-2.443 1.025,-0.637 1.642,-1.782 2.586,-2.535 0.723,-0.577 1.653,-0.857 2.38,-1.43 0.776,-0.611 1.484,-1.319 2.095,-2.095 0.573,-0.727 0.821,-1.684 1.43,-2.38 1.737,-1.985 3.833,-3.635 5.57,-5.62 0.609,-0.696 0.832,-1.673 1.43,-2.38 0.822,-0.973 1.522,-2.489 2.79,-2.611 0.779,-0.074 0.544,1.518 0.479,2.297 -0.06,0.714 -0.7,1.275 -0.836,1.978 -0.192,0.99 -0.218,2.018 -0.132,3.022 0.041,0.489 0.232,0.975 0.507,1.381 0.083,0.123 0.404,0.173 0.447,0.03 1.107,-3.743 2.08,-7.529 2.899,-11.345 0.146,-0.681 0.132,-1.408 -0.017,-2.088 -0.083,-0.381 -0.651,-0.583 -0.651,-0.974 0,-0.391 0.569,-0.592 0.651,-0.974 0.144,-0.669 0.4,-1.498 -10e-4,-2.052 -1.562,-2.161 -3.435,-4.157 -5.605,-5.706 -1.347,-0.96 -3.077,-1.249 -4.686,-1.635 -0.686,-0.165 -1.448,-0.222 -2.118,0.001 -1.955,0.651 -3.944,1.374 -5.619,2.573 -1.959,1.402 -3.765,3.111 -5.111,5.109 -2.078,3.084 -3.608,6.521 -5.036,9.955 -1.439,3.459 -2.772,7.001 -3.544,10.668 -0.418,1.986 -0.662,4.175 0.017,6.087 0.523,1.475 2.029,2.435 3.322,3.316 m 1.073,-2.027 c 0,0 0,0 0,0 -0.798,-0.763 -2.052,-1.239 -2.395,-2.289 -0.527,-1.611 -0.434,-3.442 -0.015,-5.085 1.109,-4.347 2.892,-8.498 4.543,-12.67 0.546,-1.379 1.292,-2.674 2.037,-3.957 0.603,-1.041 1.217,-2.091 2.001,-3.004 1.26,-1.466 2.566,-2.925 4.101,-4.099 1.403,-1.072 2.981,-1.943 4.63,-2.573 0.658,-0.251 1.434,-0.193 2.112,-0.004 1.287,0.359 2.521,0.93 3.667,1.617 1.064,0.637 2.037,1.44 2.908,2.323 0.686,0.696 1.399,1.45 1.723,2.371 0.174,0.495 -0.127,1.06 -0.351,1.534 -0.157,0.33 -0.587,0.472 -0.755,0.797 -0.91,1.756 -1.237,3.844 -2.457,5.401 -2.422,3.092 -5.674,5.443 -8.316,8.351 -0.707,0.778 -1.008,1.863 -1.692,2.662 -1.256,1.466 -2.539,2.952 -4.095,4.095"
       id="path5705" />
  </g>
  <g
     id="g5711"
     transform="translate(-73.215436,-265.094)">
    <path
       fill="none"
       stroke="#000000"
       stroke-width="2"
       stroke-linecap="round"
       stroke-linejoin="round"
       d="m 466.637,525.61 -0.521,-0.034 -0.294,0.721 -0.303,-0.056 0.526,0.477 0.784,-0.374 1.612,0.449 3.811,-0.27 3.347,0.422 3.134,-0.113 4.565,0.622 1.494,-0.283 5.21,1.062 4.357,0.206 1.701,0.683 1.51,-0.194 10.306,1.645 2.95,0.172 2.169,0.011 5.98,-1.647 2.938,-1.656 1.941,-1.816 0.252,0.324 -0.233,1.287 -0.042,-0.239 -0.179,0.227 0.276,0.014 -0.399,-0.286 -1.959,1.033 -0.216,0.372 0.257,0.166 0.142,-1.446 0.157,0.553 -0.277,0.274 0.423,-0.295 -0.292,0.173 -0.214,-0.229 0.038,0.515 0.225,-0.384 -0.257,-0.862 0.239,0.338 -0.242,0.185 0.389,-0.573"
       id="path5709" />
  </g>
  <g
     id="g5715"
     transform="translate(-73.215436,-265.094)">
    <path
       fill="none"
       stroke="#000000"
       stroke-width="2"
       stroke-linecap="round"
       stroke-linejoin="round"
       d="m 527.78,526.86 -0.29,-0.221 0.348,-0.064 8.661,-13.167 0.618,-0.401 0.574,0.18 2.585,3.344 1.968,4.258 1.477,4.934 3.577,16.435 1.37,3.734 0.845,1.1 0.57,-2.987 1.476,-2.461 3.428,-7.489 6.814,-13.158 4.051,-6.045 1.483,-1.299 1.582,-0.78 0.478,0.821 3.225,19.674 1.561,0.536 0.376,-0.724 1.022,0.922 2.331,0.329 2.386,-1.282 1.633,-1.739 3.201,-6.196 5.203,-11.718 1.36,-2.463 0.62,-0.265 1.244,-1.726 0.751,-0.319 0.021,-0.511 0.08,0.642 -0.521,0.755 0.79,4.638 1.746,3.228 1.103,1.313 1.086,0.423 0.41,-0.271 0.682,1.007 0.683,-0.039 2.715,1.48 5.016,0.556 2.755,1.122 2.167,0.175 2.56,-0.396 6.004,-2.236 1.34,-0.095 5.917,-2.419 1.324,0.134 0.542,0.491 0.653,-0.151 0.5,0.354 2.005,0.021 -0.078,-0.225 -0.024,0.428 0.066,-0.743 -0.099,0.921 0.118,-1.008 -0.109,0.9 -0.135,-0.321 0.255,0.036 -0.064,-0.409 -0.01,1.049 -0.022,-1.33 -0.078,0.913 0.121,-0.783 0.014,0.58 1.804,-0.461 3.462,0.014 0.471,-0.29 1.446,0.896 0.104,0.419 0.157,-0.407 -0.078,0.213 -0.266,-0.221 0.377,-0.169 0.32,0.308 1.061,-0.052 1.306,-0.475 0.924,0.022 0.563,0.645 1.856,-2.092 0.129,0.215 1.041,-0.24 0.186,0.28 0.221,-0.531 0.416,0.556 0.197,-0.325 1.416,0.591 0.73,-0.659 0.348,0.322 0.098,-0.449 0.5,0.862 3.001,-0.151 0.275,-0.56 0.571,0.627 -0.016,0.582 -0.294,-0.666 0.16,-0.681 0.312,0.566 2.281,0.196 0.247,0.275 0.509,-0.358 -0.07,-0.264 0.103,0.627 0.685,-1.213 0.466,0.33 0.073,0.591 -0.206,-0.149 0.291,-0.961 0.402,-0.322"
       id="path5713" />
  </g>
  <g
     id="g5719"
     transform="translate(-73.215436,-265.094)">
    <path
       fill="#000000"
       d="m 663.495,517.843 c 0,0 0,0 0,0 0.241,-0.196 0.636,-0.29 0.724,-0.588 0.414,-1.387 0.61,-2.839 0.727,-4.282 1.09,-13.469 2.382,-26.933 2.895,-40.437 0.018,-0.477 -0.866,-0.553 -1.341,-0.504 -1.045,0.108 -1.958,0.857 -3.003,0.953 -2.011,0.185 -4.068,0.235 -6.056,-0.119 -1.314,-0.235 -2.52,-0.93 -3.666,-1.617 -1.064,-0.637 -2.037,-1.44 -2.908,-2.323 -0.688,-0.696 -1.266,-1.51 -1.729,-2.372 -0.167,-0.312 -0.157,-0.706 -0.108,-1.056 0.073,-0.512 0.197,-1.038 0.467,-1.479 0.229,-0.371 0.549,-0.785 0.977,-0.87 1.315,-0.265 2.69,-0.288 4.023,-0.134 0.709,0.082 1.262,0.795 1.976,0.828 0.708,0.032 1.318,-0.644 2.027,-0.642 0.391,10e-4 0.587,0.601 0.974,0.652 1.659,0.217 3.359,0.346 5.019,0.133 2.637,-0.338 5.226,-1.022 7.775,-1.774 0.287,-0.085 0.541,-0.392 0.573,-0.688 0.05,-0.481 -0.126,-0.98 -0.352,-1.407 -0.964,-1.822 -1.932,-3.666 -3.196,-5.294 -1.187,-1.529 -2.631,-2.851 -4.103,-4.108 -0.704,-0.601 -1.686,-0.818 -2.38,-1.43 -2.05,-1.806 -3.891,-3.838 -5.809,-5.785 -0.303,-0.307 -0.663,-0.586 -0.852,-0.974 -0.15,-0.309 -0.143,-0.681 -0.119,-1.024 0.031,-0.444 0.064,-0.916 0.282,-1.304 0.61,-1.087 1.088,-2.421 2.164,-3.049 0.887,-0.518 2.085,-0.26 3.083,-0.015 1.375,0.338 2.488,1.476 3.882,1.727 0.709,0.127 1.338,-0.656 2.059,-0.66 0.388,-0.002 0.602,0.524 0.971,0.642 0.344,0.109 0.756,0.164 1.084,0.013 1.048,-0.479 2.099,-1.041 2.922,-1.848 0.376,-0.37 0.629,-0.995 0.493,-1.505 -0.618,-2.318 -1.436,-4.627 -2.677,-6.68 -1.872,-3.098 -4.576,-5.624 -6.58,-8.638 -2.054,-3.087 -3.999,-6.271 -5.569,-9.63 -0.222,-0.475 0.118,-1.065 0.352,-1.534 0.806,-1.617 2.229,-2.943 2.742,-4.675 1.338,-4.513 2.254,-9.171 2.748,-13.853 0.387,-3.665 0.319,-7.395 -0.117,-11.055 -0.56,-4.711 -2.373,-9.225 -2.855,-13.945 -0.474,-4.638 -0.412,-9.342 0,-13.986 0.211,-2.387 1.496,-4.576 1.855,-6.946 0.302,-1.996 0.337,-4.05 0.116,-6.057 -0.082,-0.744 -0.459,-1.496 -1.005,-2.007 -0.376,-0.351 -1.097,-0.652 -1.505,-0.338 -1.065,0.818 -1.704,2.098 -2.331,3.286 -0.169,0.319 -0.187,0.789 0.023,1.083 0.203,0.283 0.679,0.488 0.991,0.334 0.656,-0.325 0.808,-1.439 1.526,-1.579 0.412,-0.08 0.286,0.803 0.301,1.222 0.047,1.352 0.122,2.725 -0.116,4.056 -0.423,2.359 -1.644,4.559 -1.855,6.946 -0.412,4.644 -0.474,9.348 0,13.986 0.482,4.72 2.295,9.234 2.855,13.945 0.436,3.66 0.506,7.391 0.117,11.055 -0.496,4.671 -1.512,9.291 -2.759,13.82 -0.268,0.973 -0.895,1.916 -1.729,2.485 -0.32,0.218 -0.587,-0.587 -0.971,-0.641 -0.464,-0.064 -1.134,-0.09 -1.369,0.315 -0.349,0.602 -0.302,1.449 -0.023,2.087 1.602,3.666 3.581,7.16 5.578,10.627 1.201,2.084 2.576,4.068 4.002,6.004 1.422,1.931 3.208,3.588 4.534,5.585 0.739,1.112 1.188,2.4 1.612,3.666 0.115,0.344 0.157,0.771 -0.02,1.088 -0.3,0.542 -0.705,1.198 -1.314,1.313 -0.692,0.131 -1.295,-0.682 -2,-0.685 -0.722,-0.002 -1.349,0.794 -2.061,0.672 -1.399,-0.24 -2.518,-1.403 -3.907,-1.695 -1.333,-0.28 -2.775,-0.356 -4.085,0.015 -0.76,0.214 -1.283,0.971 -1.724,1.626 -0.999,1.485 -2.596,2.936 -2.549,4.725 0.042,1.615 1.731,2.741 2.776,3.972 1.166,1.374 2.456,2.651 3.833,3.813 0.707,0.597 1.688,0.816 2.38,1.43 2.137,1.896 4.287,3.82 6.06,6.06 0.789,0.997 2.254,2.472 1.51,3.504 -1.079,1.497 -3.442,1.428 -5.266,1.707 -1.655,0.253 -3.36,0.084 -5.02,-0.133 -0.387,-0.051 -0.583,-0.642 -0.974,-0.652 -0.388,-0.011 -0.612,0.622 -1,0.598 -0.716,-0.044 -1.289,-0.717 -2.003,-0.784 -1.677,-0.157 -3.436,-0.353 -5.051,0.123 -1.292,0.381 -2.571,1.203 -3.297,2.338 -0.543,0.849 -0.211,2.016 -0.134,3.02 0.04,0.52 0.145,1.09 0.483,1.486 1.609,1.887 3.016,4.213 5.266,5.255 3.79,1.755 9.132,0.004 12.205,2.833 2.065,1.902 0.17,5.62 0.017,8.423 -0.515,9.482 -1.211,18.954 -2.021,28.416 -0.132,1.536 -0.967,3.023 -0.802,4.557"
       id="path5717" />
  </g>
  <g
     id="g5723"
     transform="translate(-73.215436,-265.094)">
    <path
       fill="none"
       stroke="#000000"
       stroke-width="2"
       stroke-linecap="round"
       stroke-linejoin="round"
       d="m 561.845,445.428 -1.545,-0.69 -0.48,-1.159 0.144,-1.73 1.025,-2.988 3.171,-4.126 5.005,-4.781 2.67,-1.437 2.04,-0.658 1.843,0.355 3.834,2.458 2.041,1.856 0.656,1.695 -0.473,3.771 -1.249,3.646 -1.584,2.644 -3.998,4.748 -7.884,7.418 -3.525,5.677 -0.456,1.466 0.102,0.879 0.887,1.821 1.738,1.16 1.073,0.589 2.777,0.649 6.456,-0.614 1.206,-0.636 2.523,-0.237 4.66,-1.249"
       id="path5721" />
  </g>
  <g
     id="g5727"
     transform="translate(-73.215436,-265.094)">
    <path
       fill="none"
       stroke="#000000"
       stroke-width="2"
       stroke-linecap="round"
       stroke-linejoin="round"
       d="m 593.565,466.934 -1.658,1.401 0.123,-1.16 -0.929,-3.79 -1.431,-11.226 0.224,-5.547 1.545,-4.628 4.075,-6.089 3.296,-3.264 3.601,-2.741 0.74,-0.251 2.63,0.252 3.264,1.566 3.806,4.073 1.473,3.016 -1.42,4.027 -4.577,5.103 -3.861,3.523 -3.668,2.22 -1.754,0.704 1.056,-0.317 3.173,4.992 6.223,3.599 1.372,0.425 4.572,2.41 2.275,0.701 5.77,0.732"
       id="path5725" />
  </g>
  <g
     id="g5731"
     transform="translate(-73.215436,-265.094)">
    <path
       fill="none"
       stroke="#000000"
       stroke-width="2"
       stroke-linecap="round"
       stroke-linejoin="round"
       d="m 663.949,282.996 -1.098,-2.076 -1.697,-1.961 -1.214,-0.874 -3.044,-0.638 -2.513,0.105 -4.131,1.456 -6.212,4.847 -4.143,4.855 -4.345,6.919 -1.581,4.053 -1.017,3.841 -0.514,3.961 0.526,1.698 0.616,0.22 0.734,0.074 3.187,-1.083 2.834,-1.231 2.823,-1.727 2.706,-2.999 10.958,-15.942 0.72,-1.586 -0.073,0.412 -0.698,0.432 -1.115,2.278 -1.977,8.53 -0.556,4.759 -0.327,8.556 0.759,3.589 0.718,1.127 1.632,0.817 0.989,0.293 1.571,-0.651 2.162,-2.341"
       id="path5729" />
  </g>
  <g
     id="g5735"
     transform="translate(-73.215436,-265.094)">
    <path
       fill="#000000"
       d="m 664.766,333.723 c 0,0 0,0 0,0 1.803,-0.81 3.659,-1.511 5.409,-2.431 0.302,-0.158 0.628,-0.43 0.676,-0.768 0.191,-1.346 0.449,-2.791 0.011,-4.078 -0.826,-2.429 -2.144,-4.709 -3.696,-6.753 -0.613,-0.807 -1.619,-1.355 -2.612,-1.555 -1.67,-0.337 -3.436,-0.312 -5.113,-0.004 -1.314,0.242 -2.525,0.927 -3.669,1.619 -1.45,0.879 -2.954,1.779 -4.061,3.063 -1.151,1.337 -1.846,3.018 -2.567,4.628 -0.152,0.339 -0.123,0.763 -0.004,1.116 0.425,1.265 0.939,2.512 1.611,3.665 0.301,0.518 0.762,0.954 1.267,1.277 0.439,0.281 0.965,0.474 1.486,0.483 m 11.07,-2.136 c 0,0 0,0 0,0 -1.026,-0.277 -2.025,-0.688 -3.078,-0.833 -0.669,-0.092 -1.368,-0.039 -2.022,0.131 -0.38,0.1 -0.63,0.832 -0.98,0.653 -0.406,-0.208 -0.397,-0.875 -0.337,-1.327 0.052,-0.387 0.817,-0.629 0.643,-0.979 -0.213,-0.429 -0.957,-0.729 -1.36,-0.468 -1.049,0.679 -1.367,2.168 -2.385,2.893 -0.43,0.306 -1.182,0.274 -1.582,-0.07 -1.019,-0.877 -1.701,-2.104 -2.329,-3.293 -0.173,-0.328 -0.144,-0.77 0,-1.112 0.395,-0.943 0.944,-1.826 1.571,-2.634 0.607,-0.782 1.288,-1.534 2.101,-2.099 1.451,-1.007 2.923,-2.123 4.63,-2.573 1.637,-0.432 3.436,-0.394 5.08,0.011 0.788,0.194 1.386,0.958 1.767,1.674 1.127,2.118 2.141,4.342 2.677,6.68 0.141,0.616 -0.242,1.361 -0.745,1.744"
       id="path5733" />
  </g>
  <g
     id="g5739"
     transform="translate(-73.215436,-265.094)">
    <path
       fill="none"
       stroke="#000000"
       stroke-width="2"
       stroke-linecap="round"
       stroke-linejoin="round"
       d="m 656.506,528.11 0.601,0.037 -0.311,-0.543 -0.147,0.304 -0.782,0.024 -0.5,-0.551 0.018,-1.853 0.985,-1.773 1.768,-1.349 1.184,-0.338 0.589,0.387 0.796,-0.235 1.829,1.248 0.496,0.03 2.229,3.335 0.169,0.686 -0.251,-0.139 -3.057,2.313 -6.385,1.909 -1.724,-0.321 -1.105,-0.66 -1.786,-2.245 0.265,-2.282 1.841,-2.299 3.105,-1.901 2.715,-0.499 5.296,0.793 2.352,0.924 1.199,1.147 0.142,-0.486 -0.006,0.717 -0.682,1.109 -2.925,2.327 -2.816,1.396 -2.35,-0.18 -1.231,-0.729 -1.313,-1.731 -0.03,-2.567 1.569,-3.27 4.436,-3.575 0.685,0.055 2.086,-0.687 1.545,0.826 1.546,2.183 0.109,0.869 -0.31,-1.748 -0.127,0.767"
       id="path5737" />
  </g>
  <g
     id="g5743"
     transform="translate(-73.215436,-265.094)">
    <path
       fill="none"
       stroke="#000000"
       stroke-width="2"
       stroke-linecap="round"
       stroke-linejoin="round"
       d="m 716.744,525.342 -0.308,0.536 0.319,-0.848 0.054,0.559 -0.192,-0.107 0.669,0.853"
       id="path5741" />
  </g>
  <g
     id="g5747"
     transform="translate(-73.215436,-265.094)">
    <path
       fill="none"
       stroke="#000000"
       stroke-width="2"
       stroke-linecap="round"
       stroke-linejoin="round"
       d="m 745.382,525.342 -0.416,-0.004 -0.115,0.479 0.382,-0.201 0.112,-0.548 -0.124,0.509 0.889,0.76 0.134,-0.344 1.587,-0.771 0.767,0.263"
       id="path5745" />
  </g>
  <g
     id="g5751"
     transform="translate(-73.215436,-265.094)">
    <path
       fill="none"
       stroke="#000000"
       stroke-width="2"
       stroke-linecap="round"
       stroke-linejoin="round"
       d="m 711.373,529.022 -0.203,-1.012 2.501,-2.552 0.281,0.101 -0.198,0.228 0.412,2.095 -0.091,-0.802 -0.106,0.267 -0.6,-0.319 -0.193,0.209 -0.086,-1.595 2.133,-3.166 1.169,-1.017 0.505,0.303 0.74,1.789 -0.048,2.425 -0.313,0.817 -2.462,0.104 -0.371,-0.438 -0.589,0.383 -0.333,-0.211 -0.076,0.388 0.337,-1.208 0.034,0.677 1.609,-0.263"
       id="path5749" />
  </g>
  <g
     id="g5755"
     transform="translate(-73.215436,-265.094)">
    <path
       fill="none"
       stroke="#000000"
       stroke-width="2"
       stroke-linecap="round"
       stroke-linejoin="round"
       d="m 745.286,524.36 0.273,1.062 -0.752,1.558 -2.973,1.017 -3.354,1.677 -0.983,-0.075 -0.749,-0.375 -0.201,-0.486 0.535,-1.329 2.862,-1.775 2.167,-0.635 1.134,0.281 0.179,1.012 -1.635,1.078 -0.601,0.97 -0.207,-0.725 -0.558,0.212 0.218,-0.517 2.902,-2.787 1.224,0.41 1.055,-0.154 0.355,0.476 0.248,-0.372 -0.455,-0.063 -0.333,0.598 -1.436,1.058 -1.448,2.287 0.419,-0.339 0.938,0.395 1.768,-1.271"
       id="path5753" />
  </g>
  <g
     id="g5759"
     transform="translate(-73.215436,-265.094)">
    <path
       fill="none"
       stroke="#000000"
       stroke-width="2"
       stroke-linecap="round"
       stroke-linejoin="round"
       d="m 774.936,525.437 4.507,-2.313 -1.989,0.387 -0.745,-0.451 -0.95,0.377 -2.129,0.076 -3.757,1.277 -3.22,0.099 0.45,-0.612 2.267,-0.501 1.202,-0.747 4.314,-1.46 2.128,0.517 0.803,0.746 0.574,1.67 -1.644,2.034 -3.522,2.398 -0.853,0.049 -1.167,0.859 -0.648,-0.458 -0.066,0.271 0.061,-1.093 2.588,-2.142"
       id="path5757" />
  </g>
  <g
     id="g5763"
     transform="translate(-73.215436,-265.094)">
    <path
       fill="none"
       stroke="#000000"
       stroke-width="2"
       stroke-linecap="round"
       stroke-linejoin="round"
       d="m 841.522,523.378 0.611,0.307 0.967,-0.056 0.161,-0.26 0.273,0.301 0.172,-0.374 -0.132,2.469 -1.908,3.256 -1.329,1.06 0.512,-4.208 0.952,-2.2 2.356,-1.845 1.487,0.109 0.66,0.365 0.459,0.336 0.454,1.167 0.247,1.424 -0.325,1.246 -2.278,3.368 -1.224,0.816 -0.261,-0.246 0.275,-0.808 -0.353,-2.381 1.478,-3.249 1.643,-2.036 0.328,-0.923 1.385,-0.169 1.38,0.864 0.782,1.344 -0.141,0.936 -2.153,4.162 -0.431,0.514 -1.287,-0.047 -0.818,-1.001 -0.329,-1.346 0.622,-3.958"
       id="path5761" />
  </g>
  <g
     id="g5767"
     transform="translate(-73.215436,-265.094)">
    <path
       fill="none"
       stroke="#000000"
       stroke-width="2"
       stroke-linecap="round"
       stroke-linejoin="round"
       d="m 468.358,529.538 0.693,0.447 0.2,-0.229 -1.937,1.899 1.321,-2.413 0.135,0.348 -0.662,-1.16 0.554,-0.165 0.486,-0.917 1.943,-1.65 0.86,-0.301 0.71,0.242 -0.147,0.652 -0.275,-0.039 -0.277,1.486 -1.113,0.478 -0.702,0.878 -0.304,-0.073 -1.131,1.352 -0.995,-0.011 -0.891,-1.122 -0.911,-2.083 -0.255,-2.595 1.091,-0.901 0.531,0.078 1.573,-1.389 0.741,0.138 0.938,-0.447 0.323,-0.541 1.064,0.549 0.295,1.075 -1.162,1.397 -0.526,0.077 -1.851,2.192 -0.414,0.954 -0.498,-0.096 -1.67,0.58 -0.276,-0.22 0.477,-0.411 0.683,-2.563 0.33,-0.298 0.548,-3.246 0.971,1.153 1.045,0.649 0.42,0.76 0.513,0.17 0.613,0.995 -0.227,1.768 -1.34,1.039 -2.109,0.481 -1.417,-0.38 -0.763,-0.543 -2.119,-0.246 -0.796,-0.608 -1.359,-0.132 -0.965,-0.824 0.113,-0.543 0.617,0.49 1.699,0.199"
       id="path5765" />
  </g>
  <g
     id="g5771"
     transform="translate(-73.215436,-265.094)">
    <path
       fill="none"
       stroke="#000000"
       stroke-width="2"
       stroke-linecap="round"
       stroke-linejoin="round"
       d="m 275.858,536.413 0.473,-0.027 -0.153,0.788 1.191,1.987 -0.384,-0.284 0.158,-0.221 -0.283,0.211 -0.667,-0.276 -1.515,-1.515 0.24,-1.539 0.258,0.031 1.362,-1.59 1.537,-0.027 1.669,0.732 0.954,-0.143 -0.684,0.41 -0.895,3.043 -1.282,2.204 -1.878,1.246 0.335,-1.899 1.695,-4.817 2.869,-4.993 3.183,-2.61 1.585,0.348 0.863,1.038 0.558,1.767 -0.566,2.564 -2.06,3.967 -3.304,3.634 -2.191,0.77 -0.726,0.054 -0.232,-0.429 -0.721,0.237 1.751,0.348 2.607,-0.7 0.216,0.338 -0.028,-0.243 -0.509,-0.44 -0.385,0.41 -0.25,5.77 0.49,0.416 -0.152,0.465 0.505,-0.33 -0.05,-0.464 1.08,-0.488 0.929,-1.418"
       id="path5769" />
  </g>
  <g
     id="g5775"
     transform="translate(-73.215436,-265.094)">
    <path
       fill="none"
       stroke="#000000"
       stroke-width="2"
       stroke-linecap="round"
       stroke-linejoin="round"
       d="m 841.411,522.886 0.027,-0.255 0.137,0.408 0.292,-0.653 -0.173,-0.253 -1.333,1.103 -0.161,-1.346 0.42,-0.114 1.03,-2.279 1.629,-7.127 0.739,-5.867 0.184,-4.2 0.847,-3.088 1.156,-1.458 0.606,-2.429 0.816,-1.448 1.823,-8.249 -0.238,0.003 -0.378,1.245 -0.106,-0.37 -1.831,-0.031 -1.271,-0.62 -0.489,0.162 -1.765,-1.205 -3.106,-1.384 -1.174,-0.999 -2.601,-1.094 -4.28,-3.828 -1.851,-2.254 -1.088,-1.769 -0.069,-1.156 1.515,0.882 2.928,0.467 3.18,1.035 5.062,-0.098 3.831,-0.395 0.701,-0.573 1.479,-0.266 3.6,-1.639 4.108,-3.69 1.584,-2.292 1.206,-2.809 -0.025,-2.21 -1.357,-2.244 -3.829,-2.867 -3.492,-1.431 -5.098,-1.225 -1.147,0.05 -0.297,0.357 -0.425,-0.143 -0.585,-1.956 0.321,-0.369 0.964,0.454 0.784,-0.322 3.487,0.43 4.551,-0.142 2.92,-0.565 1.601,-0.633 1.07,-0.603 1.983,-2.263 1.705,-3.72 -0.116,-1.032 -0.704,-1.13 -2.735,-2.198 -7.313,-0.917 -1.77,0.501 -0.735,-0.345 -4.675,-0.17 -2.278,-0.612 -3.148,-2.485 -1.235,-2.664 1.073,-3.297 -0.004,-1.663 0.122,0.433 0.211,-1.168 2.212,-1.979 4.898,-2.204 1.408,-0.454 0.719,0.257 1.896,-1.477 0.815,-0.274 0.924,-1.363 0.199,0.137 0.541,-0.59 0.338,-1.203 -0.416,-3.635 -1.369,-2.181 -0.818,-0.728 -0.387,-1.197 0.115,-4.567 1.716,-11.158 0.012,-5.318 -1.612,-8.227 -0.679,-6.44 0.196,-4.032 0.161,-0.349 0.063,0.86 -0.249,-0.418 0.123,-1.004 0.228,0.478 -0.271,0.58 0.075,-1.806 -0.433,-1.634 -0.061,-6.111 0.162,-4.753 0.22,-1.364 0.211,0.495 -0.313,-0.299 -0.212,-5.426 -0.347,-1.3 0.467,-1.476 0.27,0.387 0.251,-1.068 0.287,-5.508 -0.319,-0.357 -0.049,1.361 -0.034,-1.137 -1.528,1.166"
       id="path5773" />
  </g>
  <g
     id="g5779"
     transform="translate(-73.215436,-265.094)">
    <path
       fill="none"
       stroke="#000000"
       stroke-width="2"
       stroke-linecap="round"
       stroke-linejoin="round"
       d="m 757.189,452.781 -2.312,-3.36 4.322,-4.241 5.356,-3.804 2.396,-0.747 3.563,-0.561 6.03,0.78 1.171,0.803 0.595,0.866 -0.341,2.197 -1.492,4.184 -0.724,1.161 -0.805,0.753 -7.228,10.191 -7.769,8.242 -2.263,1.898 1.453,-1.39 2.655,0.11 0.833,-0.255 2.851,0.445 15.8,5.472"
       id="path5777" />
  </g>
  <g
     id="g5783"
     transform="translate(-73.215436,-265.094)">
    <path
       fill="none"
       stroke="#000000"
       stroke-width="2"
       stroke-linecap="round"
       stroke-linejoin="round"
       d="m 793.201,473.29 -0.865,0.153 0.386,-0.548 -0.259,-3.372 -3.179,-10.793 0.097,-3.36 0.912,-2.772 2.104,-3.512 5.689,-5.248 7.114,-4.43 3.536,-0.402 2.504,1.594 1.926,2.627 1.371,3.853 0.17,1.353 -0.288,1.943 -2.788,1.868 -2.502,0.97 -0.973,0.89 -6.54,1.478 -1.11,-0.39 -1.101,0.414 -2.965,0.206 -0.388,0.666 0.436,-0.088 0.268,0.398 1.866,5.174 5.033,5.334 4.991,2.144 2.928,0.551 1.149,-0.091 2.555,0.851 2.024,0.084"
       id="path5781" />
  </g>
  <g
     id="g5787"
     transform="translate(-73.215436,-265.094)">
    <path
       fill="#000000"
       d="m 844.497,336.878 c 0,0 0,0 0,0 1.244,-0.544 2.54,-0.982 3.731,-1.632 1.089,-0.594 2.283,-1.135 3.082,-2.084 1.131,-1.343 2,-2.941 2.552,-4.608 0.326,-0.985 0.264,-2.108 0.004,-3.113 -0.598,-2.302 -1.588,-4.489 -2.541,-6.668 -0.617,-1.411 -1.063,-3.005 -2.163,-4.082 -1.254,-1.229 -2.892,-2.179 -4.608,-2.553 -2.315,-0.505 -4.794,-0.508 -7.108,0 -1.725,0.378 -3.144,1.619 -4.63,2.573 -0.44,0.283 -0.858,0.653 -1.109,1.112 -0.989,1.807 -2.132,3.606 -2.573,5.618 -0.436,1.992 -0.332,4.106 0,6.118 0.218,1.317 0.899,2.54 1.617,3.666 0.504,0.793 1.145,1.585 1.99,1.996 1.802,0.877 3.897,0.994 5.746,1.767 1.077,0.451 1.845,1.524 2.959,1.874 m 3.128,-2.012 c 0,0 0,0 0,0 -1.04,10e-4 -2.322,0.669 -3.121,0.003 -0.513,-0.427 0.926,-0.977 1.254,-1.557 0.059,-0.104 -0.108,-0.231 -0.213,-0.286 -1.227,-0.641 -3.138,-0.544 -3.752,-1.786 -1.336,-2.703 -0.58,-6.054 -1.537,-8.913 -0.166,-0.497 -0.807,0.702 -1.056,1.163 -0.166,0.304 -0.126,0.683 -0.134,1.03 -0.037,1.663 -0.185,3.339 0,4.992 0.08,0.715 0.633,1.307 0.785,2.01 0.031,0.14 -0.133,0.313 -0.276,0.332 -0.882,0.115 -1.972,0.607 -2.668,0.054 -1.335,-1.062 -2.288,-2.687 -2.718,-4.338 -0.514,-1.972 -0.335,-4.102 -0.004,-6.113 0.218,-1.317 0.895,-2.542 1.617,-3.666 0.524,-0.817 1.291,-1.465 2.059,-2.06 0.809,-0.627 1.628,-1.395 2.636,-1.577 2.004,-0.362 4.127,-0.472 6.108,0 1.708,0.407 3.568,1.139 4.608,2.553 1.876,2.552 2.761,5.727 3.704,8.75 0.309,0.991 0.271,2.113 -0.004,3.113 -0.271,0.987 -0.98,1.804 -1.577,2.636 -0.302,0.421 -0.665,0.819 -1.101,1.099"
       id="path5785" />
  </g>
  <g
     id="g5791"
     transform="translate(-73.215436,-265.094)">
    <path
       fill="none"
       stroke="#000000"
       stroke-width="2"
       stroke-linecap="round"
       stroke-linejoin="round"
       d="m 841.009,267.194 -1.683,-0.616 -0.095,-0.295 -1.323,0.475 -0.27,0.42 -1.92,-1.084 -3.027,0.245 -2.849,0.943 -4.052,2.59 -3.992,3.106 -1.578,1.948 -6.178,5.99 -2.189,3.589 -0.406,1.524 v 1.821 l 0.746,1.433 1.218,0.974 1.145,0.673 2.567,0.541 3.239,-0.255 4.884,-2.019 3.86,-2.575 2.757,-2.264 3.65,-3.463 5.726,-6.273"
       id="path5789" />
  </g>
  <g
     id="g5795"
     transform="translate(-73.215436,-265.094)">
    <path
       fill="none"
       stroke="#000000"
       stroke-width="2"
       stroke-linecap="round"
       stroke-linejoin="round"
       d="m 843.07,269.88 -1.68,4.983 -0.754,3.721 -0.212,4.531 0.563,3.03 1.279,1.374 2.039,-0.477"
       id="path5793" />
  </g>
  <g
     id="g5799"
     transform="translate(-73.215436,-265.094)">
    <path
       fill="#000000"
       d="m 846.828,528.552 c 0,0 0,0 0,0 0.067,-0.5 -0.278,-1.343 0.201,-1.502 4.37,-1.445 8.918,-2.369 13.474,-3.02 0.703,-0.101 1.26,0.814 1.97,0.813 1.369,-0.004 2.654,-0.827 4.023,-0.827 1.048,0 1.985,0.785 3.031,0.827 0.401,0.016 0.617,-0.778 1.001,-0.665 2.078,0.608 3.838,2.07 5.913,2.688 0.996,0.296 2.115,0.273 3.118,0 2.648,-0.723 5.076,-2.111 7.69,-2.95 2.516,-0.808 5.304,-0.819 7.676,-1.984 0.48,-0.236 -0.685,-0.878 -0.777,-1.406 -0.178,-1.011 -0.357,-2.114 -0.01,-3.08 1.2,-3.342 2.936,-6.47 4.571,-9.622 0.156,-0.303 0.456,-0.535 0.767,-0.675 0.315,-0.142 0.682,-0.133 1.028,-0.133 0.675,0 1.458,-0.238 2.022,0.133 1.464,0.961 2.801,2.203 3.762,3.667 2.798,4.26 4.646,9.094 7.425,13.367 0.357,0.548 1.139,0.746 1.79,0.802 2.001,0.171 4.089,0.406 6.023,-0.134 1.437,-0.4 2.505,-1.628 3.664,-2.566 0.768,-0.621 1.502,-1.306 2.095,-2.095 1.434,-1.907 2.751,-3.907 3.962,-5.963 1.129,-1.915 1.229,-7.212 3.047,-5.933 3.561,2.504 3.133,8.175 5.413,11.883 1.165,1.896 2.93,3.417 4.767,4.674 0.572,0.392 1.437,0.271 2.08,0.011 1.755,-0.709 3.471,-1.617 4.917,-2.838 0.998,-0.844 1.412,-2.206 2.244,-3.214 0.779,-0.944 1.836,-1.641 2.57,-2.62 1.276,-1.701 1.966,-3.837 3.43,-5.38 3.322,-3.502 6.114,-8.528 10.813,-9.633 2.986,-0.702 4.812,3.856 7.504,5.326 2.649,1.447 5.447,2.774 8.407,3.365 2.961,0.59 6.045,0.326 9.057,0.117 1.048,-0.073 1.954,-1.03 3.001,-0.955 3.713,0.266 7.293,1.695 11.013,1.956 5.65,0.398 11.33,0.053 16.99,0.013 0.68,-0.005 1.37,0.012 2.03,-0.147 0.69,-0.168 1.26,-0.812 1.97,-0.821 0.72,-0.009 1.31,0.92 2.01,0.769 0.45,-0.096 0.45,-0.84 0.46,-1.3 0,-0.471 -0.11,-1.008 -0.44,-1.343 -0.25,-0.246 -0.69,-0.139 -1.03,-0.14 -0.68,-0.002 -1.37,-0.028 -2.03,0.131 -0.69,0.168 -1.26,0.803 -1.97,0.837 -5.33,0.252 -10.68,0.373 -16,0.014 -4.37,-0.295 -8.63,-1.692 -13.003,-1.969 -1.048,-0.067 -1.954,0.875 -3.001,0.955 -2.678,0.203 -5.41,0.337 -8.057,-0.116 -2.637,-0.452 -5.294,-1.218 -7.604,-2.568 -3.91,-2.284 -6.492,-6.902 -10.83,-8.202 -1.529,-0.458 -0.92,3.166 -1.974,4.365 -2.449,2.786 -5.885,4.587 -8.339,7.37 -2.499,2.835 -4.114,6.351 -6.407,9.356 -0.885,1.16 -1.964,2.173 -3.095,3.095 -0.794,0.647 -1.664,1.254 -2.636,1.577 -0.657,0.218 -1.526,0.407 -2.078,-0.011 -1.218,-0.926 -2.075,-2.298 -2.762,-3.665 -2.471,-4.916 -4.154,-10.205 -6.668,-15.099 -0.165,-0.323 -0.895,-0.311 -1.087,-0.003 -1.753,2.809 -2.87,5.972 -4.453,8.881 -0.978,1.797 -1.984,3.595 -3.221,5.225 -0.882,1.162 -1.964,2.173 -3.095,3.095 -0.794,0.647 -1.674,1.226 -2.636,1.577 -0.644,0.236 -1.369,0.184 -2.054,0.137 -1.179,-0.082 -2.774,0.405 -3.507,-0.522 -3.244,-4.103 -4.877,-9.269 -7.708,-13.667 -0.781,-1.213 -1.871,-2.243 -3.06,-3.059 -1.112,-0.764 -2.37,-1.612 -3.718,-1.594 -1.094,0.015 -2.253,0.744 -2.817,1.681 -2.701,4.49 -3.943,9.77 -6.739,14.202 -0.644,1.021 -2.118,1.173 -3.24,1.618 -3.036,1.205 -6.075,2.433 -9.217,3.327 -0.658,0.187 -1.403,0.105 -2.048,-0.123 -2.041,-0.722 -3.833,-2.085 -5.912,-2.691 -0.387,-0.113 -0.623,0.547 -1.007,0.672 -0.334,0.109 -0.715,0.092 -1.054,0 -0.689,-0.189 -1.269,-0.729 -1.976,-0.828 -0.999,-0.139 -2.033,-0.062 -3.023,0.132 -0.383,0.076 -0.583,0.652 -0.974,0.652 -0.391,0 -0.588,-0.588 -0.974,-0.651 -1.015,-0.167 -2.074,-0.196 -3.088,-0.017 -4.504,0.799 -9.284,0.954 -13.406,2.939 -1.039,0.5 -0.403,2.433 0.126,3.458"
       id="path5797" />
  </g>
  <g
     id="g5803"
     transform="translate(-73.215436,-265.094)">
    <path
       fill="none"
       stroke="#000000"
       stroke-width="2"
       stroke-linecap="round"
       stroke-linejoin="round"
       d="m 915.53,574.716 -0.963,0.584 -0.326,-0.638 0.139,-4.364 -0.367,-6.562 1.201,-6.358 2.196,-6.458 2.271,-4.719 2.762,-3.725 1.448,-1.45 5.783,-3.521 1.817,0.799 0.923,-0.036 3.33,5.237 4.765,6.474 0.918,1.904 -0.163,0.64 -1.027,0.458 -0.268,0.747 -3.554,2.405 -1.445,0.311 -2.689,1.495 -0.998,-0.06 -2.004,1.152 -1.332,0.333 -0.077,0.297 0.866,0.368 1.082,1.176 1.08,2.485 3.903,3.65 9.009,3.41 11.564,3.682 2.25,-1.73"
       id="path5801" />
  </g>
  <g
     id="g5807"
     transform="translate(-73.215436,-265.094)">
    <path
       fill="#000000"
       d="m 1039.95,516.521 c 0,0 0,0 0,0 0.26,-0.274 0.88,-0.462 0.77,-0.821 -0.19,-0.64 -1.46,-0.735 -1.43,-1.403 0.03,-0.787 1.26,-1.042 1.56,-1.771 0.26,-0.642 0.23,-1.421 0.01,-2.08 -0.31,-0.962 -0.85,-1.886 -1.55,-2.612 -0.71,-0.721 -2.25,-0.649 -2.56,-1.606 -1.45,-4.41 -1.53,-9.157 -2.46,-13.704 -0.28,-1.348 -0.9,-2.611 -1.16,-3.964 -0.13,-0.683 -0.14,-1.409 0.02,-2.086 0.09,-0.381 0.56,-0.577 0.69,-0.947 0.12,-0.331 0.24,-0.799 0,-1.052 -1.04,-1.083 -2.22,-2.113 -3.59,-2.704 -2.77,-1.189 -5.84,-1.538 -8.67,-2.561 -1.33,-0.478 -2.56,-1.193 -3.76,-1.924 -0.29,-0.174 -0.61,-0.429 -0.66,-0.761 -0.07,-0.51 0.02,-1.099 0.34,-1.506 0.84,-1.086 1.8,-2.159 3,-2.818 0.34,-0.187 0.6,0.522 0.97,0.641 0.35,0.112 0.73,0.081 1.09,0.024 3.15,-0.498 6.31,-0.959 9.42,-1.687 3.53,-0.828 7.04,-1.795 10.46,-2.976 1.33,-0.456 2.7,-0.984 3.74,-1.915 1.15,-1.018 2.66,-2.229 2.64,-3.76 -0.01,-1.201 -1.51,-2.155 -2.69,-2.392 -8.25,-1.66 -16.87,-1.195 -25.05,-3.19 -1.01,-0.247 1.15,-1.773 1.94,-2.448 0.39,-0.336 0.96,-0.434 1.48,-0.468 0.44,-0.029 0.9,0.093 1.31,0.285 1.59,0.758 2.92,2.14 4.64,2.547 1.98,0.471 4.1,0.335 6.11,0.004 1.32,-0.218 2.57,-0.858 3.67,-1.617 1.03,-0.715 1.88,-1.705 2.62,-2.723 0.2,-0.278 0.2,-0.69 0.12,-1.026 -0.14,-0.619 -0.17,-1.509 -0.75,-1.751 -5.49,-2.256 -11.61,-2.872 -16.92,-5.515 -0.81,-0.406 1.64,-1.09 1.91,-1.959 0.99,-3.16 1.51,-6.474 1.79,-9.775 0.31,-3.651 0.35,-7.347 -0.01,-10.993 -0.64,-6.384 -2.16,-12.651 -2.98,-19.014 -0.12,-0.999 -0.06,-2.031 0.14,-3.019 0.07,-0.384 0.73,-0.591 0.65,-0.975 -0.11,-0.531 -0.58,-1.389 -1.09,-1.208 -0.83,0.299 -1.3,1.31 -1.57,2.156 -0.32,0.966 -0.26,2.038 -0.13,3.046 0.83,6.362 2.36,12.628 2.98,19.014 0.38,3.977 0.35,8.007 0,11.986 -0.24,2.648 -0.73,5.33 -1.78,7.775 -0.5,1.184 -1.89,1.751 -2.71,2.748 -0.23,0.286 -0.72,0.895 -0.38,1.039 6.06,2.574 12.65,3.833 18.58,6.692 0.65,0.312 -0.94,1.106 -1.51,1.538 -0.82,0.615 -1.64,1.356 -2.64,1.577 -1.64,0.364 -3.38,0.389 -5.04,0.124 -1.26,-0.2 -2.4,-0.877 -3.51,-1.488 -1.22,-0.671 -2.23,-1.699 -3.47,-2.34 -0.31,-0.162 -0.78,-0.213 -1.06,0 -1.39,1.056 -2.69,2.271 -3.75,3.652 -0.74,0.954 -2.43,2.382 -1.6,3.251 1.59,1.648 4.32,1.624 6.59,1.936 6.83,0.942 13.75,1.01 20.59,1.812 0.28,0.034 0.46,0.395 0.54,0.668 0.11,0.333 0.12,0.72 0,1.048 -0.11,0.315 -0.37,0.587 -0.66,0.761 -1.26,0.769 -2.58,1.475 -3.95,2.036 -1.98,0.811 -4,1.564 -6.08,2.071 -4.15,1.011 -8.34,1.957 -12.59,2.473 -0.73,0.089 -1.39,-0.92 -2.09,-0.689 -1.45,0.482 -2.67,1.558 -3.75,2.633 -0.73,0.719 -1.18,1.691 -1.58,2.634 -0.14,0.342 -0.15,0.773 0,1.112 0.44,0.988 0.74,2.265 1.7,2.756 3.9,1.994 8.32,2.784 12.38,4.435 0.44,0.179 0.88,0.552 1.01,1.009 1.44,4.834 2.74,9.721 3.64,14.682 0.36,1.988 0.22,4.041 0.11,6.059 -0.02,0.53 -0.13,1.133 -0.5,1.511 -0.74,0.751 -1.86,1.029 -2.67,1.707 -0.98,0.821 -2.2,1.569 -2.66,2.759 -0.49,1.258 -0.32,2.741 0,4.052 0.15,0.607 0.79,0.997 1.32,1.325 0.3,0.183 0.69,0.133 1.03,0.133 0.68,0 1.37,0.039 2.03,-0.132 0.37,-0.098 0.58,-0.666 0.97,-0.651 0.71,0.028 1.29,0.776 2,0.768 0.71,-0.008 1.26,-0.782 1.97,-0.812 0.71,-0.029 1.33,0.542 2.04,0.645 m -7.96,-1.98 c 0,0 0,0 0,0 -0.47,-0.097 -1.13,0.104 -1.39,-0.291 -0.38,-0.565 -0.21,-1.353 -0.14,-2.027 0.04,-0.469 0.04,-1.107 0.45,-1.339 0.41,-0.23 1.12,-0.086 1.37,0.307 0.37,0.567 0.2,1.35 0.14,2.024 m 2.55,0.294 c 0,0 0,0 0,0 -0.17,-0.428 -0.49,-0.825 -0.5,-1.283 0,-0.463 0.01,-1.305 0.47,-1.309 0.46,-0.004 0.46,0.84 0.47,1.301 m 3.56,-0.709 c 0,0 0,0 0,0 -0.12,-0.437 -0.35,-0.858 -0.36,-1.31 0,-0.146 0.25,-0.405 0.33,-0.282 0.24,0.387 0.32,0.875 0.33,1.332"
       id="path5805" />
  </g>
  <g
     id="g5811"
     transform="translate(-73.215436,-265.094)">
    <path
       fill="none"
       stroke="#000000"
       stroke-width="2"
       stroke-linecap="round"
       stroke-linejoin="round"
       d="m 959.032,442.852 1.147,-3.112 1.23,-1.88 4.523,-5.021 4.618,-3.771 4.61,-2.243 1.497,-0.161 0.528,0.59 -0.501,4.797 -1.596,4.418 -12.578,14.029 -1.713,1.333 -2.459,2.954 -0.968,0.41 0.038,0.479 -0.213,-0.387 0.611,-1.172 -0.062,0.487 0.291,0.147 9.45,0.324 1.251,-0.262 2.198,0.743 1.157,-0.09 2.333,0.463 0.817,0.51 2.233,-0.78 2.342,-1.709"
       id="path5809" />
  </g>
  <g
     id="g5815"
     transform="translate(-73.215436,-265.094)">
    <path
       fill="none"
       stroke="#000000"
       stroke-width="2"
       stroke-linecap="round"
       stroke-linejoin="round"
       d="m 987.389,451.326 -0.457,0.599 -1.455,0.15 -0.171,-0.425 -0.111,0.316 -0.384,-0.378 -0.444,-2.632 0.132,-2.431 0.723,-3.201 2.508,-6.046 2.692,-4.593 6.065,-7.439 5.783,-4.957 1.04,-0.077 0.11,-0.242 0.21,2.63 -0.26,5.135 -0.6,3.617 -0.91,2.143 -1.82,0.637 -0.633,-0.058 -5.315,4.091 -1.057,1.363 -2.638,1.305 -1.473,1.171 -0.218,-0.153 0.113,0.779 0.779,0.07 1.091,3.5 2.013,2.963 3.364,2.049 5.134,1.922 2.31,0.552 2.28,-0.348 0.9,0.326 3.55,0.279 1.34,-0.857"
       id="path5813" />
  </g>
  <g
     id="g5819"
     transform="translate(-73.215436,-265.094)">
    <path
       fill="none"
       stroke="#000000"
       stroke-width="2"
       stroke-linecap="round"
       stroke-linejoin="round"
       d="m 1023.23,401.863 0.4,0.112 -0.14,0.223 -1.04,0.395 0.32,-1.219 0.14,0.732 -0.6,-1.845 -0.33,-13.158 -0.64,-7.077 0.49,-2.633 -0.08,-1.304 0.36,-0.669 -0.16,-1.404 -0.04,0.56 -0.23,-0.067 0.33,-0.237 -0.17,-4.316 0.23,-0.934 -0.97,-1.578 1.85,-6.992 0.47,-5.288 -0.42,-1.075 -0.31,-0.117 v 0.257 l -0.18,-0.642 -0.23,0.094 0.31,-0.06 0.06,0.501 0.2,-0.544 -0.18,0.173 -0.03,-0.339 -0.19,0.774 -0.03,-0.506 0.14,0.417 0.18,-0.397 -0.13,-0.196 -0.26,0.471 0.12,-0.384 0.02,0.535 -0.26,-0.916 -0.44,1.081 -0.4,0.225 0.05,0.525 -0.4,-0.274 0.44,-0.091 -0.05,-0.596 0.05,0.984 -0.24,-0.682 0.06,0.35 -1.75,0.751 -0.5,0.872 -1.29,-0.524 -0.27,-0.709 -0.91,-0.228 -2.11,-1.8 -1.16,-2.292 -0.03,-2.79 2.48,-5.933 2.7,-4.099 4.42,-4.136 4.83,-3.074 3.56,-1.323 1.34,0.2 2.83,-0.341 2.85,1.397 0.6,1.885 -0.03,6.14 -0.93,2.842 -1.25,2.312 -1.51,1.899 -3.01,2.211 -1.1,1.183 -13.57,7.994 -2.08,0.541 -1.27,-0.073 -0.96,-0.541 -0.68,-1.265 0.04,-0.871 0.55,-1.92 2.78,-3.451"
       id="path5817" />
  </g>
  <g
     id="g5823"
     transform="translate(-73.215436,-265.094)">
    <path
       fill="#000000"
       d="m 1094.73,517.751 c 0,0 0,0 0,0 4.52,-0.848 9.07,-1.509 13.54,-2.545 0.29,-0.066 0.64,-0.437 0.53,-0.71 -0.24,-0.584 -0.71,-1.39 -1.34,-1.333 -5.06,0.462 -9.91,2.331 -14.97,2.823 -4.64,0.452 -9.35,0.548 -13.98,0 -3.78,-0.446 -7.27,-2.326 -11.01,-2.956 -0.71,-0.118 -1.29,0.772 -2,0.769 -0.72,-0.003 -1.29,-0.713 -2,-0.784 -1.99,-0.198 -4,-0.047 -6,-0.014 -0.68,0.011 -1.37,-0.015 -2.03,0.147 -0.69,0.171 -1.26,0.803 -1.97,0.837 -4.83,0.231 -9.8,1.054 -14.51,-0.048 -1.49,-0.349 -1.28,-2.884 -2.42,-3.914 -0.37,-0.329 -1.12,0.046 -1.4,0.447 -0.26,0.365 -0.03,0.92 0.14,1.332 0.36,0.852 0.84,1.66 1.41,2.388 0.49,0.636 1.08,1.225 1.75,1.661 0.29,0.188 0.69,0.131 1.03,0.134 4.67,0.041 9.34,0.244 14,0 0.71,-0.038 1.28,-0.666 1.97,-0.837 0.66,-0.162 1.35,-0.136 2.03,-0.147 2,-0.033 4.01,-0.184 6,0.014 0.71,0.071 1.28,0.75 2,0.784 0.39,0.019 0.6,-0.523 0.97,-0.641 0.35,-0.112 0.74,-0.106 1.09,-0.022 3.67,0.862 7.19,2.489 10.95,2.85 m -67.69,-215.443 c 0,0 0,0 0,0 -0.27,-1.015 -0.7,-2.001 -0.8,-3.046 -0.17,-1.656 -0.27,-3.348 -0.01,-4.991 0.32,-1.959 0.41,-4.207 1.71,-5.703 1.32,-1.509 3.69,-1.567 5.46,-2.512 0.29,-0.159 0.61,-0.432 0.66,-0.766 0.08,-0.459 0.09,-1.131 -0.31,-1.36 -0.45,-0.253 -1.06,0.081 -1.51,0.333 -0.59,0.326 -0.86,1.125 -1.49,1.344 -0.44,0.152 -1.47,0.089 -1.35,-0.363 0.45,-1.812 1.93,-3.213 2.68,-4.923 0.23,-0.525 -0.05,-1.21 0.24,-1.704 0.41,-0.706 1.5,-0.933 1.77,-1.707 0.17,-0.5 -0.26,-1.113 -0.69,-1.432 -1.41,-1.063 -2.88,-2.29 -4.63,-2.575 -3.65,-0.599 -7.44,-0.527 -11.11,-0.004 -2.353,0.336 -4.49,1.579 -6.666,2.54 -2.039,0.901 -4.161,1.718 -5.958,3.038 -1.917,1.407 -3.701,3.082 -5.048,5.042 -0.936,1.364 -1.297,3.066 -1.636,4.685 -0.213,1.018 -0.331,2.135 0.002,3.12 0.674,1.99 1.663,3.906 2.94,5.575 0.99,1.294 2.428,2.18 3.736,3.151 0.822,0.61 1.673,1.228 2.636,1.577 0.643,0.234 1.378,0.263 2.047,0.123 1.964,-0.411 3.91,-0.971 5.756,-1.757 1.081,-0.46 2.051,-1.172 2.941,-1.943 1.78,-1.545 3,-6.185 5.02,-4.975 2.82,1.692 1.39,6.466 2.59,9.532 m -15.222,-2.988 c 0,0 0,0 0,0 -0.71,0.003 -1.484,0.305 -2.129,0.009 -2.014,-0.922 -4.048,-1.99 -5.615,-3.556 -1.288,-1.288 -2.105,-3.03 -2.696,-4.753 -0.337,-0.981 -0.295,-2.117 -0.004,-3.113 0.576,-1.968 1.196,-4.061 2.553,-5.599 1.392,-1.576 3.484,-2.374 5.348,-3.348 3.063,-1.6 6.039,-3.584 9.405,-4.36 3.27,-0.752 6.73,-0.503 10.05,-0.12 1.35,0.156 2.53,1.025 3.7,1.704 0.29,0.166 0.69,0.465 0.61,0.787 -0.09,0.357 -0.7,0.301 -0.94,0.574 -0.53,0.584 -0.93,1.275 -1.33,1.947 -1.17,1.923 -1.66,4.398 -3.39,5.835 -0.71,0.589 -1.72,-0.747 -2.64,-0.83 -0.48,-0.042 -1.51,0.017 -1.36,0.472 0.36,1.081 1.7,1.553 2.34,2.495 0.18,0.269 0.23,0.732 0.02,0.977 -2.28,2.588 -4.75,5.001 -7.31,7.31 -0.88,0.793 -1.92,1.399 -2.962,1.962"
       id="path5821" />
  </g>
  <g
     id="g5827"
     transform="translate(-73.215436,-265.094)">
    <path
       fill="none"
       stroke="#000000"
       stroke-width="2"
       stroke-linecap="round"
       stroke-linejoin="round"
       d="m 1305.54,545.331 -2.94,-1.307 -0.39,-0.476 -1.97,0.152 -3.98,0.997 -4.29,2.363 -3.24,2.439 -4.96,6.23 -3.17,5.684 -0.33,2.291 0.51,1.253 1.38,1.024 1.03,0.47 2.97,0.042 4.62,-1.102 7.26,-3.42 8.28,-5.331 4.48,-4.001 4.69,-7.675 -0.84,1.89 -2.29,7.612 -1.46,9.433 0.02,1.809 0.49,1.855 1.25,2.313 1.15,0.818"
       id="path5825" />
  </g>
  <g
     id="g5831"
     transform="translate(-73.215436,-265.094)">
    <path
       fill="none"
       stroke="#000000"
       stroke-width="2"
       stroke-linecap="round"
       stroke-linejoin="round"
       d="m 1335.94,571.713 -2.15,4.09 -0.96,3.531 0.14,-0.3 6.05,-2.543 7.54,-4.961 1.07,0.156 -0.37,1.252 0.04,2.362 -0.85,3.082 -2.24,4.689 -0.89,3.405 -0.41,-0.779"
       id="path5829" />
  </g>
  <g
     id="g5835"
     transform="translate(-73.215436,-265.094)">
    <path
       fill="none"
       stroke="#000000"
       stroke-width="2"
       stroke-linecap="round"
       stroke-linejoin="round"
       d="m 1250.69,566.234 -2.17,-0.01 -4.5,-0.966 -1.17,-1.242 -0.13,-2.366 2.55,-5.871 3.27,-4.023 1.53,-1.024 1.78,-0.673 1.76,0.557 2.57,3.205 1.15,3.763 -0.2,3.971 -0.54,1.751 -1.47,2.124 -1.64,1.265 -2.96,1.038 -3.04,-0.145 -2.52,-1.194 -0.89,-2.465 -0.19,-2.13 0.24,-0.93"
       id="path5833" />
  </g>
  <g
     id="g5839"
     transform="translate(-73.215436,-265.094)">
    <path
       fill="none"
       stroke="#000000"
       stroke-width="2"
       stroke-linecap="round"
       stroke-linejoin="round"
       d="m 1239.13,559.538 0.34,-0.603 0.28,0.246 -0.33,0.477 -1.36,-0.315 -1.9,0.571 -0.21,-0.271 -1.07,0.606 -2.77,-0.362 -5.92,0.186 -16.88,1.597 -1.92,-0.147 -0.33,-0.372 0.06,0.227 1.76,-0.053 1.22,-0.961"
       id="path5837" />
  </g>
  <g
     id="g5843"
     transform="translate(-73.215436,-265.094)">
    <path
       fill="#000000"
       d="m 1205.79,560.522 c 0,0 0,0 0,0 -1.01,-1.099 -2.2,-2.061 -3.04,-3.297 -0.76,-1.122 -0.97,-2.562 -1.72,-3.692 -1.26,-1.891 -3.1,-3.367 -4.28,-5.309 -1.42,-2.328 -2.03,-5.09 -3.46,-7.408 -0.67,-1.087 -1.71,-1.929 -2.76,-2.658 -0.29,-0.201 -0.81,-0.242 -1.06,0.007 -0.33,0.33 -0.54,0.958 -0.31,1.363 1.1,1.924 2.93,3.356 4.09,5.245 1.03,1.686 1.44,3.707 2.46,5.404 0.99,1.658 2.51,2.957 3.54,4.595 0.66,1.064 0.78,2.422 1.5,3.453 0.72,1.035 1.58,2.103 2.72,2.626"
       id="path5841" />
  </g>
  <g
     id="g5847"
     transform="translate(-73.215436,-265.094)">
    <path
       fill="none"
       stroke="#000000"
       stroke-width="2"
       stroke-linecap="round"
       stroke-linejoin="round"
       d="m 1188.66,540.005 0.93,-1.47 0.69,0.024 -1.37,1.132 0.27,-0.541 -1.13,-4.899 -2,-2.573 -3.42,-2.099 -5.22,-4.977 -1.75,-6.097 -1.33,-3.387 -7.84,-10.149 -0.59,-3.181 -1.15,-1.741 -1.13,-6.547 -0.42,-1.105 -0.56,-0.033 -1.13,-1.366 -0.2,-2.922 -0.51,-1.197 -0.07,-2.395 -0.36,-1.172 0.2,-0.289 -0.55,-0.618 -0.19,0.71 0.3,-1.006 -0.22,0.805 -0.32,-0.144 -0.73,1.035 -0.09,0.667 0.19,-0.9 -0.62,3.572 0.14,5.189 1.21,6.952 -0.62,3.204 -1.97,4.877 -2.6,9.766 -0.51,4.458 0.04,11.495 -0.55,3.909 0.15,13.32 2.61,16.843 -0.05,2.863 -0.41,1.223 -0.22,-0.023 -0.18,3.408 -0.82,1.887 -0.22,2.281 -0.01,3.919 0.92,5.847 -0.12,1.576 0.08,0.324 0.18,-0.304 0.21,0.457 0.08,-0.231 -0.23,-0.229 -1.16,4.121 -0.93,0.919 -1.08,2.294 -0.23,1.291 0.1,0.888 0.26,-0.463 -0.39,0.662 0.16,0.877 -0.36,0.825 0.11,-0.557 0.25,0.599 -0.11,-0.453 -0.08,0.837 -0.02,-0.524 -0.33,0.034 0.13,0.951 -0.44,0.425 0.35,-0.313"
       id="path5845" />
  </g>
  <g
     id="g5851"
     transform="translate(-73.215436,-265.094)">
    <path
       fill="none"
       stroke="#000000"
       stroke-width="2"
       stroke-linecap="round"
       stroke-linejoin="round"
       d="m 1155.58,609.829 -3.34,-0.052 0.34,-0.307 -0.62,-0.681 -0.41,0.644 -0.91,0.1 0.76,-0.713 0.01,-0.472 1.34,-1.972 11.37,-9.928 1.86,-2.04 6.1,-4.753 5.64,-5.338 2.27,-1.545 4.23,-3.982 4.96,-5.155 2.69,-3.435 5.49,-9.084 1.55,-1.096 1.4,-0.234 2.01,-1.004 0.73,0.722"
       id="path5849" />
  </g>
  <g
     id="g5855"
     transform="translate(-73.215436,-265.094)">
    <path
       fill="none"
       stroke="#000000"
       stroke-width="2"
       stroke-linecap="round"
       stroke-linejoin="round"
       d="m 1161.25,533.824 -0.88,1.569 0.11,-0.913 -0.21,0.415 -0.28,-0.084 -2.43,3.975 0.53,-0.368 -0.02,-0.477 0.03,0.562 0.72,-0.252 0.13,0.355 1,0.276 0.83,0.644 1.72,-0.275 0.84,-0.449 2.37,0.024 0.96,-0.503 7.44,1.001 0.65,-0.152 2.79,1.213 0.34,-0.318 -0.18,-1.182 0.63,-1.593 -0.08,-0.902"
       id="path5853" />
  </g>
  <g
     id="g5859"
     transform="translate(-73.215436,-265.094)">
    <path
       fill="none"
       stroke="#000000"
       stroke-width="2"
       stroke-linecap="round"
       stroke-linejoin="round"
       d="m 1172.3,572.216 -1.03,0.271 0.38,-0.464 v -0.679 l 0.28,0.392 -0.18,0.438 -0.11,-1.36 0.57,-7.977 -0.12,-6.809 -0.56,-1.676 -0.67,-0.751 -1.56,2.192"
       id="path5857" />
  </g>
  <g
     id="g5863"
     transform="translate(-73.215436,-265.094)">
    <path
       fill="none"
       stroke="#000000"
       stroke-width="2"
       stroke-linecap="round"
       stroke-linejoin="round"
       d="m 1163.31,564.449 0.78,1.61 0.28,-0.195 1.78,1.4 2.95,-0.048 5.41,-1.725 2.56,-1.247 2.97,-0.937 0.96,-0.736"
       id="path5861" />
  </g>
  <g
     id="g5867"
     transform="translate(-73.215436,-265.094)">
    <path
       fill="none"
       stroke="#000000"
       stroke-width="2"
       stroke-linecap="round"
       stroke-linejoin="round"
       d="m 1102.7,510.253 -1.07,2.072 0.39,-0.052 0.03,-0.638 -0.32,0.355 0.16,0.549 0.5,0.399 0.46,1.299 0.32,0.096 1.11,0.026 0.62,-0.53 1.65,0.308 5.54,-0.264 6.44,1.209 7.67,0.74 0.93,0.374 2.18,-0.237 2.27,0.332 1.64,0.856 4.44,0.259 1.54,0.63 3.18,0.051 1.33,-0.395 0.13,0.279 1.61,0.076 1.97,2.208 3.43,0.432 1.34,-0.291 0.02,-0.283 -0.09,0.701 -0.24,-0.005"
       id="path5865" />
  </g>
  <g
     id="g5871"
     transform="translate(-73.215436,-265.094)">
    <path
       fill="none"
       stroke="#000000"
       stroke-width="2"
       stroke-linecap="round"
       stroke-linejoin="round"
       d="m 1150.96,568.15 -0.45,0.79 0.17,0.137 -0.51,0.097 -0.11,0.472 -1.37,-0.622 -0.58,-0.964 -0.64,0.335 -1.4,-0.602 -0.38,0.401 -0.7,-0.394 -3.49,-0.273 -7.63,1.418 -2.27,0.199 -2.59,-0.244 -0.9,0.647 -0.27,-0.415 -2.22,-0.759 -0.12,-0.894 -0.05,0.374 -1.09,0.998 -0.28,-0.699 -0.72,0.17 -0.48,-0.329 -0.06,-0.621"
       id="path5869" />
  </g>
  <g
     id="g5875"
     transform="translate(-73.215436,-265.094)">
    <path
       fill="none"
       stroke="#000000"
       stroke-width="2"
       stroke-linecap="round"
       stroke-linejoin="round"
       d="m 1123.83,566.145 -0.19,0.558 -0.24,-1.985 -0.48,-0.189 -0.38,-0.83 0.15,-0.569 -0.91,-1.437 -0.04,-0.687 -1.43,-0.445 -0.43,0.357 -0.86,-0.776 -0.54,0.045 -1.68,-0.85 -1.71,-0.409 -2.18,0.485 -1.42,1.186 -0.52,0.002 -1.44,0.911 -3,0.858 -0.31,0.646 -1.77,1.319 -1.03,2.012 -1.74,5.397 -0.62,3.764 0.42,1.984 1.19,2.722 1.14,1.18 1.06,2.047 2.98,1.146 2.96,-0.409 1.43,-1.357 1.26,-0.438 1.84,-1.398 2.47,-2.605 1.33,-2.865 -1.01,-8.012 0.4,-1.603 2.09,-3.429"
       id="path5873" />
  </g>
  <g
     id="g5879"
     transform="translate(-73.215436,-265.094)">
    <path
       fill="none"
       stroke="#000000"
       stroke-width="2"
       stroke-linecap="round"
       stroke-linejoin="round"
       d="m 1027.49,582.394 0.54,0.166 0.09,-0.532 0.11,0.375 -0.47,-0.525 0.16,-1.433 -0.41,-1.355 -1.16,-0.746 -2.3,-0.549 -3.66,0.822 -2.32,1.018 -2.01,1.537 -1.43,2.057 -0.48,2.738 0.17,3.441 0.56,1.894 0.64,1.014 4.57,2.047 2.36,2.411 1.4,0.199 1.09,0.589 0.63,-0.636 0.43,0.648 2.37,1.311 1.6,1.514 0.88,1.55 -0.11,1.486 -0.77,2 -5.18,7.556 -2.7,3.027 -0.26,-0.17 -0.61,0.52 -0.94,-0.817 -0.22,-1.537 0.64,-2.046"
       id="path5877" />
  </g>
  <g
     id="g5883"
     transform="translate(-73.215436,-265.094)">
    <path
       fill="none"
       stroke="#000000"
       stroke-width="2"
       stroke-linecap="round"
       stroke-linejoin="round"
       d="m 1042.47,600.965 -1.26,2.883 v 3.046 l -0.28,0.577 -0.36,0.296 -0.21,-0.515 -0.17,-1.64"
       id="path5881" />
  </g>
  <g
     id="g5887"
     transform="translate(-73.215436,-265.094)">
    <path
       fill="none"
       stroke="#000000"
       stroke-width="2"
       stroke-linecap="round"
       stroke-linejoin="round"
       d="m 1041.63,575.598 1.54,7.787 0.57,0.448"
       id="path5885" />
  </g>
  <g
     id="g5891"
     transform="translate(-73.215436,-265.094)">
    <path
       fill="none"
       stroke="#000000"
       stroke-width="2"
       stroke-linecap="round"
       stroke-linejoin="round"
       d="m 1056.41,579.734 -1.32,2.378 -1.76,2.026 -0.84,0.309 -0.92,1.299 -1.6,0.795 -4.14,3.334 -1.86,3.041 -2.19,5.225 0.88,1.345 1.66,-0.092 3.34,-1.532 2.39,-2.106 2.55,-2.346 1.79,-2.362 3.11,-5.193 1.13,-2.888 -0.55,1.099 0.36,0.479 -0.47,1.874 -0.71,1.672 -0.49,4.265 0.01,4.473 0.78,9.88 -1.35,6.65 -2.58,5.936 -2.84,4.335 -2.17,2.336 -3,4.29 -2.63,2.491 -1.55,-2.247 -2.2,-5.863 -0.16,-3.04 0.61,-2.382 2.06,-2.475 2.38,-2.003 2.15,-1.62 6.61,-3.939 1.77,-0.415 1.59,-0.86 1.38,-0.002 2.64,-0.679 0.87,0.3 0.91,-0.496"
       id="path5889" />
  </g>
  <g
     id="g5895"
     transform="translate(-73.215436,-265.094)">
    <path
       fill="#000000"
       d="m 1072.48,610.789 c 0,0 0,0 0,0 1.27,-1.166 2.16,-2.998 3.81,-3.5 0.88,-0.266 1.34,1.287 2.16,1.683 0.33,0.16 0.77,0.041 1.11,-0.111 0.93,-0.421 1.82,-0.945 2.63,-1.576 1.19,-0.931 1.95,-2.441 3.32,-3.085 0.41,-0.197 0.5,0.842 0.46,1.3 -0.07,0.722 -0.94,1.318 -0.79,2.028 0.19,0.942 0.9,1.784 1.69,2.337 0.32,0.225 0.8,-0.138 1.11,-0.365 0.59,-0.416 1.22,-0.868 1.52,-1.518 0.36,-0.766 0.59,-1.701 0.34,-2.506 -0.11,-0.339 -0.92,0.546 -1.04,0.213 -0.87,-2.36 0.08,-5.5 -1.6,-7.374 -0.85,-0.953 -1.34,2.191 -2.18,3.157 -1.24,1.438 -2.58,2.807 -4.04,4.027 -0.21,0.172 -0.69,0.266 -0.81,0.027 -0.2,-0.397 -0.03,-0.916 0.14,-1.328 0.48,-1.163 0.99,-2.347 1.77,-3.331 0.58,-0.732 1.6,-1.003 2.23,-1.701 0.98,-1.103 2.03,-2.252 2.54,-3.64 0.28,-0.745 0.16,-1.724 -0.32,-2.36 -0.27,-0.358 -0.92,-0.031 -1.33,0.147 -0.9,0.391 -1.9,0.757 -2.51,1.525 -1.46,1.844 -2.19,4.172 -3.52,6.109 -1.26,1.841 -2.69,3.58 -4.24,5.186 -0.69,0.704 -1.44,1.565 -2.41,1.69 -0.46,0.059 -0.55,-0.855 -0.49,-1.32 0.4,-3.017 1.42,-5.927 1.84,-8.941 0.19,-1.349 0.27,-2.757 -0.02,-4.088 -0.12,-0.535 -0.72,-1.536 -1.14,-1.183 -1.87,1.59 -2.86,4.006 -4.43,5.899 -0.51,0.618 -0.99,1.518 -1.79,1.611 -0.46,0.054 -0.48,-0.91 -0.35,-1.362 0.67,-2.382 2.45,-4.456 2.68,-6.918 0.07,-0.678 -1.66,-0.988 -2,-0.397 -1.8,3.179 -2.93,6.758 -3.65,10.343 -0.12,0.621 0.72,1.142 1.3,1.384 0.64,0.261 1.5,0.405 2.06,0 1.66,-1.219 2.12,-4.861 4.16,-4.566 1.72,0.25 0.43,3.477 0.29,5.212 -0.05,0.713 -0.69,1.277 -0.83,1.977 -0.14,0.679 -0.29,1.445 -0.01,2.08 m 30.69,1.996 c 0,0 0,0 0,0 0.1,-2.036 -0.1,-4.111 0.3,-6.109 0.29,-1.388 1.45,-2.495 1.74,-3.882 0.34,-1.651 0.21,-3.373 0.11,-5.056 -0.02,-0.519 -0.2,-1.045 -0.48,-1.483 -0.63,-0.987 -1.15,-2.239 -2.21,-2.729 -0.5,-0.226 -1.18,0.676 -1.09,1.209 0.15,0.844 1.44,1.143 1.65,1.974 0.42,1.622 0.42,3.37 0.14,5.02 -0.3,1.735 -1.52,3.22 -1.86,4.947 -0.32,1.654 -0.2,3.372 -0.11,5.055 0.02,0.471 0.04,1.102 0.45,1.339 M 487.499,317.844 c 0,0 0,0 0,0 0.596,-0.554 1.324,-0.993 1.79,-1.66 0.954,-1.365 1.509,-2.978 2.424,-4.369 1.949,-2.964 3.852,-5.983 6.156,-8.679 0.223,-0.261 0.756,0.073 0.973,0.339 0.218,0.268 0.135,0.682 0.142,1.029 0.041,1.997 0.209,4.006 0.001,5.992 -0.075,0.712 -0.691,1.277 -0.837,1.978 -0.139,0.67 -0.249,1.416 10e-4,2.052 0.228,0.579 0.779,1.015 1.324,1.316 0.307,0.17 0.748,0.173 1.054,0 0.552,-0.311 1.379,-0.718 1.337,-1.349 -0.061,-0.9 -1.381,-1.321 -1.575,-2.202 -0.137,-0.627 0.639,-1.155 0.696,-1.794 0.178,-1.989 0.344,-4.024 10e-4,-5.991 -0.33,-1.892 -1.011,-3.755 -1.992,-5.407 -0.18,-0.303 -0.707,0.177 -0.978,0.402 -0.839,0.694 -1.676,1.426 -2.305,2.315 -0.962,1.36 -1.52,2.971 -2.424,4.369 -1.232,1.907 -2.188,4.131 -3.976,5.53 -0.599,0.469 -0.302,-1.525 -0.18,-2.277 0.435,-2.682 1.446,-5.252 1.838,-7.941 0.07,-0.476 -0.19,-0.978 -0.481,-1.362 -0.111,-0.147 -0.501,-0.186 -0.555,-0.009 -1.439,4.722 -2.755,9.489 -3.802,14.312 -0.218,1.007 -0.357,2.134 0.027,3.089 m 200.801,-7.004 c 0,0 0,0 0,0 0.297,-0.33 0.769,-0.565 0.892,-0.992 0.19,-0.658 0.245,-1.42 -0.014,-2.055 -0.102,-0.251 -0.577,-0.11 -0.812,0.025 -0.524,0.301 -0.751,1.103 -1.345,1.216 -0.338,0.065 -0.513,-0.511 -0.595,-0.846 -1.046,-4.31 -1.644,-8.725 -2.77,-13.016 -0.088,-0.337 -0.538,-0.862 -0.817,-0.653 -2.147,1.612 -3.997,3.603 -5.783,5.608 -1.096,1.23 -1.178,4.154 -2.823,4.057 -1.572,-0.092 -1.013,-3.017 -1.877,-4.333 -0.181,-0.276 -0.697,-0.189 -0.988,-0.034 -0.382,0.203 -0.82,0.567 -0.826,0.999 -0.01,0.718 0.704,1.292 0.784,2.005 0.185,1.653 0.196,3.34 0,4.992 -0.084,0.71 -0.719,1.271 -0.827,1.977 -0.071,0.46 -0.092,1.133 0.313,1.362 0.449,0.253 1.065,-0.073 1.51,-0.333 0.532,-0.311 0.964,-0.797 1.304,-1.312 1.579,-2.393 2.806,-5.009 4.426,-7.374 1.125,-1.64 2.319,-3.269 3.788,-4.611 0.213,-0.195 0.63,0.23 0.7,0.51 1.028,4.122 1.229,8.447 2.54,12.488 0.197,0.609 1.123,0.703 1.76,0.766 M 507.952,309.52 c 0,0 0,0 0,0 0.283,-0.339 0.698,-0.601 0.85,-1.016 0.065,-0.177 -0.171,-0.344 -0.303,-0.48 -0.63,-0.649 -1.2,-1.392 -1.971,-1.866 -0.301,-0.184 -0.808,-0.242 -1.057,0.007 -0.329,0.33 -0.509,0.94 -0.313,1.363 0.382,0.82 1.13,1.446 1.866,1.971 M 695.84,301.53 c 0,0 0,0 0,0 -1.78,-1.11 -3.334,-2.716 -5.34,-3.329 -0.586,-0.179 -1.457,0.707 -1.299,1.299 0.281,1.053 1.286,1.888 2.273,2.351 0.912,0.429 2.016,0.208 3.021,0.133"
       id="path5893" />
  </g>
  <g
     id="g5899"
     transform="translate(-73.215436,-265.094)">
    <path
       fill="none"
       stroke="#000000"
       stroke-width="2"
       stroke-linecap="round"
       stroke-linejoin="round"
       d="m 861.919,296.599 0.412,1.211 0.362,0.105 -0.324,0.034 0.131,-0.706 4.734,-10.563 2.564,-8.406"
       id="path5897" />
  </g>
  <g
     id="g5903"
     transform="translate(-73.215436,-265.094)">
    <path
       fill="none"
       stroke="#000000"
       stroke-width="2"
       stroke-linecap="round"
       stroke-linejoin="round"
       d="m 1041.06,291.242 -1.34,0.014 0.17,0.119 -0.6,0.222 -0.75,1.153 -0.62,0.151 -2.78,3.473 -1.56,2.695 -1.71,6.16 0.04,1.702 0.75,0.842 0.67,0.408 2.57,-0.228 4.32,-1.621 1.92,-1.078 3.27,-2.37 2.07,-2.157 1.81,-2.644 0.51,-2.025 -0.14,-0.912 -1.43,-1.657 -1.65,-0.727 -1.74,-0.022 -0.85,0.404 -2.64,0.393 -2.02,0.783 -0.12,0.331 0.46,-0.161"
       id="path5901" />
  </g>
  <g
     id="g5907"
     transform="translate(-73.215436,-265.094)">
    <path
       fill="none"
       stroke="#000000"
       stroke-width="2"
       stroke-linecap="round"
       stroke-linejoin="round"
       d="m 282.742,411.144 -0.132,0.986 -0.207,-0.068 0.261,-0.41 1.294,-0.774 -0.421,0.602 -0.234,-0.19 -0.113,-0.883 0.258,0.061 -0.187,-0.27 0.269,-0.1 -0.721,-3.097 0.451,-4.844 -0.147,-3.306 -0.35,-3.506 -0.564,-0.744 0.072,-0.738 -0.47,-0.563 0.243,-0.135 -0.298,-0.085 -0.066,-0.581 0.379,-0.481 -0.548,-0.628 -0.3,-1.483 0.186,-2.386 0.424,-1.234 -0.097,-1.332 -0.55,-0.705 0.309,-0.132 -0.581,-0.011 0.367,0.008 0.652,-0.848 -0.224,-0.159 -0.168,0.477 -0.303,-0.275 0.336,-0.279 0.206,0.313 -0.54,-0.714 0.463,0.124 0.162,-0.252 -0.295,0.868 -0.231,-0.774 0.196,-0.817 -0.844,0.282"
       id="path5905" />
  </g>
  <g
     id="g5911"
     transform="translate(-73.215436,-265.094)">
    <path
       fill="none"
       stroke="#000000"
       stroke-width="2"
       stroke-linecap="round"
       stroke-linejoin="round"
       d="m 253.945,380.927 0.173,-1.491 -0.398,-0.391 -0.493,0.573 1.042,-0.234 -0.351,0.123 0.012,0.444 -0.043,-0.458 0.626,0.253 2.363,-0.085 9.631,-2.731 5.009,-0.262 2.435,-0.522 4.275,0.346 2.189,-0.186 5.711,0.737 1.905,0.769 3.435,0.173 5.478,1.453 2.119,1.236 1.851,0.584 1.545,0.097 4.155,-0.723 2.001,-1.476 0.932,-0.208 1.374,-1.634 -0.195,-0.357 -0.276,1.072 -0.149,-0.209 -0.498,0.34 -0.775,-0.237 -1.308,0.246 -1.329,0.716 -0.667,-0.143 -1.065,0.727"
       id="path5909" />
  </g>
  <g
     id="g5915"
     transform="translate(-73.215436,-265.094)">
    <path
       fill="none"
       stroke="#000000"
       stroke-width="2"
       stroke-linecap="round"
       stroke-linejoin="round"
       d="m 250.511,349.365 1.095,1.42 1.44,1.064 2.102,-0.011 1.25,-0.699 3.868,-3.226 1.686,-2.218 2.426,-2.192 2.644,-3.45 0.946,-2.226 -0.484,-0.944 -2.864,-1.517 -2.92,0.308 -3.02,1.531 -1.775,0.135 -0.388,0.374 -1.254,-0.311 -1.131,-0.903 -0.373,-2.822 0.825,-5.553 -0.252,-0.425 0.074,-1.608 -0.409,-0.352 0.109,-0.751 -0.603,-0.073 1.693,-2.253 0.26,-0.852 0.426,-0.406 0.446,0.057 2.871,-1.262 5.661,-1.499 4.47,0.158 3.55,1.203"
       id="path5913" />
  </g>
  <g
     id="g5919"
     transform="translate(-73.215436,-265.094)">
    <path
       fill="none"
       stroke="#000000"
       stroke-width="2"
       stroke-linecap="round"
       stroke-linejoin="round"
       d="m 278.377,336.33 1.459,0.735 -0.249,0.774 0.418,0.938 0.441,3.197 0.354,0.408 -0.031,1.329 0.514,1.966 -0.197,0.139 1.641,1.076 0.377,-1.102 0.654,-0.662 1.933,-3.566 2.613,-6.072 0.912,-1.009 3.699,-7.271 2.052,-2.001 0.241,-0.746 0.873,-0.742 0.38,0.236"
       id="path5917" />
  </g>
  <g
     id="g5923"
     transform="translate(-73.215436,-265.094)">
    <path
       fill="none"
       stroke="#000000"
       stroke-width="2"
       stroke-linecap="round"
       stroke-linejoin="round"
       d="m 503.768,302.581 0.101,-0.562 0.509,1.045 0.625,-0.62 -0.014,-0.527 0.654,-0.109 0.172,0.344 1.267,-1.105 7.082,-0.54 0.392,-0.4 -0.154,-0.476 -0.203,0.862 0.126,-0.332 0.533,0.16 0.815,-0.285"
       id="path5921" />
  </g>
  <g
     id="g5927"
     transform="translate(-73.215436,-265.094)">
    <path
       fill="none"
       stroke="#000000"
       stroke-width="2"
       stroke-linecap="round"
       stroke-linejoin="round"
       d="m 525.442,314.902 0.487,-0.253 0.84,-3.598 1.096,-8.166 2.316,-11.196 0.177,-3.534"
       id="path5925" />
  </g>
  <g
     id="g5931"
     transform="translate(-73.215436,-265.094)">
    <path
       fill="none"
       stroke="#000000"
       stroke-width="2"
       stroke-linecap="round"
       stroke-linejoin="round"
       d="m 691.178,297.491 -1.238,0.476 0.048,0.295 0.461,-0.36 -0.107,-0.44 0.644,0.546 1.91,-0.28 0.226,-0.316 1.273,-0.143 3.417,-1.473 1.015,0.686 0.686,0.06 1.692,-0.053 0.406,-0.279 1.085,0.351 1.689,-0.578 1.384,0.72 0.24,0.666 0.208,-0.142 -0.051,-0.392 -0.298,0.179 0.038,-0.56"
       id="path5929" />
  </g>
  <g
     id="g5935"
     transform="translate(-73.215436,-265.094)">
    <path
       fill="none"
       stroke="#000000"
       stroke-width="2"
       stroke-linecap="round"
       stroke-linejoin="round"
       d="m 709.861,292.99 -0.463,0.037 -0.479,-0.432 0.2,-1.68 4.514,-3.726 1.079,-0.662 1.298,-0.27 1.347,0.335 1.482,1.551 0.921,2.387 -0.074,2.58 -1.23,2.798 -4.146,4.787 -5.167,3.553 -3.59,1.67 -0.687,1.046 0.885,0.305 0.43,-0.551 1.708,0.34 1.022,-0.301 0.551,0.343 2.355,0.332 6.667,0.018 2.708,0.248 2.266,0.691 0.603,-0.474 0.242,0.128 0.074,-0.456 -0.018,0.558 0.263,-0.792"
       id="path5933" />
  </g>
  <metadata
     id="metadata5943">
    <rdf:RDF>
      <cc:Work
         rdf:about="">
        <dc:title>Quick sheets</dc:title>
      </cc:Work>
    </rdf:RDF>
  </metadata>
</svg>
