<?xml version="1.0" encoding="UTF-8" standalone="no"?>
<svg
   width="841.30157"
   height="1010.6052"
   viewBox="0 0 841.30157 1010.6052"
   version="1.2"
   id="svg678"
   xmlns="http://www.w3.org/2000/svg"
   xmlns:svg="http://www.w3.org/2000/svg"
   xmlns:rdf="http://www.w3.org/1999/02/22-rdf-syntax-ns#"
   xmlns:cc="http://creativecommons.org/ns#"
   xmlns:dc="http://purl.org/dc/elements/1.1/">
  <defs
     id="defs682" />
  <title
     id="title430">Quick sheets</title>
  <g
     id="g436"
     transform="translate(-34.593402,-193.48401)">
    <path
       fill="none"
       stroke="#000000"
       stroke-width="2"
       stroke-linecap="round"
       stroke-linejoin="round"
       d="m 270.17,268.385 -0.586,-0.065 -0.043,0.296 0.342,-0.141 0.181,0.486 -0.145,-0.226 0.51,-0.056 2.454,1.516 1.77,0.471 3.02,0.248 29.261,-1.179 5.461,0.3 6.711,0.915 9.855,2.808 4.181,0.635 1.694,0.644 3.036,-0.061 2.357,-0.753 1.038,-3.117 -0.379,-0.296"
       id="path434" />
  </g>
  <g
     id="g440"
     transform="translate(-34.593402,-193.48401)">
    <path
       fill="none"
       stroke="#000000"
       stroke-width="2"
       stroke-linecap="round"
       stroke-linejoin="round"
       d="m 276.738,236.779 -0.449,1.1 0.459,-0.023 0.384,0.533 2.976,1.455 1.543,0.245 3.141,-0.315 3.797,-1.414 5.125,-3.441 2.536,-2.699 3.159,-4.486 0.76,-2.32 0.134,-1.985 -0.523,-1.643 -3.127,-1.255 -5.801,-0.819 -3.849,-1.087 -1.61,-0.97 -0.937,-1.663 0.213,-0.508 -0.294,-2.519 0.198,-4.524 2.776,-9.016 2.141,-4.941 0.358,0.04 -0.489,1.837 0.599,0.819 6.498,2.942 3.689,0.495 4.04,0.074 5.674,-1.095"
       id="path438" />
  </g>
  <g
     id="g444"
     transform="translate(-34.593402,-193.48401)">
    <path
       fill="none"
       stroke="#000000"
       stroke-width="2"
       stroke-linecap="round"
       stroke-linejoin="round"
       d="m 316.517,210.173 -1.279,2.508 0.413,2.919 4.33,11.606 0.219,1.443 4.8,12.174 0.36,-1.15 0.806,-0.624 2.766,-4.891 2.441,-5.692 3.048,-8.443 3.394,-6.772 8.356,-14.35 0.426,-0.317 -0.019,0.404"
       id="path442" />
  </g>
  <g
     id="g448"
     transform="translate(-34.593402,-193.48401)">
    <path
       fill="none"
       stroke="#000000"
       stroke-width="2"
       stroke-linecap="round"
       stroke-linejoin="round"
       d="m 308.921,271.957 -1.071,0.021 0.178,-0.173 0.372,0.35 0.043,-0.357 -0.246,0.385 0.316,0.144 -0.48,-0.145 0.487,0.139 0.368,2.072 -0.498,15.83 -0.023,17.903 -1.731,18.04 -0.581,2.75 -0.963,15.875 -0.565,4.629 0.353,6.361 0.278,0.32 -0.11,-0.388 0.274,-0.229 -0.266,-0.179 0.388,0.326 -0.703,-0.387 0.258,0.071 -0.159,-1.003 0.454,-3.484"
       id="path446" />
  </g>
  <g
     id="g452"
     transform="translate(-34.593402,-193.48401)">
    <path
       fill="none"
       stroke="#000000"
       stroke-width="2"
       stroke-linecap="round"
       stroke-linejoin="round"
       d="m 307.134,352.758 -1.044,1.032 -0.395,-0.164 0.116,-0.519 0.341,0.023 -0.872,-0.143 -1.63,0.172 -0.511,0.343 -0.37,-0.166 -0.765,0.871 -1.614,0.514 -0.494,0.588 -3.037,0.51 -3.56,1.279 -1.851,0.327 -2.866,1.525 -3.803,1.493 -3.317,1.883 -1.259,1.076 -0.77,1.808 2.959,5.976 5.254,5.876 5.772,4.518 3.478,2.194 1.849,0.499 9.868,7.286 2.784,2.599 0.922,1.687 1.622,1.898 0.108,0.697 -0.36,1.29 -0.325,-0.137 -0.791,0.668 -1.017,0.169 -2.534,1.784 -2.017,0.334 -0.828,0.553 -3.79,0.585 -1.408,-0.082 -3.244,0.98 -5.036,3.075 -2.071,1.86 -1.869,2.354 -3.123,5.226 -0.413,0.252 -0.672,1.839 0.022,1.235 0.312,-0.178 0.347,0.311 2.924,3.844 2.547,1.643 3.524,1.7 2.429,0.521 5.463,2.073 4.064,1.028 1.388,0.786 2.697,0.775 1.221,-0.041 4.631,2.374 1.224,1.147 1.028,0.198 -1.028,2.203 -2.333,3.112 -6.849,2.908 -5.363,3.85 -11.606,6.97 -0.648,0.867 -2.605,1.549 -0.021,0.663 0.289,-0.576 -0.09,-0.533 -0.134,0.228 0.002,0.312 0.216,-0.287 -0.385,0.331 0.298,-0.126 0.322,1.196 0.826,0.124 0.03,0.384 0.734,-0.691 0.106,0.207 -0.664,0.284 -0.1,-0.19 0.453,-0.066 -0.638,0.487 0.43,-0.642 -0.116,7.379 1.337,11.18 -0.278,7.022 0.185,2.734 -2.14,13.906 -1.016,4.219 -0.679,5.732 -1.659,8.089 -1.525,17.33 -0.564,2.01 0.254,0.916 -0.143,1.957 0.267,1.483 0.321,-0.055 -0.263,0.253 0.304,-0.069 -0.597,-1.061 -0.089,0.893 0.546,-0.245 -0.471,0.242 0.113,-0.214 -0.325,0.01 0.611,-0.107 -0.298,0.173 0.224,0.003 -0.366,-0.615 -0.104,0.389 0.317,-0.24 0.116,-0.926"
       id="path450" />
  </g>
  <g
     id="g456"
     transform="translate(-34.593402,-193.48401)">
    <path
       fill="none"
       stroke="#000000"
       stroke-width="2"
       stroke-linecap="round"
       stroke-linejoin="round"
       d="m 287.824,540.889 -0.389,0.694 0.229,0.103 -1.011,0.75 -0.84,1.559 -3.284,2.063 -4.063,1.287 -9.287,2.214 -7.392,1.446 -1.579,0.011 -1.124,1.388 0.226,0.435 0.28,-0.501 0.126,0.3 0.44,-0.077 0.35,0.572 0.505,0.062 1.108,2.144 2.055,2.302 7.631,6.417 3.887,2.43 1.986,1.791 3.303,1.419 0.936,0.937 1.928,0.917 0.961,-0.252 2.776,2.22 0.245,0.68 0.758,0.366 1.115,1.662 0.129,0.996 0.384,0.391 -1.283,2.959 -2.08,2.374 -3.441,1.824 -2.366,0.754 -1.255,-0.127 -5.544,1.862 -11.863,1.194 -1.488,0.434 -0.905,0.778 -0.825,1.559 -0.216,-0.085 0.318,0.526 -0.213,-0.93 -0.19,-0.151 -0.063,0.235 1.247,1.601 1.033,0.551 1.27,1.246 3.363,2.047 1.139,-0.108 1.68,0.798 1.981,1.77 5.544,3.443 2.989,1.375 6.109,1.881 1.336,0.884 0.555,0.096 0.175,-0.365 0.479,0.598 0.194,-0.303 1.365,2.428 -0.76,-0.39 -0.49,1.238 -0.727,0.836 -2.57,8.116 -0.556,3.681 -0.34,0.568 0.098,1.51 -0.295,0.626 -0.262,-0.126 -0.298,1.29 -0.278,-0.222 -0.369,1.686 -0.8,0.589 -0.232,1.153 -0.009,-0.264 -1.163,0.794 -6.275,2.289 -2.069,0.249 -1.704,1.163 -0.167,0.29 0.268,0.461 0.047,-0.235 -0.515,-0.094 -0.083,0.381 0.324,0.13 -0.263,0.868 0.234,0.085 -0.462,-0.48 -0.4,0.297 0.285,0.477 0.064,-0.467 0.266,0.244 -0.1,-0.808 -0.165,0.447 -0.25,-0.422 -0.162,0.209 0.505,0.605 0.149,-0.27 -0.321,0.07 -0.449,-0.688 -0.305,0.053 0.766,0.458 0.045,0.514 0.046,-0.224 0.312,0.197 -0.39,-0.219 0.002,-0.432 -0.389,-0.04 0.47,0.332 -0.525,-0.2 0.305,0.124 -0.138,0.512 0.104,-0.273 0.345,0.489 -0.209,-0.586 -0.671,0.763 1.04,10.018 0.246,7.601 0.636,3.009 -0.759,13.654 -0.312,3.545 -0.879,4.07 0.068,2.29 -0.843,6.556 -2.359,13.621 -2.313,20.374 -1.53,5.464 -0.254,8.835 0.436,1.111 -0.134,1.027 0.249,-0.188 -0.638,-0.58 0.164,-0.512 0.101,0.385 -0.08,-0.608 0.177,0.482 -0.462,0.109 0.286,0.246 0.237,-0.323 -0.755,-0.85 -0.454,-2.058 -0.046,-3.308 0.437,-1.753 0.582,-0.651"
       id="path454" />
  </g>
  <g
     id="g460"
     transform="translate(-34.593402,-193.48401)">
    <path
       fill="none"
       stroke="#000000"
       stroke-width="2"
       stroke-linecap="round"
       stroke-linejoin="round"
       d="m 266.139,737.434 -0.427,0.508 0.017,-0.542 0.035,1.035 -0.596,0.327 -0.228,-0.127 0.129,-0.478 -0.305,0.82 -0.126,-0.475 -0.476,-0.027 0.043,0.235 -0.502,-0.034 -0.158,0.571 -0.266,-0.381 -0.128,0.235 -0.344,-0.232 -0.097,-0.669 -0.16,0.2 -0.206,-0.205 -0.248,0.459 -0.876,-0.137 -0.518,-0.509 -1.028,0.455 -1.057,-0.09 0.134,0.309 -1.778,0.89 -0.109,0.603 -0.475,0.252 -0.274,-0.242 -1.065,0.181 -5.238,2.776 -12.906,4.209 -0.641,-0.043 -0.904,0.972 0.086,0.487 -0.241,-0.304 -0.055,0.225 0.655,-0.719 -0.025,0.39 1.363,0.133 1.212,0.511 4.418,2.544 0.851,0.995 4.397,1.414 2.18,1.375 2.362,0.797 8.747,7.122 1.484,1.684 2.291,1.454 3.339,3.286 10.047,7.851 0.366,0.797 1.446,1.463 -0.348,0.11 -0.484,-0.897 -0.517,-0.089 -4.479,-0.072 -5.94,0.369 -4.017,0.968 -2.533,1.134 -2.433,1.962 -0.633,1.097 -2.546,2.215 -1.135,1.631 -4.979,4.352 -0.683,0.052 -1.49,1.063 -0.636,-0.051 0.085,0.474 0.197,-0.223 -0.204,0.224 0.966,-0.193 0.811,0.868 1.235,0.687 2.734,0.955 4.083,2.353 2.223,1.816 6.549,1.709 4.527,1.643 1.661,0.147 2.94,1.365 1.268,0.961 2.864,1.094 2.23,1.677 1.103,0.398 1.136,1.755 0.224,0.966 0.598,0.054 -0.17,0.409 0.602,-0.543 0.109,0.442 -4.057,2.817 -5.319,1.908 -6.03,2.644 -15.764,2.351 -3.19,1.314 -1.527,-0.052 -5.403,1.234 -6.136,2.098 -1.36,0.081 -5.649,3.808 1.07,0.708 0.257,-0.212 -0.358,-0.149 0.057,0.28 1.033,0.033 1.175,-0.389 2.553,1.548 3.169,0.907 7.298,3.442 8.983,1.782 10.336,0.803 3.485,1.131 1.678,0.956 -1.045,-0.543 0.21,0.62 -1.315,1.143 -0.794,0.282 -1.091,2.636 -0.363,2.717 -0.141,0.216 -0.138,-0.418 0.246,-0.472 0.04,0.443 0.328,-0.235 -0.186,-0.304 -0.292,0.324 0.156,-0.574 -0.31,-0.178 0.285,0.743 0.443,-0.036 -0.752,0.113 0.504,-0.095 -0.341,0.272 0.556,2.073 -0.073,8.935 0.325,7.387 -1.052,25.2 -0.366,16.989 -0.542,3.102 0.479,9.185 -0.175,5.032 0.425,1.699 -0.698,2.602 0.049,0.92 -0.235,0.383 -0.458,-0.589 0.226,-0.163 -0.126,-0.9 0.391,0.035 -0.395,0.11 0.325,0.065 0.098,0.725 0.147,-0.398 -0.187,0.502 0.077,-0.488 -0.258,-0.178 -0.148,0.457 0.365,0.077 -0.223,0.392 0.061,-0.297 0.185,0.487 0.061,-1.019 -0.605,0.141 0.096,0.227 0.392,-0.331 -0.143,0.236 0.274,0.025 -0.342,-0.014 0.407,-0.265 -0.199,0.189 -0.394,-0.345 0.491,0.665 0.115,-0.574 -0.49,0.309 0.261,-0.062 -0.209,0.221 0.283,-0.068 -0.192,0.149 0.36,0.383 0.113,-0.454 0.068,0.757 -0.277,0.215 0.31,0.335 -0.274,-0.3 0.284,-0.627 -0.168,0.519 -0.376,0.03 0.65,-0.072 -0.296,-0.07 0.045,0.497 -0.053,-0.99 -0.138,0.597 0.231,0.008 -0.216,-0.321 -0.212,0.781 0.525,-0.47 -0.139,-0.727 -0.265,1.342 0.27,-0.299 -0.249,-0.519 0.346,0.068 -0.599,0.122 -0.279,-0.316 0.3,0.216 -0.215,0.182 -0.064,-0.735 -0.081,0.609 0.388,0.042 0.004,0.575 -0.353,-1.128 -0.219,0.23 0.217,0.064 -0.073,-0.32 0.042,0.616 -0.464,-0.066 0.18,0.575 0.325,-0.42 -0.223,-1.182 -0.249,0.479 0.255,0.412 -0.465,0.039 0.241,-0.285 0.23,0.222 -0.436,-0.539 0.23,1.4 -0.024,-1.916 -0.123,0.632 -0.352,0.187 0.237,0.38 0.183,-0.168 -0.221,0.041 0.182,-0.849 -0.278,0.308 -0.098,1.299 0.425,-0.412 -0.252,-0.017 -0.039,-0.665 -1.318,0.729 -0.494,-0.459 0.062,1.256 0.455,0.515"
       id="path458" />
  </g>
  <g
     id="g464"
     transform="translate(-34.593402,-193.48401)">
    <path
       fill="none"
       stroke="#000000"
       stroke-width="2"
       stroke-linecap="round"
       stroke-linejoin="round"
       d="m 270.955,937.205 -0.369,0.187 -0.097,-0.621 -0.07,1.563 -0.624,-0.793 -1.009,0.664 -1.208,-0.182 -0.531,0.446 -1.966,-0.071 -0.811,-0.341 -2.113,0.896 -1.271,-0.075 -4.586,1.993 -4.694,1.304 -2.09,1.021 -6.176,1.396 -4.874,1.543 -6.252,2.508 -0.72,0.455 -0.25,0.549 0.797,0.646 0.34,0.755 0.399,-0.164 1.011,1.451 2.933,2.584 1.668,0.67 2.987,2.389 4.764,2.521 5.36,1.875 8.556,1.69 1.445,0.658 3.05,0.696 1.242,0.843 2.214,0.663 0.853,-0.234 1.099,1.457 1.566,1.323 2.255,3.697 -0.924,-0.346 -0.856,0.903 -9.998,4.193 -13.47,3.81 -2.301,0.084 -5.422,2.297 -4.843,2.777 -2.29,1.894 -1.445,1.833 -0.032,1.101 -1.241,3.077 0.155,0.778 -0.262,0.281 1.393,-0.178 2.614,2.177 3.162,1.167 2.091,1.325 7.63,0.91 2.099,0.65 11.143,1.41 5.979,1.09 6.968,2.29 1.969,1.33 0.829,0.06 1.059,0.74 0.246,-0.06 -0.052,-0.7 -0.262,-0.24 -0.036,0.43 -0.689,0.01 -0.17,0.72 -0.146,-0.38 -0.349,-0.02 -4.225,0.88 -1.65,-0.02 -6.209,2.23 -7.407,1.88 -6.698,2.49 -3.27,1.8 -2.395,1.8 -3.41,1.42 -3.46,2.04 -1.179,0.04 -3.299,2.75 -0.305,0.85 1.333,0.83 9.824,3.37 3.395,2.2 0.918,0.12 7.66,3.3 1.2,-0.17 1.734,0.74 2.579,-0.04 2.182,-1.05 1.049,-1.16 -0.483,-0.29 -0.309,-0.91 -0.435,0.01 0.31,-0.47 -0.453,1.88 -0.257,-0.27 -0.51,0.18 -1.455,1.26 0.133,0.6 -0.286,0.41 0.289,0.21 -0.908,1.56 0.071,-0.4 0.243,0.52 -0.106,0.91 0.288,-0.41 -0.454,-0.11 0.215,-0.32 0.047,0.98 0.2,-0.22 -0.175,0.59 0.033,-1.16 -0.171,0.25 0.32,-0.44 -0.237,0.2 0.183,1.35 0.876,2.86 0.435,3.11 0.73,11.28 0.097,5.66 -0.517,13.74 -2.134,25.55 -1.826,15.03 -0.668,4.28 -0.665,1.81 -0.74,11.8 -0.573,1.74 -0.465,3.32 0.411,6.98 -0.085,1.25 -0.158,0.18 -0.183,-0.55 0.149,0.25 -0.338,-0.06 0.049,0.27 0.308,0.09 0.106,-0.48 -0.224,-0.17 0.099,0.44 -0.18,-0.23 0.245,-0.07 -0.155,-0.68 -0.064,0.45 0.207,-0.25 -0.166,0.25 -0.151,-1.81 0.313,-2.82 0.485,-0.71 -0.041,-1.6"
       id="path462" />
  </g>
  <g
     id="g468"
     transform="translate(-34.593402,-193.48401)">
    <path
       fill="none"
       stroke="#000000"
       stroke-width="2"
       stroke-linecap="round"
       stroke-linejoin="round"
       d="m 219.27,1156.53 -0.986,-0.85 -0.412,0.22 -0.957,-2.17 0.197,0.38 -0.757,2.62 -0.595,0.44 0.701,-0.38 -0.119,-0.48 0.073,1.12 -0.138,-0.41 0.208,0.13 0.991,-1.1 1.689,0.72 2.354,0.42 21.052,7.98 8.703,2.97 7.701,1.43 7.332,0.6 5.271,0.02 3.214,-1.15 2.858,-0.1 3.372,-0.73 6.835,-2.79 5.599,-3.69 0.339,0.07 -0.336,0.22 0.282,0.12 -0.842,0.3 0.204,0.53 -0.318,0.17 -0.237,1 -0.059,-0.33 -0.564,-0.05 -0.49,0.55 -1.14,-0.23 -0.68,-1.3 -0.126,0.55 -0.501,0.39 -0.687,-0.65 -0.351,0.34 -1.153,-0.17 -0.863,0.23 -3.783,-3.17"
       id="path466" />
  </g>
  <g
     id="g472"
     transform="translate(-34.593402,-193.48401)">
    <path
       fill="none"
       stroke="#000000"
       stroke-width="2"
       stroke-linecap="round"
       stroke-linejoin="round"
       d="m 235.686,1176.41 -0.212,0.54 -1.391,1.2 -0.85,-0.01 0.77,-0.14 0.211,-0.68 0.203,0.3 -0.156,-0.14 -0.282,0.42 0.379,0.49 5.015,1.02 11.739,4.77 5.144,0.89 2.061,0.96 5.338,-0.17 1.963,-0.61 3.145,0.27 1.184,-0.75 0.643,0.26 2.276,-0.05 0.45,-0.47 -0.239,-0.4 -3.886,-1.03 -1.481,0.03"
       id="path470" />
  </g>
  <g
     id="g476"
     transform="translate(-34.593402,-193.48401)">
    <path
       fill="none"
       stroke="#000000"
       stroke-width="2"
       stroke-linecap="round"
       stroke-linejoin="round"
       d="m 250.161,1200.17 -2.545,2.92 0.685,-1.13 2.319,-0.36 7.325,0.13"
       id="path474" />
  </g>
  <g
     id="g480"
     transform="translate(-34.593402,-193.48401)">
    <path
       fill="none"
       stroke="#000000"
       stroke-width="2"
       stroke-linecap="round"
       stroke-linejoin="round"
       d="m 55.138,504.628 2.0803,-0.094 -0.5225,-0.064 -0.4764,-0.577 -2.1599,-0.591 -1.6327,0.044 -3.3497,0.535 -3.6936,1.209 -4.9813,2.897 -3.3862,3.01 -1.4226,1.877 0.0756,1.376 1.0373,1.303 2.1575,1.218 4.255,0.969 13.8386,1.975 1.4981,0.76 -0.3859,2.07 -1.0102,2.276 -1.1602,1.644 -1.4975,1.197 -2.4337,1.12 -5.9377,1.68 -2.0488,0.091 -0.0933,-0.388 0.4556,-0.436"
       id="path478" />
  </g>
  <g
     id="g484"
     transform="translate(-34.593402,-193.48401)">
    <path
       fill="none"
       stroke="#000000"
       stroke-width="2"
       stroke-linecap="round"
       stroke-linejoin="round"
       d="m 68.9681,518.467 -1.6912,3.306 -1.0785,8.126 -0.3237,-2.001"
       id="path482" />
  </g>
  <g
     id="g488"
     transform="translate(-34.593402,-193.48401)">
    <path
       fill="none"
       stroke="#000000"
       stroke-width="2"
       stroke-linecap="round"
       stroke-linejoin="round"
       d="m 65.0827,502.226 -0.8153,-1.188 0.3718,0.453 0.9804,6.255 0.7366,1.76"
       id="path486" />
  </g>
  <g
     id="g492"
     transform="translate(-34.593402,-193.48401)">
    <path
       fill="none"
       stroke="#000000"
       stroke-width="2"
       stroke-linecap="round"
       stroke-linejoin="round"
       d="m 84.2935,507.664 -0.6454,0.719 -0.8413,0.193 -3.1813,-0.051 -2.3608,0.882 -1.6149,1.033 -2.0674,2.432 -0.9864,1.947 -0.7982,3.971 0.2201,1.37 0.8901,0.888 1.6996,0.143 2.6545,-0.719 2.4843,-1.538 3.5055,-3.187 4.6921,-5.159 -0.0735,4.323 -1.1524,10.642 0.0473,10.395 -0.6165,4.806 -0.9289,3.797 -1.3768,3.065 -1.5367,2.104 -3.8098,2.565 -3.1186,0.932 -2.0544,-0.499 -2.0519,-2.252 -1.0225,-2.238 -0.4418,-2.936 0.2267,-2.689 0.8015,-2.927 3.1154,-5.825 3.6308,-4.294 6.94,-5.774"
       id="path490" />
  </g>
  <g
     id="g496"
     transform="translate(-34.593402,-193.48401)">
    <path
       fill="none"
       stroke="#000000"
       stroke-width="2"
       stroke-linecap="round"
       stroke-linejoin="round"
       d="m 101.816,508.646 -1.111,0.699 -0.471,0.982 -0.9381,11.695 -0.2141,7.812 -0.4862,2.905 -0.0232,-1.353 0.6261,-2.781 3.9565,-12.01 2.558,-5.687 1.426,-2.226 0.742,-0.373 0.604,0.689 0.953,6.247 -0.456,9.939 0.111,3.773 0.467,1.068 0.752,0.45 1.769,-0.545 4.912,-5.878 5.245,-5.381 7.459,-5.651 0.538,-0.791 -1.27,0.747 -3.644,0.755 -2.931,2.693 -1.94,3.182 -1.239,2.923 -1.266,6.178 0.318,1.413 3.464,-3.669 1.507,-2.236 2.946,-3.311 3.062,-5.558 -0.414,1.513 0.549,1.736 0.625,4.549 -0.717,11.43 0.422,-0.013 1.253,-1.94"
       id="path494" />
  </g>
  <g
     id="g500"
     transform="translate(-34.593402,-193.48401)">
    <path
       fill="none"
       stroke="#000000"
       stroke-width="2"
       stroke-linecap="round"
       stroke-linejoin="round"
       d="m 133.105,531.056 2.609,-10.271 3.856,-21.606 0.84,-8.522 1.265,-5.196 0.516,-0.541 -0.21,-0.041"
       id="path498" />
  </g>
  <g
     id="g504"
     transform="translate(-34.593402,-193.48401)">
    <path
       fill="none"
       stroke="#000000"
       stroke-width="2"
       stroke-linecap="round"
       stroke-linejoin="round"
       d="m 159.981,522.039 -2.299,0.102 -2.089,1.212 -2.109,-0.864 -1.353,-1.686 -0.44,-2.447 0.043,-1.628 2.259,-6.91 1.649,-2.728 1.297,-1.417 1.239,-0.83 3.345,0.117 2.959,0.996 1.876,1.151 2.95,2.859 1.062,2.449 0.828,4.143 -0.889,4.969 -1.524,1.832 -9.621,0.525 -2.714,-0.455 -2.875,-1.217 -1.234,-1.223 1.14,-0.968"
       id="path502" />
  </g>
  <g
     id="g508"
     transform="translate(-34.593402,-193.48401)">
    <path
       fill="none"
       stroke="#000000"
       stroke-width="2"
       stroke-linecap="round"
       stroke-linejoin="round"
       d="m 174.978,514.735 -0.482,-0.653 0.335,0.053 -0.202,-0.332 0.17,0.219 -0.305,-0.026 0.398,0.115 0.035,-0.255 1.682,-0.411 0.068,-0.301 0.755,0.518 1.874,0.163 2.893,-0.7 4.743,0.22 5.074,-0.411 1.629,0.33 2.974,-0.16 0.661,-0.354 1.57,0.218 4.392,-1.699 0.434,-0.432 2.988,-0.947 3.305,0.068 0.554,-0.281 1.078,0.408 2.967,-1.474 2.304,0.44 0.289,-0.294 0.983,0.457 0.197,-0.334 0.957,0.476 1.918,-1.522 1.52,-0.42 0.608,0.065 0.686,0.78 0.736,0.204 0.17,-0.692 1.348,0.788 0.215,-0.268 1.158,-0.11 1.409,1.124 2.204,-0.088 0.59,-0.399 2.348,0.461 0.28,0.316 1.468,-0.218 1.828,0.424 0.104,-0.311 1.414,0.525 0.532,0.877 0.68,-1.155 0.344,0.694 0.297,-0.104 -0.123,-0.431 1.01,0.339 0.739,-0.178 0.409,-0.52 0.523,0.53 2.289,0.175 2.763,-1.076 0.414,-0.695 1.914,0.09 0.057,0.498 0.356,-0.267 2.812,0.01 0.751,0.563 1.217,-0.471 0.47,-0.598 0.631,0.419 0.344,-0.149 0.542,0.655 2.167,-0.194 1.998,0.438 0.196,-0.275 2.352,0.167 1.009,-0.333 0.526,0.335 2.782,-0.691 0.806,0.387 1.784,-0.225 3.455,0.395 0.353,-0.317 1.597,0.463 1.435,-0.182 0.535,0.586 0.352,-0.344 2.449,-0.397 0.754,-0.406 0.894,0.47 1.894,0.239 2.393,-0.36 2.303,0.176 2.261,-0.402 2.246,0.079 1.113,-0.449 2.695,0.403 2.931,0.015 4.109,-0.889 1.827,0.005 4.413,-0.878 2.342,-0.074 2.428,-0.779 1.928,-0.128 0.375,-0.32 2.447,0.322 2.506,-0.113 2.748,-0.782 2.004,0.048 0.979,-0.348 1.925,0.271 8.145,-0.38 4.557,-0.996 1.338,-0.576 7.845,-0.757 3.509,0.082 1.506,-0.306 1.16,-0.665 1.152,0.547 0.979,0.052 0.904,-0.376 0.578,0.208 2.095,-0.264 1.851,0.33 0.778,-0.089 0.402,-0.372 0.531,0.664 1.135,-0.043 0.429,0.482 3.213,-1.175 2.58,-0.079 2.475,-0.523 2.303,0.352 0.418,-0.033 0.044,-0.391 0.912,0.52 1.124,-0.07 0.595,0.427 8.926,-1.926 4.005,0.652 0.447,0.431 0.749,-0.383 -0.033,-0.612 0.16,0.645 0.152,-0.405 -0.21,0.087 0.193,-0.102 0.017,0.709 -0.039,-1.047 -0.076,0.427 0.278,0.139 -0.422,-0.02 0.214,-0.336 0.054,0.581 -0.065,-0.651 0.06,0.692 0.025,-0.835 0.1,0.416 0.514,-0.058 0.261,0.365 0.279,-0.548 -0.184,-0.141 0.199,0.217 -0.232,0.396 0.304,-0.417 -0.087,-0.436 0.145,0.266 1.193,0.184 0.203,-0.321 1.076,0.919"
       id="path506" />
  </g>
  <g
     id="g512"
     transform="translate(-34.593402,-193.48401)">
    <path
       fill="none"
       stroke="#000000"
       stroke-width="2"
       stroke-linecap="round"
       stroke-linejoin="round"
       d="m 290.445,478.111 -1.967,0.228 0.235,-0.669 -0.356,0.498 -0.228,-0.135 0.401,-0.752 -0.002,-1.375 0.688,-0.659 1.411,-0.054 0.687,0.725 0.427,-0.102 0.285,1.584 -0.37,-0.48 -0.479,0.956 -2.063,1.8 -1.168,0.422 -1.179,-1.193 0.021,-0.443 -0.332,0.106 2.038,-1.978 1.179,-0.614 0.512,0.155 0.385,0.779 0.461,-0.263 0.019,0.37 0.109,-0.27 -0.176,0.761 -2.537,1.508 -0.868,0.032 -0.667,-0.525 -0.007,-2.165 0.448,-1.329 0.772,-0.771 1.642,-0.749 1.353,0.089 1.998,0.983 1.084,1.633 0.224,1.951 -1.941,1.042 -2.056,0.221 -2.688,-0.419 -0.853,-0.692 0.175,-0.333 -0.014,0.532 1.013,-0.894 0.888,-0.026 2.556,-1.181 2.747,-0.698 2.705,0.705 0.463,0.908 0.119,-0.23 -0.226,0.665 -0.389,0.075 -3.163,3.184 -3.753,2.55 -1.229,0.427 -1.687,-0.303 -1.188,-0.727 -0.397,-1.419 0.82,-2.429 2.673,-3.664 1.876,-1.696 1.524,-0.951 2.164,-0.421 2.229,1.754 0.503,0.939 -0.103,1.35 -0.185,-0.46 0.261,-0.25 -2.544,1.608 -1.142,-0.166 -2.314,0.397 -2.195,-0.334 -0.728,-0.549 -0.442,-0.459 0.632,0.044 0.272,-0.674 1.444,-1.096 2.927,-1.292 0.263,0.219 0.649,-0.19 0.253,1.084 -0.576,2.128 -1.26,2.397 -0.592,0.224 -0.586,-0.715 -0.759,0.441 -1.687,0.012 0.587,-0.324 -0.434,0.244 0.035,-0.494 0.344,-0.091 0.126,0.285 -0.474,0.177 0.337,-0.428 0.118,0.316 0.247,-0.29 0.469,0.883 0.842,-0.189 0.178,0.316 1.547,-0.455 4.718,0.315 1.716,0.435 2.66,-0.488 0.58,-0.393 0.819,0.524 0.912,-0.229 0.368,0.197 1.222,-0.542 1.195,-0.09 5.158,0.902 2.279,-1.025 0.449,0.107 0.192,0.423 0.592,-0.299 6.455,-0.097 1.82,-0.532 0.471,0.29 1.025,-0.307 1.479,0.179 0.25,-0.297 0.786,0.484 0.315,-0.179 1.299,0.522 1.317,-0.004 2.939,-1.066 4.744,-2.312 2.589,-0.229 2.749,0.68 9.441,0.201 7.462,-2.079 1.647,-0.045 1.842,-0.819 1.655,0.044 1.403,0.548 1.848,0.155 2.347,-0.123 2.695,-0.844 1.491,0.298 0.46,0.44 1.379,-0.4 1.5,0.745 2.002,0.476 0.959,0.684 2.191,0.355 3.172,-0.044 1.679,-0.25 -0.102,-0.344 1.255,0.413 0.36,-0.628 0.849,0.391 4.045,-0.899 3.234,0.804 0.482,0.651 0.892,-0.335 0.444,0.425 0.924,-1.113 0.919,0.651 -0.028,-0.496 2.439,0.388 0.66,-0.369 2.366,0.139 1.825,-0.371 0.179,-0.577 0.709,1.101 0.238,-1.317"
       id="path510" />
  </g>
  <g
     id="g516"
     transform="translate(-34.593402,-193.48401)">
    <path
       fill="none"
       stroke="#000000"
       stroke-width="2"
       stroke-linecap="round"
       stroke-linejoin="round"
       d="m 399.165,522.485 0.28,0.349 0.193,-0.889 0.007,0.467 -0.187,-0.56 1.965,-7.85 2.351,-15.404 2.362,-10.698 2.246,-8.267 4.698,-14.865 1.798,-7.694 0.564,-6.639 -0.279,-4.042 -0.337,0.266 0.602,2.503 0.045,3.16 0.607,3.795 0.432,0.185 0.999,-0.815"
       id="path514" />
  </g>
  <g
     id="g520"
     transform="translate(-34.593402,-193.48401)">
    <path
       fill="none"
       stroke="#000000"
       stroke-width="2"
       stroke-linecap="round"
       stroke-linejoin="round"
       d="m 415.66,452.001 -0.378,-0.968 0.502,0.456 0.115,-0.221 0.248,0.163 0.727,-0.932 1.137,-0.415 6.398,2.848 1.978,1.465 0.929,0.31 1.134,1.142 5.618,3.754 1.486,1.4 6.82,4.445 14.327,8.521 6.509,3.163 3.51,0.346 1.684,0.505 6.657,-0.46 1.356,1.209 0.425,2.487 -0.054,2.028 -0.105,-1.733 -0.842,-3.277"
       id="path518" />
  </g>
  <g
     id="g524"
     transform="translate(-34.593402,-193.48401)">
    <path
       fill="none"
       stroke="#000000"
       stroke-width="2"
       stroke-linecap="round"
       stroke-linejoin="round"
       d="m 406.542,522.753 0.719,-0.421 1.457,0.061 2.144,-0.697 12.519,-6.921 5.333,-2.436 3.174,-0.744 1.504,-0.925 6.546,-2.783 14.222,-3.728 10.136,-2.227 7.408,-2.722 2.707,-0.628 4.518,-2.12 2.683,-1.653 4.615,-3.49 1.459,-1.464"
       id="path522" />
  </g>
  <g
     id="g528"
     transform="translate(-34.593402,-193.48401)">
    <path
       fill="none"
       stroke="#000000"
       stroke-width="2"
       stroke-linecap="round"
       stroke-linejoin="round"
       d="m 271.669,665.963 -1.558,-0.184 0.206,0.459 -0.443,0.058 -0.022,-0.618 0.185,0.207 0.414,-0.425 -0.234,10e-4 0.084,-0.283 -0.318,0.128 0.454,0.045 0.806,0.924 0.688,1.628 -0.375,0.055 -0.049,0.749 -0.5,0.282 -0.098,0.707 -1.172,0.625 -1.377,0.055 -1.441,-1.897 0.203,-1.273 0.952,-1.723 -0.052,-0.502 2.623,-0.815 1.859,-0.04 0.727,1.091 0.1,1.73 -0.294,1.019 -0.608,0.128 -0.285,-0.398 -0.902,0.649 -0.676,-0.201 -1.212,0.517 -1.82,-0.635 -0.998,-1.04 -0.459,-1.246 0.232,-1.85 0.453,-0.686 0.247,0.072 0.51,-1.086 0.567,-0.121 0.181,-0.556 1.274,-0.96 1.701,0.337 2.003,1.064 3.828,3.78 -0.849,1.723 -0.974,0.928 -1.059,0.493 -0.332,0.656 -4.011,0.203 -2.682,-0.958 -1.022,-1.243 -0.042,-0.486 0.66,-0.345 0.458,-1.097 0.673,-0.329 0.271,-0.702 1.667,-0.628 0.664,0.251 2.967,-1.868 1.548,1.468 0.915,1.7 0.344,1.509 -0.116,0.957 -1.867,1.655 -0.497,-0.131 -1.154,0.989 -1.174,-0.017 -2.977,-2.161 -1.673,-2.058 -1.111,-3.001 0.294,-1.068 0.127,0.188 0.43,-0.822 1.097,-0.904 3.28,2.278 2.929,3.373 0.644,0.287 0.019,-0.423 -0.455,-0.035 -0.534,0.61 -4.646,-0.057 -1.399,-0.333 -0.338,-0.453 0.734,-0.021 0.851,-0.592 2.198,0.335"
       id="path526" />
  </g>
  <g
     id="g532"
     transform="translate(-34.593402,-193.48401)">
    <path
       fill="none"
       stroke="#000000"
       stroke-width="2"
       stroke-linecap="round"
       stroke-linejoin="round"
       d="m 271.588,665.819 -0.181,-0.632 0.218,-0.038 -0.25,0.005 0.439,-0.102 0.035,0.454 -0.011,-0.384 0.305,-0.026 -0.34,-0.031 0.072,-0.398 1.244,0.251 0.563,-0.35 0.972,0.013 0.649,-0.417 0.056,-0.6 1.064,0.938 0.196,-0.314 0.299,0.393 0.125,-0.506 3.818,-1.082 1.426,0.386 0.634,0.568 4.666,-1.141 2.909,0.299 0.579,0.48 0.585,-0.248 2.945,0.173 0.702,-0.651 2.114,0.288 0.631,-0.484 2.769,-0.204 5.992,-1.983 3.668,-0.47 5.889,0.596 1.177,0.568 0.528,-0.274 4.9,-0.292 0.852,-0.62 0.955,0.27 5.602,-0.459 13.801,-3.776 4.806,0.204 1.702,0.601 6.563,0.469 6.979,0.142 3.646,-1.102 7.432,-3.848 2.783,-0.767 0.353,-0.346 1.807,0.952 1.087,1.478 0.333,-0.141 2.97,1.042 0.994,-0.293 0.872,0.355 1.314,-0.143 3.645,-2.63 2.938,-1.226 0.309,1.36 0.583,-0.197 -0.309,-0.164 -0.123,0.342 0.423,-0.671 0.258,0.997 -0.167,0.629 0.222,-0.621 -0.197,0.439 0.088,-0.226 0.224,0.17 -0.058,0.265 -0.077,-0.239 0.492,-0.313 0.107,0.432 1.072,0.347 0.703,0.869 0.24,-0.113 -0.051,0.337 0.644,0.552 0.782,0.196 3.609,-3.089 1.533,-0.288 0.89,0.651 0.062,-0.291 -0.384,0.069 -0.022,0.289 0.394,-0.701 -0.163,0.241 0.085,-0.199 -0.311,0.04 -0.043,0.426 -0.128,-0.3 -0.556,0.033 -0.276,0.395"
       id="path530" />
  </g>
  <g
     id="g536"
     transform="translate(-34.593402,-193.48401)">
    <path
       fill="none"
       stroke="#000000"
       stroke-width="2"
       stroke-linecap="round"
       stroke-linejoin="round"
       d="m 408,627.591 0.376,-0.233 -0.101,-0.232 0.187,0.181 0.046,-0.444 0.126,0.361 -0.163,-0.123 -0.367,0.632 0.111,0.335 0.293,-0.542 0.044,1.182 -0.412,5.928 -0.659,3.675 -0.146,5.798 -0.816,10.209 -0.482,20.945 0.663,13.569 -0.064,15.936 0.892,6.331 -0.379,3.16 -0.202,0.9 -0.252,0.066 0.239,-0.621 -0.379,-1.37 0.073,-5.999"
       id="path534" />
  </g>
  <g
     id="g540"
     transform="translate(-34.593402,-193.48401)">
    <path
       fill="none"
       stroke="#000000"
       stroke-width="2"
       stroke-linecap="round"
       stroke-linejoin="round"
       d="m 408.988,623.83 0.499,-0.459 0.622,1.345 2.23,2.722 7.093,4.949 2.703,2.886 3.134,2.685 4.283,2.081 2.1,1.583 6.283,3.759 1.329,1.318 3.792,2.441 5.039,4.82 4.605,3.651 4.792,1.793 0.574,-0.263 0.917,0.768 1.663,0.403 0.485,0.533 1.07,0.406 0.625,-0.152 1.41,0.967 4.777,2.14 3.706,2.261 -0.477,-0.178 -0.005,0.295 0.15,-0.71 -0.226,0.963 -1.651,1.805 -2.238,0.828 -4.399,5.293 -0.854,0.338 -5.057,4.368 -1.228,0.739 -5.716,5.927 -13.005,12.298 -8.368,8.994 -8.202,12.075 -0.106,0.837 0.471,-0.975 -0.348,-0.744"
       id="path538" />
  </g>
  <g
     id="g544"
     transform="translate(-34.593402,-193.48401)">
    <path
       fill="none"
       stroke="#000000"
       stroke-width="2"
       stroke-linecap="round"
       stroke-linejoin="round"
       d="m 270.963,877.403 -0.1,-1.066 -0.413,-0.362 -1.844,1.582 -0.331,0.09 -0.324,-0.372 -0.23,0.575 -0.922,0.736 -0.171,-0.143 0.328,-2.413 0.694,-1.182 3.639,-0.649 2.241,0.53 1.204,1.654 -0.11,1 0.233,0.218 -0.362,0.66 0.291,0.39 -1.444,2.43 -0.719,0.206 -0.328,0.512 -2.712,1.061 -0.654,0.562 -2.743,-1.163 -0.861,-0.834 -1.671,-0.468 -1.158,-1.475 2.698,-2.293 2.324,-1.483 2.983,-0.897 2.329,0.215 0.946,0.589 0.114,0.548 -1.443,4.434 -1.6,1.869 -3.958,0.982 -0.568,-0.25 -1.663,0.347 -1.957,-1.025 -0.865,-1.502 -0.516,-1.941 0.535,-1.678 2.433,-2.775 1.876,-1.04 2.101,-0.369 2.929,0.235 0.888,1.158 0.225,1.351 -0.387,0.61 0.123,0.946 -0.615,1.349 0.066,0.768 -1.622,2.017 -3.092,1.609 -1.94,0.348 -2.817,-1.57 -0.624,-0.617 -0.286,-0.868 0.916,-3.114 2.054,-2.321 1.479,-0.611 1.591,0.4 0.216,0.638 0.501,0.144 0.59,0.731 -0.281,4.075 -0.867,1.736 -2.404,0.398 -1.122,-0.629 -0.143,-0.369 -0.287,0.216 0.678,-2.046"
       id="path542" />
  </g>
  <g
     id="g548"
     transform="translate(-34.593402,-193.48401)">
    <path
       fill="none"
       stroke="#000000"
       stroke-width="2"
       stroke-linecap="round"
       stroke-linejoin="round"
       d="m 269.116,881.582 0.619,0.091 -0.335,0.002 -0.093,0.463 -0.381,-0.456 1.183,-0.604 2.982,0.149 1.195,-0.257 0.971,-0.811 0.383,0.283 2.16,-0.168 11.006,3.829 3.897,0.511 4.454,-0.238 6.781,-1.283 1.62,0.24 2.936,-0.783 2.309,0.235 1.066,-0.217 2.957,1.544 6.743,2.424 4.376,1.485 2.276,0.177 4.352,-0.497 3.539,-1.723 6.857,-2.462 0.992,-0.607 4.513,0.4 0.918,0.552 0.946,-0.135 5.001,0.614 7.259,1.595 3.584,0.041 4.077,-1.186 4.49,-2.233 0.726,-0.01 1.904,-0.794 0.995,-0.72 4.901,-0.04 0.991,0.564 4.563,-0.554 2.989,0.466 1.138,-0.318 0.982,0.245 0.698,-0.377 0.496,0.141 1.133,-0.901 0.688,0.11 0.204,-0.304 2.628,0.811 1.231,-0.081 0.75,-0.485 0.642,0.257 1.013,-0.578 0.344,0.351 0.936,-0.596 0.597,0.185 0.063,-0.523 0.094,1.12 -1.735,-0.573"
       id="path546" />
  </g>
  <g
     id="g552"
     transform="translate(-34.593402,-193.48401)">
    <path
       fill="none"
       stroke="#000000"
       stroke-width="2"
       stroke-linecap="round"
       stroke-linejoin="round"
       d="m 415.951,852.835 -0.846,0.423 0.602,1.444 -0.375,2.988 -2.341,8.864 -0.659,5.73 -2.616,15.118 -2.503,20.601 -1.264,14.694 -0.415,1.52 -0.126,7.103 -0.481,4.271 0.034,1.527 0.359,-0.068 -0.292,0.797 0.254,-1.245 1.658,-2.786"
       id="path550" />
  </g>
  <g
     id="g556"
     transform="translate(-34.593402,-193.48401)">
    <path
       fill="none"
       stroke="#000000"
       stroke-width="2"
       stroke-linecap="round"
       stroke-linejoin="round"
       d="m 415.579,851.761 -0.505,0.137 0.764,-0.267 0.227,0.434 0.686,4.203 1.489,4.767 1.72,2.485 1.583,1.009 0.867,-0.013 6.858,4.773 3.178,1.726 7.734,3.241 9.806,3.441 4.625,3.482 3.242,3.472 2.839,2.438 2.909,1.707 1.175,0.282 0.354,0.747 0.185,-0.132 0.978,0.795 0.05,-0.457 0.158,2.186 0.157,-0.293 -0.309,-0.35 0.133,0.28 -1.529,1.428 -1.343,0.336 -0.207,0.661 -1.146,0.571 -0.408,-0.092 -1.154,1.024 -0.634,0.073 -3.811,4.879 -2.372,2.298 -8.567,6.726 -4.689,2.475 -10.195,7.93 -4.116,3.565 -3.552,3.997 -2.202,1.658 -2.784,2.815 -2.421,2.855 -6.98,9.972 -0.659,0.291 -0.359,1.252 1.027,-2.252 0.509,-0.016 1.831,-1.529"
       id="path554" />
  </g>
  <g
     id="g560"
     transform="translate(-34.593402,-193.48401)">
    <path
       fill="none"
       stroke="#000000"
       stroke-width="2"
       stroke-linecap="round"
       stroke-linejoin="round"
       d="m 353.689,508.254 -0.117,0.603 -0.049,-0.347 -0.198,0.227 -0.196,-0.298 -2.724,-0.281 -0.24,-0.356 0.351,-0.501 0.334,0.788 5.469,-0.925 4.749,1.712 0.783,0.746 0.155,0.834 -0.657,1.294 -0.606,0.3 -3.929,4.682 -0.716,1.34 -3.209,1.057 -0.386,-0.554 -0.567,-0.157 -0.564,-1.067 -0.283,-2.002 0.214,-2.484 1.695,-2.66 1.939,-1.671 1.838,-0.457 2.69,0.335 0.364,0.411 0.724,-0.005 1.388,0.657 1.549,1.498 0.259,1.811 -0.882,2.202 -1.774,0.933 -2.237,0.489 -1.611,0.989 -0.788,-0.312 -2.097,1.128 -2.634,-0.302 -1.143,-1.422 -0.828,-3.291 1.354,-4.753 2.296,-2.91 2.269,-1.575 0.298,-0.076 0.384,0.487 0.325,-0.189 0.729,0.23 1.812,1.988 1.167,3.37 -1.064,1.026 -1.597,0.508 -1.149,0.807 -2.78,1.158 -0.318,0.448 -2.079,0.225 -0.731,0.503 -1.475,-1.35 -0.48,-0.913 -0.322,-1.871 0.615,-3.569 1.293,-3.801 1.308,-2.694 2.149,-1.886 1.74,-0.105 0.271,0.889 0.371,0.055 0.849,3.996 0.012,3.698 -1.165,3.369 -0.68,0.693 -2.53,0.839 -1.896,-0.097 -1.003,-1.08 -0.969,-2.454 0.369,-2.901 0.295,-0.766 2.246,-0.528 1.318,1.167"
       id="path558" />
  </g>
  <g
     id="g564"
     transform="translate(-34.593402,-193.48401)">
    <path
       fill="none"
       stroke="#000000"
       stroke-width="2"
       stroke-linecap="round"
       stroke-linejoin="round"
       d="m 359.706,507.145 -0.124,1.605 -0.566,1.586 -0.047,1.892 0.711,9.889 -0.022,4.917 0.484,3.826 -0.394,8.087 -1.12,9.261 -0.541,15.175 0.33,3.64 -0.223,11.899 0.473,11.509 -0.276,21.866 1.192,12.984 -0.588,16.386 1.003,16.049 -0.09,21.162 0.267,5.217 1.558,14.384 0.007,8.556 0.361,4.525 -0.136,5.784 0.245,1.689 -0.455,2.833 -0.479,12.309 0.426,14.773 -1.008,8.366 -0.564,2.181 -0.309,5.037 0.535,13.566 -0.574,15.764 -0.707,5.95 -2.114,9.888 -0.877,11.806 -0.91,6.225 0.762,11.169 -0.152,5.693 -0.382,1.405 0.282,4.152 -0.654,3.388 0.113,3.505 -0.393,2.223 0.091,3.896 0.254,0.69 -0.49,3.197 0.334,4.781 -0.21,3.032 0.861,4.247 0.182,4.931 -0.244,1.441 0.521,1.234 0.245,6.867 0.342,0.188 -0.139,2.345 -0.182,-0.347 0.307,0.051 -0.339,-0.004 0.466,5.889 0.628,1.298 0.622,0.432 -0.51,2.069 0.311,-0.778 -0.286,0.815 0.434,2.008 -0.342,-0.07 0.066,-0.291 0.221,0.38 -0.061,0.652 0.877,1.996 0.376,-0.08 0.059,0.701 0.049,-0.303 1.802,-0.186 0.551,-0.465 0.581,0.441 1.061,-0.002 1.935,0.864 3.062,0.543 3.586,1.511 5.141,0.858 3.528,-0.35 2.639,-0.865 3.087,-1.726 4.141,-3.535 1.738,-0.397 2.33,-0.092 2.46,0.356 4.539,1.863 0.69,0.675 2.216,0.495 0.208,-0.667 -0.014,0.282 -0.503,-0.568 -0.064,-1.277 0.222,-3.634 0.315,-0.821 0.672,1.094"
       id="path562" />
  </g>
  <g
     id="g568"
     transform="translate(-34.593402,-193.48401)">
    <path
       fill="none"
       stroke="#000000"
       stroke-width="2"
       stroke-linecap="round"
       stroke-linejoin="round"
       d="m 359.803,689.087 -0.399,0.073 -0.062,-0.385 0.022,0.285 0.07,-0.239 -0.185,0.263 -1.366,0.18 -1.502,-0.391 -0.465,-0.809 0.665,-1.384 0.653,-0.45 0.393,0.176 1.138,-0.838 3.2,-0.714 1.68,0.492 0.669,1.469 -1.978,4.334 -1.141,1.416 -0.681,0.332 -1.997,2.129 -0.735,0.186 -2.091,1.627 -1.391,-0.252 -0.279,0.275 -0.935,-1.48 -0.008,-1.89 1.784,-2.054 1.335,-0.829 3.582,-1.354 2.288,-0.177 1.947,0.496 0.495,0.419 0.064,0.768 -0.698,-10e-4 -1.867,1.64 -3.161,1.587 -1.817,0.028 -1.527,-0.898 -0.626,-0.841 -0.057,-1.194 3.197,-4.384 0.906,-0.66 1.405,-0.443 2.095,0.673 0.714,0.931 0.47,1.082 v 1.963 l -0.853,0.795 -0.078,-0.287 -0.257,0.078 -1.007,1.682 -2.89,2.867 -1.75,0.6 -1.806,-0.004 -0.548,-0.355 -0.237,-0.844 0.107,-0.991 0.909,-1.832 2.438,-2.733 1.884,-1.356 0.501,0.198 0.025,0.598 -0.365,0.157 0.881,0.989 0.016,-0.326 -0.377,0.06 0.214,-0.056 0.178,0.677 -0.213,-0.537 0.2,-0.52 -0.428,0.816 0.506,-0.09 0.922,0.466 2.444,-0.474 0.593,-0.38 4.945,0.481 10.496,-1.021 5.568,1.295 1.166,0.404 1.028,0.974 0.514,-0.117 3.959,1.49 0.854,-0.477 0.347,0.374 1.886,0.386 2.925,-0.199 0.749,0.315 2.519,-1.354 4.501,-1.239 1.274,0.729 0.161,0.437 1.123,0.062 0.213,-0.242 0.125,1.028 -0.236,0.291 0.473,-0.223 -0.407,-0.093 -0.028,0.41 0.467,0.098"
       id="path566" />
  </g>
  <g
     id="g572"
     transform="translate(-34.593402,-193.48401)">
    <path
       fill="none"
       stroke="#000000"
       stroke-width="2"
       stroke-linecap="round"
       stroke-linejoin="round"
       d="m 421.321,505.789 0.929,-0.113 0.133,0.677 -0.755,-0.7 0.52,0.068 0.021,0.344 -0.32,-0.87 0.235,0.084 0.086,-6.165 1.043,-6.667 -0.495,0.13"
       id="path570" />
  </g>
  <g
     id="g576"
     transform="translate(-34.593402,-193.48401)">
    <path
       fill="none"
       stroke="#000000"
       stroke-width="2"
       stroke-linecap="round"
       stroke-linejoin="round"
       d="m 415.451,500.611 0.366,0.175 -0.46,-0.189 0.279,-0.246 0.459,0.636 2.71,-0.977 5.523,1.302 3.401,-0.18 1.669,-0.482 2.714,-1.788 1.644,-2.286"
       id="path574" />
  </g>
  <g
     id="g580"
     transform="translate(-34.593402,-193.48401)">
    <path
       fill="none"
       stroke="#000000"
       stroke-width="2"
       stroke-linecap="round"
       stroke-linejoin="round"
       d="m 422.986,477.933 -0.71,0.06 -0.259,0.402 2.668,2.18 2.488,-0.178 0.772,-0.259 0.75,-0.759 2.644,-0.496 0.983,-0.568 1.449,-0.126"
       id="path578" />
  </g>
  <g
     id="g584"
     transform="translate(-34.593402,-193.48401)">
    <path
       fill="none"
       stroke="#000000"
       stroke-width="2"
       stroke-linecap="round"
       stroke-linejoin="round"
       d="m 419.582,697.569 0.312,0.632 0.35,-0.316 -0.418,-2.025 -0.005,-14.94 -0.138,-2.111 -0.255,-0.714 -0.281,0.293 -0.139,-0.324"
       id="path582" />
  </g>
  <g
     id="g588"
     transform="translate(-34.593402,-193.48401)">
    <path
       fill="none"
       stroke="#000000"
       stroke-width="2"
       stroke-linecap="round"
       stroke-linejoin="round"
       d="m 412.465,687.849 0.219,-0.119 1.683,1.065 0.991,0.075 4.83,-1.237 3.435,-2.189 1.178,-1.466"
       id="path586" />
  </g>
  <g
     id="g592"
     transform="translate(-34.593402,-193.48401)">
    <path
       fill="none"
       stroke="#000000"
       stroke-width="2"
       stroke-linecap="round"
       stroke-linejoin="round"
       d="m 413.721,659.667 -0.132,-0.766 0.429,-0.536 3.385,0.467 1.371,-0.384 2.749,0.982 2.045,-0.536 0.737,0.192 2.461,-0.693 0.784,-0.561 0.907,0.117 2.733,-0.63"
       id="path590" />
  </g>
  <g
     id="g596"
     transform="translate(-34.593402,-193.48401)">
    <path
       fill="none"
       stroke="#000000"
       stroke-width="2"
       stroke-linecap="round"
       stroke-linejoin="round"
       d="m 421.24,920.71 0.414,-0.025 0.056,0.249 0.062,-0.316 0.071,-3.681 1.506,-8.922 0.252,-2.657 -0.264,-2.509"
       id="path594" />
  </g>
  <g
     id="g600"
     transform="translate(-34.593402,-193.48401)">
    <path
       fill="none"
       stroke="#000000"
       stroke-width="2"
       stroke-linecap="round"
       stroke-linejoin="round"
       d="m 417.558,914.349 0.457,0.54 1.159,-0.157 0.895,0.689 3.475,0.687 5.461,-2.101 1.012,-0.955 2.993,-1.74 0.577,-0.924"
       id="path598" />
  </g>
  <g
     id="g604"
     transform="translate(-34.593402,-193.48401)">
    <path
       fill="none"
       stroke="#000000"
       stroke-width="2"
       stroke-linecap="round"
       stroke-linejoin="round"
       d="m 418.348,892.207 -0.703,0.094 1.037,0.505 2.182,0.166 1.34,-0.346 1.701,0.461 0.885,-0.298 2.682,0.633 2.362,-0.314 0.871,0.335 0.98,-0.328"
       id="path602" />
  </g>
  <g
     id="g608"
     transform="translate(-34.593402,-193.48401)">
    <path
       fill="none"
       stroke="#000000"
       stroke-width="2"
       stroke-linecap="round"
       stroke-linejoin="round"
       d="m 471.515,666.04 -0.472,1.683 0.754,-1.202 0.401,1.789 0.49,0.034 0.127,0.427 0.211,-0.306 0.58,0.185 0.135,-0.223 0.403,0.683 0.263,-0.491 0.408,0.389 1.344,0.039 0.841,-0.669 -0.027,1.003 0.239,-1.186 0.217,0.392 0.752,0.104 0.472,-0.183 0.124,-0.509 0.52,0.858 0.559,-0.666 0.907,0.054 0.044,-0.366 0.234,0.266 0.324,-0.234 0.362,0.468 0.253,-0.193 0.058,0.454 0.08,-0.438 0.891,-0.109 0.458,0.832 0.524,-0.656 0.332,0.376 0.159,-0.34 0.763,0.785 1.244,-0.554 0.719,0.018 1.111,0.81 1.222,0.04 1.587,-0.599 1.311,-0.062 0.603,-0.504 8.304,-0.097 0.197,-0.25 0.548,0.233 0.333,0.732 1.074,-0.659 0.095,-0.523 2.261,0.221 2.153,-0.58 10.156,-1.008 8.031,0.048 3.497,-0.761 5.599,-0.181 12.156,-1.879 3.961,-0.196 1.616,-0.509 4.215,0.593 5.688,0.213 1.97,0.446 4.634,-0.343 4.904,0.427 1.68,-0.422 5.156,0.605 5.588,-0.139 6.811,-0.872 2.495,-0.946 5.242,-1.17 20.744,-0.227 12.317,-1.512 1.459,0.048 4.094,-0.853 9.508,0.087 2.55,-0.857 23.773,-0.767 4.637,-0.659 2.811,0.204 0.961,-0.253 1.416,0.544 0.614,0.634 2.743,0.056 1.461,0.354 1.996,0.047 0.687,-0.464 0.297,0.134 0.128,-0.416 0.183,0.862 0.356,-0.134 -0.006,-0.383 0.024,0.597 -0.232,-0.247 0.206,-0.696 -0.08,1.05 -0.04,-0.522 0.029,0.314 0.859,-1.5"
       id="path606" />
  </g>
  <g
     id="g612"
     transform="translate(-34.593402,-193.48401)">
    <path
       fill="none"
       stroke="#000000"
       stroke-width="2"
       stroke-linecap="round"
       stroke-linejoin="round"
       d="m 693.536,668.374 -0.22,-0.355 -0.344,0.359 -0.188,-0.29 -0.017,0.24 -0.647,0.085 -1.554,-0.507 -1.029,-0.949 -0.499,-1.731 -0.12,-3.562 0.41,-4.22 1.706,-4.536 3.353,-4.59 7.192,-7.326 2.672,-2.066 2.079,-1.057 1.336,0.055 1.674,2.445 1.101,4.313 -0.299,5.037 -1.974,6.244 -1.445,2.597 -3.272,3.246 -0.741,0.238 -2.201,1.717 -1.779,0.895 -2.848,0.641 -2.033,-0.585 -1.053,0.063 -2.305,-1.364 -0.64,-0.985 -0.675,-0.349 -0.372,-0.98 0.345,-0.504 0.513,0.228 0.311,-0.427"
       id="path610" />
  </g>
  <g
     id="g616"
     transform="translate(-34.593402,-193.48401)">
    <path
       fill="none"
       stroke="#000000"
       stroke-width="2"
       stroke-linecap="round"
       stroke-linejoin="round"
       d="m 735.748,610.619 0.197,0.475 0.283,-0.137 -0.738,0.247 -0.46,1.636 0.196,0.733 0.187,-1.123 0.163,1.232 -0.508,7.65 -6.628,30.579 -4.336,14.688 -1.291,5.935 0.586,-0.913 0.107,-0.74 -0.197,0.096 0.662,-0.942 0.68,-0.279 0.411,-0.8 4.602,-10.533 2.074,-3.541 2.406,-2.319 0.261,1.199 1.456,2.081 0.597,1.456 0.351,0.046 0.784,2.305 2.144,3.211 0.269,1.429 -0.435,4.538 -1.179,3.668 -3.038,7.062 0.109,0.268 0.362,-1.213 1.551,-1.565"
       id="path614" />
  </g>
  <g
     id="g620"
     transform="translate(-34.593402,-193.48401)">
    <path
       fill="none"
       stroke="#000000"
       stroke-width="2"
       stroke-linecap="round"
       stroke-linejoin="round"
       d="m 758.309,658.553 -2.873,1.629 -1.707,1.43 -2.369,3.974 -0.698,2.526 -0.288,2.553 0.404,2.382 1.058,1.66 1.015,0.96 1.858,0.75 1.55,0.233 2.173,-0.725 3.103,-2.245 2.757,-3.36 1.17,-2.263"
       id="path618" />
  </g>
  <g
     id="g624"
     transform="translate(-34.593402,-193.48401)">
    <path
       fill="none"
       stroke="#000000"
       stroke-width="2"
       stroke-linecap="round"
       stroke-linejoin="round"
       d="m 751.892,637.125 1.57,-0.027 0.71,3.897 0.649,1.296 2.822,2.126"
       id="path622" />
  </g>
  <g
     id="g628"
     transform="translate(-34.593402,-193.48401)">
    <path
       fill="none"
       stroke="#000000"
       stroke-width="2"
       stroke-linecap="round"
       stroke-linejoin="round"
       d="m 485.206,494.45 -1.921,-0.598 -0.902,-1.155 -0.205,-5.225 0.465,-2.366 0.367,-0.347 0.37,0.62 2.805,2.279 1.287,2.099 0.298,1.645 -0.252,0.494 -0.396,-0.301 -2.114,1.263 -2.393,0.812 -1.391,0.291 -1.685,-0.37 -2.595,-2.844 -1.226,-2.246 0.144,-2.236 0.62,-0.97 0.796,-0.766 2.005,0.044 0.605,0.343 3.633,2.975 1.096,1.197 1.169,2.006 0.485,2.298 -0.29,1.612 -0.62,1.093 -1.348,0.3 -1.406,-0.469 -1.409,-0.93 -0.694,-0.819 -0.832,-1.892 -0.231,-0.962 0.259,-1.987 0.608,-0.926 0.781,-0.01 1.841,2.476 0.485,1.487 -0.391,0.122 -0.095,-0.464"
       id="path626" />
  </g>
  <g
     id="g632"
     transform="translate(-34.593402,-193.48401)">
    <path
       fill="#000000"
       d="m 654.796,533.694 c 0,0 0,0 0,0 1.354,-0.85 2.806,-1.561 4.063,-2.549 0.168,-0.133 0.195,-0.56 -0.002,-0.643 -0.752,-0.314 -1.626,-0.566 -2.415,-0.367 -1.236,0.31 -2.476,0.903 -3.362,1.819 -0.365,0.378 -0.29,1.201 0.08,1.576 m -28.459,-34.759 c 0,0 0,0 0,0 10.331,-0.846 20.704,-1.286 30.995,-2.536 0.528,-0.064 -0.704,-0.828 -1.17,-1.086 -0.302,-0.168 -0.684,-0.153 -1.03,-0.133 -10.005,0.593 -19.989,1.55 -30.003,1.97 -5.657,0.237 -11.328,0.219 -16.986,0 -11.349,-0.439 -22.67,-1.427 -34.014,-1.972 -2.327,-0.112 -4.671,-0.224 -6.99,10e-4 -1.048,0.102 -1.961,0.843 -3.006,0.97 -1.652,0.2 -3.34,0.205 -4.99,10e-4 -3.836,-0.474 -7.635,-1.228 -11.416,-2.03 -0.901,-0.191 -1.677,-0.902 -2.597,-0.942 -6.324,-0.275 -12.666,-0.278 -18.991,10e-4 -1.052,0.047 -1.961,0.843 -3.006,0.97 -1.652,0.2 -3.336,0.175 -4.991,10e-4 -1.638,-0.172 -3.201,-0.804 -4.831,-1.035 -5.03,-0.712 -10.062,-1.502 -15.133,-1.792 -0.731,-0.042 -1.31,0.81 -2.042,0.81 -0.711,0 -1.262,-0.781 -1.973,-0.812 -0.708,-0.03 -1.318,0.641 -2.027,0.642 -0.406,0.001 -0.638,-0.697 -1.039,-0.634 -1.778,0.281 -3.661,0.606 -5.154,1.612 -0.438,0.295 0.703,0.82 1.167,1.074 0.303,0.167 0.683,0.133 1.03,0.133 0.675,0 1.369,0.039 2.022,-0.132 0.378,-0.098 0.583,-0.649 0.974,-0.651 0.389,-0.002 0.584,0.642 0.973,0.642 0.709,0 1.319,-0.664 2.027,-0.642 0.714,0.022 1.286,0.776 2,0.768 0.732,-0.007 1.311,-0.852 2.042,-0.81 5.071,0.29 10.103,1.08 15.133,1.792 1.63,0.231 3.193,0.863 4.831,1.035 1.655,0.174 3.339,0.199 4.991,-10e-4 1.045,-0.127 1.954,-0.923 3.006,-0.97 6.325,-0.279 12.667,-0.282 18.991,-10e-4 0.94,0.042 1.735,0.756 2.652,0.966 3.43,0.783 6.866,1.602 10.361,2.006 2.314,0.268 4.67,0.224 6.99,-10e-4 1.048,-0.102 1.961,-0.841 3.006,-0.97 1.654,-0.203 3.334,-0.098 4.997,-0.014 11.341,0.573 22.658,1.608 34.007,1.985"
       id="path630" />
  </g>
  <g
     id="g636"
     transform="translate(-34.593402,-193.48401)">
    <path
       fill="none"
       stroke="#000000"
       stroke-width="2"
       stroke-linecap="round"
       stroke-linejoin="round"
       d="m 570.537,616.589 -1.43,0.117 -0.077,-0.217 0.422,-0.07 0.125,-0.572 0.07,1.231 0.214,-7.471 -1.285,-14.285 0.021,-7.985 -0.378,-5.97 -0.777,-2.871 0.258,0.691 0.077,-0.384 -0.291,0.125 0.285,-0.061 -0.194,0.236 0.084,-0.369 0.241,0.435 0.242,1.168 0.17,-0.334 -0.114,0.548 0.257,-0.884 0.425,0.734 0.585,-0.806 0.09,0.582 -0.098,-0.512 0.832,0.392 -0.008,-0.432 0.806,0.575 0.411,-0.871 0.321,0.39 0.531,-0.217 0.094,0.326 1.293,-0.731 1.513,-0.018 0.745,-0.601 2.705,-0.164 1.094,0.421 1.13,-0.173 1.197,-0.77 1.522,0.083 0.315,0.416 0.636,-0.596 1.329,-0.118 2.593,1.097 0.415,0.454 1.421,0.28 0.089,0.272 0.252,-0.285 0.461,0.116 0.905,0.884 1.654,0.37 1.207,0.83 0.572,-0.033 1.547,1.326 0.932,0.108 0.351,0.54 0.854,0.448 0.278,-0.135 1.422,1.754 2.189,1.676 0.093,1.107 0.878,2.068 0.377,4.365 -2.196,8.525 -0.632,0.487 -1.208,2.739 -2.239,2.183 -0.211,0.677 -0.759,0.486 -0.279,-0.224 -0.923,0.743 -1.329,0.444 -0.739,-0.073 -0.297,0.527 -0.269,-0.142 -0.809,0.565 -0.347,0.047 -0.294,-0.39 -0.739,0.709 -1.169,0.253 -0.318,0.515 -1.266,-0.447 -1.266,0.283 -0.541,-0.307 -1.11,0.455 -4.537,0.323 -3.849,1.895 -1.382,0.187 -2.207,1.588 -1.058,-0.105 -2.097,-1.502 -0.187,0.531 -0.327,-0.156 0.135,0.274 0.056,-0.664 0.163,1.862 0.635,0.332 0.341,-0.608"
       id="path634" />
  </g>
  <g
     id="g640"
     transform="translate(-34.593402,-193.48401)">
    <path
       fill="#000000"
       d="m 604.762,594.706 c 0,0 0,0 0,0 1.581,-0.564 3.076,-1.5 4.744,-1.692 3.309,-0.38 6.668,-0.216 9.991,10e-4 0.715,0.047 1.287,0.752 2.003,0.784 0.39,0.017 0.588,-0.588 0.974,-0.652 1.577,-0.258 3.212,-0.006 4.784,-0.292 0.278,-0.05 0.5,-0.39 0.515,-0.671 1.08,-20.624 1.484,-41.282 2.762,-61.895 0.153,-2.465 -0.412,-5.717 1.523,-7.252 1.96,-1.554 5.025,-0.245 7.503,0.094 2.024,0.277 3.872,1.35 5.878,1.738 1.022,0.197 2.099,0.192 3.122,0 2.054,-0.385 4.05,-1.044 6.028,-1.716 1.582,-0.538 3.142,-1.158 4.636,-1.906 0.283,-0.142 0.578,-0.408 0.616,-0.723 0.055,-0.464 0.091,-1.444 -0.368,-1.353 -4.107,0.814 -7.788,3.649 -11.973,3.8 -5.684,0.205 -11.82,-5.436 -16.84,-2.76 -3.937,2.098 -2.33,8.674 -2.609,13.127 -1.186,18.934 5.039,39.181 -1.778,56.885 -2.509,6.516 -13.946,0.92 -20.858,1.903 -0.86,0.122 -2,0.535 -2.213,1.377"
       id="path638" />
  </g>
  <g
     id="g644"
     transform="translate(-34.593402,-193.48401)">
    <path
       fill="none"
       stroke="#000000"
       stroke-width="2"
       stroke-linecap="round"
       stroke-linejoin="round"
       d="m 562.929,614.536 0.358,-0.626 0.271,0.376 0.356,0.142 -0.031,-0.201 -0.439,1.173 -0.285,-0.495 0.129,-0.549 -0.594,0.51 -0.661,-0.378 -0.471,0.532 -0.168,-0.137 -0.604,1.041 -1.646,1.04 -0.349,-0.937 -0.552,-0.09 -0.121,-0.656 -0.53,0.179 -0.364,-0.349 -0.218,0.357 -1.842,-3.801 1.362,-6.616 0.646,-0.828 0.612,0.001 0.267,0.364 0.764,-1.028 1.54,-0.448 3.589,1.835 0.857,0.142 0.467,0.536 0.361,-0.145 1.438,0.456 0.452,-0.297 1.201,0.712 1.9,1.983 1.066,2.229 0.045,0.869 0.057,-0.256 0.169,0.368 0.147,-0.596 -0.772,2.572 -1.114,2.268 -0.593,0.346 -1.286,0.068 -0.672,-0.586 -1.75,0.875 -0.979,-0.371 -2.299,1.592 -1.771,-0.239 -0.633,0.709 -1.795,-2.032 -1.925,-1.279 -1.161,-1.751 -0.091,-1.833 1.384,-1.407"
       id="path642" />
  </g>
  <g
     id="g648"
     transform="translate(-34.593402,-193.48401)">
    <path
       fill="none"
       stroke="#000000"
       stroke-width="2"
       stroke-linecap="round"
       stroke-linejoin="round"
       d="m 553.835,613.375 -0.42,-0.357 -0.037,0.356 -0.503,0.203 -0.039,-0.201 0.109,0.642 -0.019,-0.494 -0.03,0.214 -0.243,-0.306 -1.461,0.812 -1.99,-0.147 -1.734,0.516 -0.968,1.881 -0.072,1.103 0.905,4.089 0.183,6.144 0.757,5.496 0.687,11.763 -0.171,11.985 0.574,2.464 -0.308,2.037 -0.101,0.301 -0.13,-0.171 0.007,-0.704 -0.428,2.141 -0.309,0.217 0.285,0.864 -0.07,-0.327 0.173,0.2 0.31,-0.6 0.239,0.092 -0.322,-0.132 0.087,0.611 -0.652,1.761 -1.032,1.109 -0.843,0.249 -1.781,-0.76 -0.984,-1.476 -0.043,-0.554 0.15,-0.821 0.559,-0.547 3.098,0.197 0.57,-0.257 1.433,0.911 1.497,0.496 0.901,0.78 -1.098,2.967 -3.174,3.072 -1.453,0.535 -0.343,0.418 -0.844,-0.606 -1.176,-2.383 -0.037,-1.923 1.037,-2.941 0.967,-1.726 2.156,-0.732 1.309,0.301 0.925,1.499 0.224,2.048 -0.558,2.612 -0.785,1.04 -2.955,1.735 -1.871,-0.431 -1.239,-1.403 -0.562,-2.954 0.843,-3.536 0.691,-1.032 1.053,-0.333 2.053,-0.013 1.692,0.947 1.258,1.789 0.691,3.025 -1.414,1.556 -2.513,1.163 -1.705,0.181 -1.448,-0.836 -0.955,-1.049 0.364,-1.131 1.134,-1.103"
       id="path646" />
  </g>
  <g
     id="g652"
     transform="translate(-34.593402,-193.48401)">
    <path
       fill="none"
       stroke="#000000"
       stroke-width="2"
       stroke-linecap="round"
       stroke-linejoin="round"
       d="m 456.67,890.421 -0.207,-0.329 0.052,0.357 -0.455,0.417 -0.235,1.461 0.266,-0.903 0.1,0.5 0.559,0.341 0.344,-0.335 0.709,0.225 0.852,-0.51 4.133,-1.105 2.78,-0.058 2.351,0.966 1.77,0.204 0.667,0.51 2.315,-0.527 4.876,0.651 5.882,-0.949 0.953,0.296 1.245,-0.744 2.19,-0.399 0.544,-0.626 2.755,0.692 0.677,0.723 1.052,0.106 -0.264,-0.502 0.525,0.767 1.523,-0.778 0.482,-1.153 0.668,0.364 0.318,-0.307 1.58,-21.631 1.21,-10.702 1.637,-19.8 1.19,-26.762 -0.707,-30.173 0.077,-15.452 -1.401,-15.115 -0.472,-10.557 0.625,-20.899 -1.126,-22.758 -0.465,-5.091 -0.836,-3.927 -0.726,-6.325 -0.119,-6.248 0.722,-10.857 0.435,-14.904 -0.17,-3.719 -0.404,-1.819 -0.047,-10.706 -0.662,-9.006 -0.658,-24.37 2.12,-16.146 -0.244,-3.991 -0.022,1.267 -0.064,-0.713 0.587,0.071 -0.397,-0.034 -0.01,-0.384 1.328,1.113 1.267,0.202 5.344,-1.34 2.265,0.058 2.892,0.393 1.136,0.484 5.346,0.547 0.882,-0.354 2.181,1.354 4.381,1.487 10.944,2.507 0.67,-0.411 1.916,-0.089 2.364,-0.972 0.707,0.454 1.086,-1.293 1.022,-0.371 0.268,-0.412 1.75,1.963 2.176,1.298 1.707,0.455 0.416,-0.367 0.13,-0.73 0.555,0.069 0.15,-0.642 0.417,0.612 -0.059,0.593 0.266,-0.962 2.379,0.924 0.858,-0.018 0.886,-0.598 0.319,-0.858 0.715,0.33 4.01,-1.348 0.843,0.052"
       id="path650" />
  </g>
  <g
     id="g656"
     transform="translate(-34.593402,-193.48401)">
    <path
       fill="none"
       stroke="#000000"
       stroke-width="2"
       stroke-linecap="round"
       stroke-linejoin="round"
       d="m 657.181,481.683 0.574,-0.304 0.38,0.17 0.269,-0.513 0.041,0.515 0.862,0.181 0.432,0.469 5.572,0.714 2.666,1.081 0.507,0.499 0.865,-0.036 1.37,0.52 0.969,0.847 2.347,3.738 1.709,2.061 1.151,3.426 0.708,3.996 -0.631,2.813 -0.294,7.276 -1.75,5.285 -2.056,3.756 -3.396,4.884 -0.679,0.831 -0.493,0.082 -2.016,3.99 -0.155,-0.413 -6.628,3.452 -1.841,0.673 -0.188,0.347 -1.977,0.538 0.044,-0.581 0.184,1.547 0.078,-1.228 1.67,-0.507"
       id="path654" />
  </g>
  <g
     id="g660"
     transform="translate(-34.593402,-193.48401)">
    <path
       fill="none"
       stroke="#000000"
       stroke-width="2"
       stroke-linecap="round"
       stroke-linejoin="round"
       d="m 657.173,485.254 -0.031,-0.339 0.499,-0.106 0.97,0.6 0.825,-1.425 1.438,-0.519 0.256,0.317 2.072,-1.172 0.285,0.216 2.152,-0.386 0.446,-0.392 0.714,0.466 0.935,-0.002 0.192,0.459 0.902,-0.731 1.266,1.506 2.955,1.333 1.888,0.089 0.403,-0.267 1.394,0.838 2.166,0.013 1.671,1.037 6.429,1.591 1.127,0.974 0.844,0.109 0.44,0.461 2.509,-0.537 3.797,1.152 0.844,1.023 2.444,0.579 0.598,-0.292 1.824,0.773 5.957,1.062 3.319,1.405 5.456,3.13 0.264,0.545 0.989,0.228 0.88,0.749 0.522,-0.058 4.736,3.793 1.773,1.987 0.914,0.421 0.194,-0.238 0.317,0.892 0.357,-0.659 -1.376,0.511 -1.258,1.105"
       id="path658" />
  </g>
  <g
     id="g664"
     transform="translate(-34.593402,-193.48401)">
    <path
       fill="none"
       stroke="#000000"
       stroke-width="2"
       stroke-linecap="round"
       stroke-linejoin="round"
       d="m 663.887,532.574 -0.618,1.115 0.173,-0.616 0.738,-0.123 0.412,-0.622 2.612,0.525 3.165,-0.083 4.965,-0.665 1.472,-0.343 0.879,-0.613 2.008,0.012 1.391,-0.686 0.668,0.112 2.343,-1.454 0.729,-0.111 1.52,-1.256 4.475,-1.03 1.987,-1.059 5.302,-1.613 0.824,-0.658 0.902,-0.018 1.214,-0.749 0.49,0.295 4.057,-4.385 5.049,-2.599 1.972,-0.673 2.236,-1.794 0.844,-1.108 0.792,-0.265 2.578,-2.306 0.837,-0.085 1.777,-1.708 2.212,-1.387 -0.076,-0.234 -0.56,0.717"
       id="path662" />
  </g>
  <g
     id="g668"
     transform="translate(-34.593402,-193.48401)">
    <path
       fill="none"
       stroke="#000000"
       stroke-width="2"
       stroke-linecap="round"
       stroke-linejoin="round"
       d="m 727.267,506.895 0.141,-0.384 -0.525,0.466 0.437,-0.077 0.327,0.309 0.225,-0.538 -0.106,0.315 0.53,0.098 0.217,0.376 0.296,-0.353 0.203,0.276 2.038,-0.104 2.093,-1.018 1.267,-0.02 5.032,-1.8 1.892,0.177 0.679,-0.416 1.377,0.419 2.586,0.029 0.783,0.385 1.668,-0.411 0.859,-0.539 7.667,0.372 0.527,-0.252 1.414,0.25 1.152,-0.276 0.326,0.282 1.024,-0.297 0.489,0.273 -0.046,0.285 0.004,-0.708 -0.149,0.541 -0.079,-0.481 -0.853,0.453"
       id="path666" />
  </g>
  <g
     id="g672"
     transform="translate(-34.593402,-193.48401)">
    <path
       fill="none"
       stroke="#000000"
       stroke-width="2"
       stroke-linecap="round"
       stroke-linejoin="round"
       d="m 771.361,508.378 -0.574,0.317 -0.197,0.54 -0.777,-0.128 -0.405,0.256 -2.667,-0.496 -2.882,-1.95 -1.739,-2.379 -0.187,-2.364 0.292,-1.771 2.072,-5.634 3.685,-4.873 3.006,-2.554 6.705,-3.793 5.585,-1.237 2.152,0.209 2.133,1.263 1.575,2.769 0.652,3.388 -0.111,2.529 -0.759,4.272 -1.543,4.453 -1.768,2.152 -3.06,2.633 -5.212,3.193 -2.445,1.147 -3.217,0.757 -3.281,0.04 -4.374,-2.087 -1.173,-2.464 -0.325,-2.193 0.428,-2.158 0.242,-0.665 1.841,-1.704"
       id="path670" />
  </g>
  <g
     id="g676"
     transform="translate(-34.593402,-193.48401)">
    <path
       fill="none"
       stroke="#000000"
       stroke-width="2"
       stroke-linecap="round"
       stroke-linejoin="round"
       d="m 807.529,514.539 -0.665,-0.068 -0.27,0.424 0.481,0.686 2.301,-0.249 4.263,-2.85 1.12,-1.553 1.818,-1.6 6.999,-7.704 6.192,-8.509 3.344,-5.764 4.435,-8.64 3.595,-11.632 1.147,-5.105 0.442,-2.409 -0.069,-3.191 -0.583,-1.081 -1.272,-0.534 -1.413,0.511 -2.759,1.741 -2.106,2.642 -2.273,3.621 -2.588,5.228 -1.558,5.951 -3.408,23.652 0.206,5.849 0.848,4.762 1.543,4.383 3.687,-4.009 9.924,-8.633 2.172,-1.191 4.52,-4.621 3.853,-3.202 0.749,-1.191 1.409,-0.71 -0.055,-0.321 -0.426,0.429 -0.413,1.413 -1.301,1.493 -2.898,5.223 -0.898,2.2 -1.053,3.674 0.521,2.684 1.659,2.973 3.509,1.92 0.695,0.831 4.163,0.183 0.556,-0.078 0.942,-0.994 0.769,0.138 1.41,-0.324 3.574,-3.535 2.181,-3.327 1.854,-4.773 0.591,-3.175 0.103,-2.983 -1.835,-4.331 -1.366,-1.763 -1.087,-0.79 -4.669,-2.268 -2.901,0.467 -1.892,0.82 -3.832,2.002 -2.409,2.144 -0.4,1.679 0.709,0.855 1.013,0.509 3.841,1.144 4.652,0.047 6.892,-2.862 1.726,-0.447 7.357,-4.143"
       id="path674" />
  </g>
  <metadata
     id="metadata738">
    <rdf:RDF>
      <cc:Work
         rdf:about="">
        <dc:title>Quick sheets</dc:title>
      </cc:Work>
    </rdf:RDF>
  </metadata>
</svg>
